<?xml version="1.0" standalone="no"?>
 <!DOCTYPE svg PUBLIC "-//W3C//DTD SVG 1.1//EN" 
 "http://www.w3.org/Graphics/SVG/1.1/DTD/svg11.dtd"> 
<svg xmlns="http://www.w3.org/2000/svg" version="1.1" 
    width="29.7002cm" height="21.0007cm" viewBox="0 0 116930 82680 ">
<title>SVG Picture created as amb_blackbox.svg date 2015/05/05 10:41:11 </title>
  <desc>Picture generated by Eeschema-SVG </desc>
<g style="fill:#000000; fill-opacity:1;stroke:#000000; stroke-opacity:1;
stroke-linecap:round; stroke-linejoin:round; "
 transform="translate(0 0) scale(1 1)">
</g>
<g style="fill:#A00000; fill-opacity:0.0; 
stroke:#A00000; stroke-width:100; stroke-opacity:1; 
stroke-linecap:round; stroke-linejoin:round;">
<path d="M4000 4000
L112930 4000
L112930 78680
L4000 78680
L4000 4000
" />
<path d="M4700 4700
L112230 4700
L112230 77980
L4700 77980
L4700 4700
" />
<path d="M25780 4000
L25780 4700
" />
<path d="M15030 4550
L14750 4550
" />
<path d="M14890 4550
L14890 4050
L14840 4120
L14790 4170
L14750 4200
" />
<path d="M25780 78680
L25780 77980
" />
<path d="M15030 78530
L14750 78530
" />
<path d="M14890 78530
L14890 78030
L14840 78100
L14790 78150
L14750 78180
" />
<path d="M47560 4000
L47560 4700
" />
<path d="M36530 4100
L36550 4080
L36600 4050
L36720 4050
L36760 4080
L36790 4100
L36810 4150
L36810 4200
L36790 4270
L36500 4550
L36810 4550
" />
<path d="M47560 78680
L47560 77980
" />
<path d="M36530 78080
L36550 78060
L36600 78030
L36720 78030
L36760 78060
L36790 78080
L36810 78130
L36810 78180
L36790 78250
L36500 78530
L36810 78530
" />
<path d="M69340 4000
L69340 4700
" />
<path d="M58280 4050
L58590 4050
L58420 4240
L58500 4240
L58540 4270
L58570 4290
L58590 4340
L58590 4460
L58570 4500
L58540 4530
L58500 4550
L58350 4550
L58310 4530
L58280 4500
" />
<path d="M69340 78680
L69340 77980
" />
<path d="M58280 78030
L58590 78030
L58420 78220
L58500 78220
L58540 78250
L58570 78270
L58590 78320
L58590 78440
L58570 78480
L58540 78510
L58500 78530
L58350 78530
L58310 78510
L58280 78480
" />
<path d="M91120 4000
L91120 4700
" />
<path d="M80320 4220
L80320 4550
" />
<path d="M80200 4030
L80090 4390
L80390 4390
" />
<path d="M91120 78680
L91120 77980
" />
<path d="M80320 78200
L80320 78530
" />
<path d="M80200 78010
L80090 78370
L80390 78370
" />
<path d="M102130 4050
L101890 4050
L101870 4290
L101890 4270
L101940 4240
L102060 4240
L102100 4270
L102130 4290
L102150 4340
L102150 4460
L102130 4500
L102100 4530
L102060 4550
L101940 4550
L101890 4530
L101870 4500
" />
<path d="M102130 78030
L101890 78030
L101870 78270
L101890 78250
L101940 78220
L102060 78220
L102100 78250
L102130 78270
L102150 78320
L102150 78440
L102130 78480
L102100 78510
L102060 78530
L101940 78530
L101890 78510
L101870 78480
" />
<path d="M4000 28890
L4700 28890
" />
<path d="M4240 16510
L4470 16510
" />
<path d="M4190 16650
L4350 16150
L4520 16650
" />
<path d="M112930 28890
L112230 28890
" />
<path d="M112470 16510
L112700 16510
" />
<path d="M112420 16650
L112580 16150
L112750 16650
" />
<path d="M4000 53780
L4700 53780
" />
<path d="M4390 41280
L4460 41300
L4480 41330
L4500 41380
L4500 41450
L4480 41490
L4460 41520
L4410 41540
L4220 41540
L4220 41040
L4390 41040
L4430 41070
L4460 41090
L4480 41140
L4480 41190
L4460 41230
L4430 41260
L4390 41280
L4220 41280
" />
<path d="M112930 53780
L112230 53780
" />
<path d="M112620 41280
L112690 41300
L112710 41330
L112730 41380
L112730 41450
L112710 41490
L112690 41520
L112640 41540
L112450 41540
L112450 41040
L112620 41040
L112660 41070
L112690 41090
L112710 41140
L112710 41190
L112690 41230
L112660 41260
L112620 41280
L112450 41280
" />
<path d="M4500 66380
L4480 66410
L4410 66430
L4360 66430
L4290 66410
L4240 66360
L4220 66310
L4200 66220
L4200 66150
L4220 66050
L4240 66000
L4290 65960
L4360 65930
L4410 65930
L4480 65960
L4500 65980
" />
<path d="M112730 66380
L112710 66410
L112640 66430
L112590 66430
L112520 66410
L112470 66360
L112450 66310
L112430 66220
L112430 66150
L112450 66050
L112470 66000
L112520 65960
L112590 65930
L112640 65930
L112710 65960
L112730 65980
" />
<path d="M79380 76420
L79450 75820
L79600 75820
L79680 75850
L79730 75910
L79750 75970
L79770 76080
L79760 76170
L79720 76280
L79680 76340
L79610 76390
L79530 76420
L79380 76420
" />
<path d="M80240 76420
L80280 76110
L80250 76050
L80200 76020
L80090 76020
L80020 76050
" />
<path d="M80240 76390
L80180 76420
L80040 76420
L79980 76390
L79960 76340
L79970 76280
L80000 76220
L80070 76190
L80210 76190
L80270 76170
" />
<path d="M80490 76020
L80720 76020
" />
<path d="M80590 75820
L80530 76340
L80550 76390
L80610 76420
L80670 76420
" />
<path d="M81090 76390
L81030 76420
L80920 76420
L80860 76390
L80840 76340
L80870 76110
L80900 76050
L80970 76020
L81080 76020
L81130 76050
L81160 76110
L81150 76170
L80850 76220
" />
<path d="M81370 76370
L81400 76390
L81370 76420
L81340 76390
L81370 76370
L81370 76420
" />
<path d="M81410 76050
L81440 76080
L81410 76110
L81380 76080
L81410 76050
L81410 76110
" />
<path d="M82480 75820
L82190 75820
L82130 76110
L82160 76080
L82220 76050
L82360 76050
L82420 76080
L82450 76110
L82470 76170
L82450 76310
L82410 76370
L82380 76390
L82320 76420
L82180 76420
L82120 76390
L82090 76370
" />
<path d="M83150 76420
L83200 76020
" />
<path d="M83190 76080
L83220 76050
L83290 76020
L83370 76020
L83420 76050
L83450 76110
L83410 76420
" />
<path d="M83450 76110
L83480 76050
L83550 76020
L83630 76020
L83680 76050
L83710 76110
L83670 76420
" />
<path d="M84210 76420
L84250 76110
L84220 76050
L84170 76020
L84060 76020
L83990 76050
" />
<path d="M84210 76390
L84150 76420
L84010 76420
L83950 76390
L83930 76340
L83940 76280
L83970 76220
L84040 76190
L84180 76190
L84240 76170
" />
<path d="M84490 76020
L84580 76420
" />
<path d="M84770 76020
L84580 76420
L84500 76570
L84470 76590
L84410 76620
" />
<path d="M85450 75880
L85480 75850
L85540 75820
L85680 75820
L85740 75850
L85770 75880
L85790 75940
L85780 75990
L85740 76080
L85360 76420
L85730 76420
" />
<path d="M86170 75820
L86220 75820
L86280 75850
L86310 75880
L86330 75940
L86340 76050
L86330 76190
L86280 76310
L86240 76370
L86210 76390
L86150 76420
L86100 76420
L86040 76390
L86010 76370
L85990 76310
L85980 76190
L85990 76050
L86040 75940
L86080 75880
L86110 75850
L86170 75820
" />
<path d="M86870 76420
L86520 76420
" />
<path d="M86700 76420
L86770 75820
L86700 75910
L86630 75970
L86570 75990
" />
<path d="M87480 75820
L87190 75820
L87130 76110
L87160 76080
L87220 76050
L87360 76050
L87420 76080
L87450 76110
L87470 76170
L87450 76310
L87410 76370
L87380 76390
L87320 76420
L87180 76420
L87120 76390
L87090 76370
" />
<path d="M70970 77620
L70970 77020
" />
<path d="M71320 77620
L71060 77280
" />
<path d="M71320 77020
L70970 77370
" />
<path d="M71570 77620
L71570 77220
" />
<path d="M71570 77020
L71540 77050
L71570 77080
L71600 77050
L71570 77020
L71570 77080
" />
<path d="M72210 77570
L72180 77590
L72090 77620
L72030 77620
L71950 77590
L71890 77540
L71860 77480
L71830 77370
L71830 77280
L71860 77170
L71890 77110
L71950 77050
L72030 77020
L72090 77020
L72180 77050
L72210 77080
" />
<path d="M72720 77620
L72720 77310
L72690 77250
L72630 77220
L72520 77220
L72460 77250
" />
<path d="M72720 77590
L72660 77620
L72520 77620
L72460 77590
L72430 77540
L72430 77480
L72460 77420
L72520 77390
L72660 77390
L72720 77370
" />
<path d="M73260 77620
L73260 77020
" />
<path d="M73260 77590
L73200 77620
L73090 77620
L73030 77590
L73000 77570
L72970 77510
L72970 77340
L73000 77280
L73030 77250
L73090 77220
L73200 77220
L73260 77250
" />
<path d="M74000 77310
L74200 77310
" />
<path d="M74290 77620
L74000 77620
L74000 77020
L74290 77020
" />
<path d="M74540 77570
L74570 77590
L74540 77620
L74510 77590
L74540 77570
L74540 77620
" />
<path d="M74830 77620
L74830 77020
L74980 77020
L75060 77050
L75120 77110
L75150 77170
L75180 77280
L75180 77370
L75150 77480
L75120 77540
L75060 77590
L74980 77620
L74830 77620
" />
<path d="M75430 77570
L75460 77590
L75430 77620
L75400 77590
L75430 77570
L75430 77620
" />
<path d="M75690 77450
L75980 77450
" />
<path d="M75640 77620
L75840 77020
L76040 77620
" />
<path d="M76230 77570
L76260 77590
L76230 77620
L76200 77590
L76230 77570
L76230 77620
" />
<path d="M104530 76420
L104360 76140
" />
<path d="M104180 76420
L104250 75820
L104480 75820
L104540 75850
L104570 75880
L104590 75940
L104580 76020
L104540 76080
L104510 76110
L104440 76140
L104210 76140
" />
<path d="M105010 76390
L104950 76420
L104840 76420
L104780 76390
L104760 76340
L104790 76110
L104820 76050
L104890 76020
L105000 76020
L105050 76050
L105080 76110
L105070 76170
L104770 76220
" />
<path d="M105290 76020
L105380 76420
L105570 76020
" />
<path d="M105750 76370
L105780 76390
L105750 76420
L105720 76390
L105750 76370
L105750 76420
" />
<path d="M105790 76050
L105820 76080
L105790 76110
L105760 76080
L105790 76050
L105790 76110
" />
<path d="M70940 76390
L71030 76420
L71170 76420
L71230 76390
L71260 76370
L71290 76310
L71290 76250
L71260 76190
L71230 76170
L71170 76140
L71060 76110
L71000 76080
L70970 76050
L70940 75990
L70940 75940
L70970 75880
L71000 75850
L71060 75820
L71200 75820
L71290 75850
" />
<path d="M71540 76420
L71540 76020
" />
<path d="M71540 75820
L71510 75850
L71540 75880
L71570 75850
L71540 75820
L71540 75880
" />
<path d="M71780 76020
L72090 76020
L71780 76420
L72090 76420
" />
<path d="M72550 76390
L72490 76420
L72380 76420
L72320 76390
L72290 76340
L72290 76110
L72320 76050
L72380 76020
L72490 76020
L72550 76050
L72580 76110
L72580 76170
L72290 76220
" />
<path d="M72830 76370
L72860 76390
L72830 76420
L72800 76390
L72830 76370
L72830 76420
" />
<path d="M72830 76050
L72860 76080
L72830 76110
L72800 76080
L72830 76050
L72830 76110
" />
<path d="M73550 76250
L73840 76250
" />
<path d="M73500 76420
L73700 75820
L73900 76420
" />
<path d="M74350 76020
L74350 76420
" />
<path d="M74210 75790
L74060 76220
L74440 76220
" />
<path d="M104170 77620
L104170 77020
" />
<path d="M104720 77620
L104720 77020
" />
<path d="M104720 77590
L104660 77620
L104550 77620
L104490 77590
L104460 77570
L104430 77510
L104430 77340
L104460 77280
L104490 77250
L104550 77220
L104660 77220
L104720 77250
" />
<path d="M105000 77570
L105030 77590
L105000 77620
L104970 77590
L105000 77570
L105000 77620
" />
<path d="M105000 77250
L105030 77280
L105000 77310
L104970 77280
L105000 77250
L105000 77310
" />
<path d="M106070 77620
L105720 77620
" />
<path d="M105900 77620
L105900 77020
L105840 77110
L105780 77170
L105720 77190
" />
<path d="M106750 76990
L106240 77770
" />
<path d="M107270 77620
L106920 77620
" />
<path d="M107100 77620
L107100 77020
L107040 77110
L106980 77170
L106920 77190
" />
<path d="M70970 74620
L71310 74620
" />
<path d="M71070 75220
L71140 74620
" />
<path d="M71440 75220
L71490 74820
" />
<path d="M71510 74620
L71480 74650
L71510 74680
L71540 74650
L71510 74620
L71510 74680
" />
<path d="M71700 74820
L71930 74820
" />
<path d="M71800 74620
L71740 75140
L71760 75190
L71820 75220
L71880 75220
" />
<path d="M72160 75220
L72100 75190
L72080 75140
L72140 74620
" />
<path d="M72610 75190
L72550 75220
L72440 75220
L72380 75190
L72360 75140
L72390 74910
L72420 74850
L72490 74820
L72600 74820
L72650 74850
L72680 74910
L72670 74970
L72370 75020
" />
<path d="M72890 75170
L72920 75190
L72890 75220
L72860 75190
L72890 75170
L72890 75220
" />
<path d="M72930 74850
L72960 74880
L72930 74910
L72900 74880
L72930 74850
L72930 74910
" />
<path d="M71170 72510
L70970 72510
" />
<path d="M70970 72820
L70970 72220
L71260 72220
" />
<path d="M71480 72820
L71480 72420
" />
<path d="M71480 72220
L71450 72250
L71480 72280
L71510 72250
L71480 72220
L71480 72280
" />
<path d="M71860 72820
L71800 72790
L71770 72740
L71770 72220
" />
<path d="M72310 72790
L72250 72820
L72140 72820
L72080 72790
L72050 72740
L72050 72510
L72080 72450
L72140 72420
L72250 72420
L72310 72450
L72340 72510
L72340 72570
L72050 72620
" />
<path d="M72590 72770
L72620 72790
L72590 72820
L72560 72790
L72590 72770
L72590 72820
" />
<path d="M72590 72450
L72620 72480
L72590 72510
L72560 72480
L72590 72450
L72590 72510
" />
<path d="M73600 72820
L73600 72510
L73570 72450
L73510 72420
L73400 72420
L73340 72450
" />
<path d="M73600 72790
L73540 72820
L73400 72820
L73340 72790
L73310 72740
L73310 72680
L73340 72620
L73400 72590
L73540 72590
L73600 72570
" />
<path d="M73880 72820
L73880 72420
" />
<path d="M73880 72480
L73910 72450
L73970 72420
L74050 72420
L74110 72450
L74140 72510
L74140 72820
" />
<path d="M74140 72510
L74170 72450
L74230 72420
L74310 72420
L74370 72450
L74400 72510
L74400 72820
" />
<path d="M74680 72820
L74680 72220
" />
<path d="M74680 72450
L74740 72420
L74850 72420
L74910 72450
L74940 72480
L74970 72540
L74970 72710
L74940 72770
L74910 72790
L74850 72820
L74740 72820
L74680 72790
" />
<path d="M75080 72880
L75540 72880
" />
<path d="M75680 72820
L75680 72220
" />
<path d="M75680 72450
L75740 72420
L75850 72420
L75910 72450
L75940 72480
L75970 72540
L75970 72710
L75940 72770
L75910 72790
L75850 72820
L75740 72820
L75680 72790
" />
<path d="M76310 72820
L76250 72790
L76220 72740
L76220 72220
" />
<path d="M76790 72820
L76790 72510
L76760 72450
L76700 72420
L76590 72420
L76530 72450
" />
<path d="M76790 72790
L76730 72820
L76590 72820
L76530 72790
L76500 72740
L76500 72680
L76530 72620
L76590 72590
L76730 72590
L76790 72570
" />
<path d="M77330 72790
L77270 72820
L77160 72820
L77100 72790
L77070 72770
L77040 72710
L77040 72540
L77070 72480
L77100 72450
L77160 72420
L77270 72420
L77330 72450
" />
<path d="M77580 72820
L77580 72220
" />
<path d="M77640 72590
L77810 72820
" />
<path d="M77810 72420
L77580 72650
" />
<path d="M78070 72820
L78070 72220
" />
<path d="M78070 72450
L78130 72420
L78240 72420
L78300 72450
L78330 72480
L78360 72540
L78360 72710
L78330 72770
L78300 72790
L78240 72820
L78130 72820
L78070 72790
" />
<path d="M78700 72820
L78640 72790
L78610 72770
L78580 72710
L78580 72540
L78610 72480
L78640 72450
L78700 72420
L78780 72420
L78840 72450
L78870 72480
L78900 72540
L78900 72710
L78870 72770
L78840 72790
L78780 72820
L78700 72820
" />
<path d="M79100 72820
L79410 72420
" />
<path d="M79100 72420
L79410 72820
" />
<path d="M79640 72770
L79670 72790
L79640 72820
L79610 72790
L79640 72770
L79640 72820
" />
<path d="M79900 72790
L79960 72820
L80080 72820
L80130 72790
L80160 72740
L80160 72710
L80130 72650
L80080 72620
L79990 72620
L79930 72590
L79900 72540
L79900 72510
L79930 72450
L79990 72420
L80080 72420
L80130 72450
" />
<path d="M80680 72790
L80620 72820
L80510 72820
L80450 72790
L80420 72770
L80390 72710
L80390 72540
L80420 72480
L80450 72450
L80510 72420
L80620 72420
L80680 72450
" />
<path d="M80930 72820
L80930 72220
" />
<path d="M81190 72820
L81190 72510
L81160 72450
L81100 72420
L81020 72420
L80960 72450
L80930 72480
" />
<path d="M70940 73990
L71030 74020
L71170 74020
L71230 73990
L71260 73970
L71290 73910
L71290 73850
L71260 73790
L71230 73770
L71170 73740
L71060 73710
L71000 73680
L70970 73650
L70940 73590
L70940 73540
L70970 73480
L71000 73450
L71060 73420
L71200 73420
L71290 73450
" />
<path d="M71540 74020
L71540 73420
" />
<path d="M71800 74020
L71800 73710
L71770 73650
L71710 73620
L71630 73620
L71570 73650
L71540 73680
" />
<path d="M72310 73990
L72250 74020
L72140 74020
L72080 73990
L72050 73940
L72050 73710
L72080 73650
L72140 73620
L72250 73620
L72310 73650
L72340 73710
L72340 73770
L72050 73820
" />
<path d="M72820 73990
L72760 74020
L72650 74020
L72590 73990
L72560 73940
L72560 73710
L72590 73650
L72650 73620
L72760 73620
L72820 73650
L72850 73710
L72850 73770
L72560 73820
" />
<path d="M73020 73620
L73250 73620
" />
<path d="M73100 73420
L73100 73940
L73130 73990
L73190 74020
L73250 74020
" />
<path d="M73440 73970
L73470 73990
L73440 74020
L73410 73990
L73440 73970
L73440 74020
" />
<path d="M73440 73650
L73470 73680
L73440 73710
L73410 73680
L73440 73650
L73440 73710
" />
<path d="M74620 73390
L74110 74170
" />
<path d="M70230 71980
L70230 77980
" />
<path d="M70230 71980
L112230 71980
" />
<path d="M70230 71980
L112230 71980
" />
<path d="M70230 74380
L112230 74380
" />
<path d="M103430 75580
L103430 77980
" />
<path d="M70230 76780
L112230 76780
" />
<path d="M70230 75580
L112230 75580
" />
<path d="M76830 75580
L76830 76780
" />
</g>
<g style="fill:#A00000; fill-opacity:0.0; 
stroke:#A00000; stroke-width:0; stroke-opacity:1; 
stroke-linecap:round; stroke-linejoin:round;">
</g>
<g style="fill:#A00000; fill-opacity:0.0; 
stroke:#A00000; stroke-width:60; stroke-opacity:1; 
stroke-linecap:round; stroke-linejoin:round;">
<rect x="66000" y="35000" width="2000" height="3000" rx="0" />
<circle cx="65650" cy="35500" r="350" /> 
<path d="M65300 35500
L63500 35500
" />
<path d="M64930 35340
L64580 35340
" />
<path d="M64760 35340
L64760 34740
L64700 34830
L64640 34890
L64580 34910
" />
<circle cx="65650" cy="37500" r="350" /> 
<path d="M65300 37500
L63500 37500
" />
<path d="M64580 36800
L64610 36770
L64670 36740
L64810 36740
L64870 36770
L64900 36800
L64930 36860
L64930 36910
L64900 37000
L64560 37340
L64930 37340
" />
</g>
<g style="fill:#00A0A0; fill-opacity:0.0; 
stroke:#00A0A0; stroke-width:60; stroke-opacity:1; 
stroke-linecap:round; stroke-linejoin:round;">
<path d="M66630 37720
L66230 37720
" />
<path d="M66630 37500
L66400 37670
" />
<path d="M66230 37500
L66460 37720
" />
<path d="M66630 37270
L66610 37310
L66590 37320
L66560 37340
L66440 37340
L66400 37320
L66380 37310
L66370 37270
L66370 37210
L66380 37170
L66400 37150
L66440 37130
L66560 37130
L66590 37150
L66610 37170
L66630 37210
L66630 37270
" />
<path d="M66370 36960
L66630 36960
" />
<path d="M66400 36960
L66380 36950
L66370 36910
L66370 36850
L66380 36810
L66420 36790
L66630 36790
" />
<path d="M66370 36660
L66370 36510
" />
<path d="M66230 36600
L66570 36600
L66610 36590
L66630 36550
L66630 36510
" />
<path d="M66630 36200
L66420 36200
L66380 36220
L66370 36260
L66370 36340
L66380 36370
" />
<path d="M66610 36200
L66630 36240
L66630 36340
L66610 36370
L66570 36390
L66540 36390
L66500 36370
L66480 36340
L66480 36240
L66460 36200
" />
<path d="M66630 36010
L66230 36010
" />
<path d="M66480 35980
L66630 35860
" />
<path d="M66370 35860
L66520 36010
" />
<path d="M66370 35750
L66370 35600
" />
<path d="M66230 35690
L66570 35690
L66610 35680
L66630 35640
L66630 35600
" />
<path d="M66630 35260
L66630 35480
" />
<path d="M66630 35370
L66230 35370
L66290 35410
L66330 35450
L66350 35480
" />
<path d="M67590 37350
L67610 37370
L67630 37420
L67630 37460
L67610 37520
L67570 37560
L67540 37570
L67460 37590
L67400 37590
L67330 37570
L67290 37560
L67250 37520
L67230 37460
L67230 37420
L67250 37370
L67270 37350
" />
<path d="M67230 37100
L67230 37020
L67250 36980
L67290 36950
L67370 36930
L67500 36930
L67570 36950
L67610 36980
L67630 37020
L67630 37100
L67610 37140
L67570 37170
L67500 37190
L67370 37190
L67290 37170
L67250 37140
L67230 37100
" />
<path d="M67630 36750
L67230 36750
L67630 36530
L67230 36530
" />
<path d="M67630 36330
L67230 36330
L67630 36110
L67230 36110
" />
<path d="M67670 36010
L67670 35710
" />
<path d="M67270 35630
L67250 35610
L67230 35580
L67230 35480
L67250 35440
L67270 35420
L67310 35410
L67350 35410
L67400 35420
L67630 35650
L67630 35410
" />
</g>
<g style="fill:#00A0A0; fill-opacity:0.0; 
stroke:#00A0A0; stroke-width:0; stroke-opacity:1; 
stroke-linecap:round; stroke-linejoin:round;">
</g>
<g style="fill:#A00000; fill-opacity:0.0; 
stroke:#A00000; stroke-width:60; stroke-opacity:1; 
stroke-linecap:round; stroke-linejoin:round;">
<rect x="19000" y="36000" width="2000" height="3000" rx="0" />
<circle cx="21350" cy="38500" r="350" /> 
<path d="M21700 38500
L23500 38500
" />
<path d="M22430 38340
L22080 38340
" />
<path d="M22260 38340
L22260 37740
L22200 37830
L22140 37890
L22080 37910
" />
<circle cx="21350" cy="36500" r="350" /> 
<path d="M21700 36500
L23500 36500
" />
<path d="M22080 35800
L22110 35770
L22170 35740
L22310 35740
L22370 35770
L22400 35800
L22430 35860
L22430 35910
L22400 36000
L22060 36340
L22430 36340
" />
</g>
<g style="fill:#00A0A0; fill-opacity:0.0; 
stroke:#00A0A0; stroke-width:60; stroke-opacity:1; 
stroke-linecap:round; stroke-linejoin:round;">
<path d="M20690 37790
L20290 37790
L20290 37640
L20310 37600
L20330 37590
L20370 37570
L20430 37570
L20460 37590
L20480 37600
L20500 37640
L20500 37790
" />
<path d="M20690 37190
L20690 37410
" />
<path d="M20690 37300
L20290 37300
L20350 37340
L20390 37380
L20410 37410
" />
<path d="M19650 38350
L19670 38370
L19690 38420
L19690 38460
L19670 38520
L19630 38560
L19600 38570
L19520 38590
L19460 38590
L19390 38570
L19350 38560
L19310 38520
L19290 38460
L19290 38420
L19310 38370
L19330 38350
" />
<path d="M19290 38100
L19290 38020
L19310 37980
L19350 37950
L19430 37930
L19560 37930
L19630 37950
L19670 37980
L19690 38020
L19690 38100
L19670 38140
L19630 38170
L19560 38190
L19430 38190
L19350 38170
L19310 38140
L19290 38100
" />
<path d="M19690 37750
L19290 37750
L19690 37530
L19290 37530
" />
<path d="M19690 37330
L19290 37330
L19690 37110
L19290 37110
" />
<path d="M19730 37010
L19730 36710
" />
<path d="M19330 36630
L19310 36610
L19290 36580
L19290 36480
L19310 36440
L19330 36420
L19370 36410
L19410 36410
L19460 36420
L19690 36650
L19690 36410
" />
</g>
<g style="fill:#00A0A0; fill-opacity:0.0; 
stroke:#00A0A0; stroke-width:0; stroke-opacity:1; 
stroke-linecap:round; stroke-linejoin:round;">
</g>
<g style="fill:#A00000; fill-opacity:0.0; 
stroke:#A00000; stroke-width:60; stroke-opacity:1; 
stroke-linecap:round; stroke-linejoin:round;">
<polyline fill="none;"
points="25000,41000
25500,41500
26000,41000
25000,41000
" /> 
</g>
<g style="fill:#00A000; fill-opacity:0.0; 
stroke:#00A000; stroke-width:60; stroke-opacity:1; 
stroke-linecap:round; stroke-linejoin:round;">
<path d="M23500 38500
L27500 38500
" />
<path d="M25500 38500
L25500 41000
" />
<path d="M23500 36500
L30000 36500
" />
</g>
<g style="fill:#00A000; fill-opacity:0.0; 
stroke:#00A000; stroke-width:0; stroke-opacity:1; 
stroke-linecap:round; stroke-linejoin:round;">
</g>
<g style="fill:#A00000; fill-opacity:0.0; 
stroke:#A00000; stroke-width:120; stroke-opacity:1; 
stroke-linecap:round; stroke-linejoin:round;">
<rect x="29600" y="39000" width="800" height="3000" rx="0" />
</g>
<g style="fill:#A00000; fill-opacity:0.0; 
stroke:#A00000; stroke-width:60; stroke-opacity:1; 
stroke-linecap:round; stroke-linejoin:round;">
<path d="M30000 39000
L30000 38000
" />
</g>
<g style="fill:#00A0A0; fill-opacity:0.0; 
stroke:#00A0A0; stroke-width:60; stroke-opacity:1; 
stroke-linecap:round; stroke-linejoin:round;">
</g>
<g style="fill:#A00000; fill-opacity:0.0; 
stroke:#A00000; stroke-width:60; stroke-opacity:1; 
stroke-linecap:round; stroke-linejoin:round;">
<path d="M30000 42000
L30000 43000
" />
</g>
<g style="fill:#00A0A0; fill-opacity:0.0; 
stroke:#00A0A0; stroke-width:60; stroke-opacity:1; 
stroke-linecap:round; stroke-linejoin:round;">
<path d="M30930 40570
L30740 40700
" />
<path d="M30930 40790
L30530 40790
L30530 40640
L30550 40600
L30570 40590
L30610 40570
L30670 40570
L30700 40590
L30720 40600
L30740 40640
L30740 40790
" />
<path d="M30930 40190
L30930 40410
" />
<path d="M30930 40300
L30530 40300
L30590 40340
L30630 40380
L30650 40410
" />
<path d="M30200 40920
L30200 41140
" />
<path d="M30200 41030
L29800 41030
L29860 41070
L29900 41110
L29920 41140
" />
<path d="M29800 40670
L29800 40630
L29820 40590
L29840 40570
L29880 40550
L29950 40540
L30050 40540
L30130 40550
L30160 40570
L30180 40590
L30200 40630
L30200 40670
L30180 40710
L30160 40730
L30130 40740
L30050 40760
L29950 40760
L29880 40740
L29840 40730
L29820 40710
L29800 40670
" />
<path d="M29800 40290
L29800 40250
L29820 40210
L29840 40190
L29880 40170
L29950 40160
L30050 40160
L30130 40170
L30160 40190
L30180 40210
L30200 40250
L30200 40290
L30180 40330
L30160 40350
L30130 40360
L30050 40380
L29950 40380
L29880 40360
L29840 40350
L29820 40330
L29800 40290
" />
<path d="M30200 39980
L29800 39980
" />
<path d="M30050 39950
L30200 39830
" />
<path d="M29940 39830
L30090 39980
" />
</g>
<g style="fill:#00A000; fill-opacity:0.0; 
stroke:#00A000; stroke-width:60; stroke-opacity:1; 
stroke-linecap:round; stroke-linejoin:round;">
<path d="M30000 35000
L30000 38000
" />
</g>
<g style="fill:#00A000; fill-opacity:0.0; 
stroke:#00A000; stroke-width:0; stroke-opacity:1; 
stroke-linecap:round; stroke-linejoin:round;">
</g>
<g style="fill:#A00000; fill-opacity:0.0; 
stroke:#A00000; stroke-width:200; stroke-opacity:1; 
stroke-linecap:round; stroke-linejoin:round;">
<polyline fill="none;"
points="29200,33300
30800,33300
" /> 
<polyline fill="none;"
points="29200,32700
30800,32700
" /> 
</g>
<g style="fill:#A00000; fill-opacity:0.0; 
stroke:#A00000; stroke-width:60; stroke-opacity:1; 
stroke-linecap:round; stroke-linejoin:round;">
<path d="M30000 32700
L30000 31000
" />
</g>
<g style="fill:#00A0A0; fill-opacity:0.0; 
stroke:#00A0A0; stroke-width:60; stroke-opacity:1; 
stroke-linecap:round; stroke-linejoin:round;">
</g>
<g style="fill:#A00000; fill-opacity:0.0; 
stroke:#A00000; stroke-width:60; stroke-opacity:1; 
stroke-linecap:round; stroke-linejoin:round;">
<path d="M30000 33300
L30000 35000
" />
</g>
<g style="fill:#00A0A0; fill-opacity:0.0; 
stroke:#00A0A0; stroke-width:60; stroke-opacity:1; 
stroke-linecap:round; stroke-linejoin:round;">
<path d="M30320 32090
L30300 32110
L30250 32130
L30210 32130
L30150 32110
L30110 32070
L30100 32040
L30080 31960
L30080 31900
L30100 31830
L30110 31790
L30150 31750
L30210 31730
L30250 31730
L30300 31750
L30320 31770
" />
<path d="M30700 32130
L30480 32130
" />
<path d="M30590 32130
L30590 31730
L30550 31790
L30510 31830
L30480 31850
" />
<path d="M30360 33980
L30140 33980
" />
<path d="M30250 33980
L30250 33580
L30210 33640
L30170 33680
L30140 33700
" />
<path d="M30610 33580
L30650 33580
L30690 33600
L30710 33620
L30730 33660
L30740 33730
L30740 33830
L30730 33910
L30710 33940
L30690 33960
L30650 33980
L30610 33980
L30570 33960
L30550 33940
L30540 33910
L30520 33830
L30520 33730
L30540 33660
L30550 33620
L30570 33600
L30610 33580
" />
<path d="M30920 33720
L30920 33980
" />
<path d="M30920 33750
L30930 33730
L30970 33720
L31030 33720
L31070 33730
L31090 33770
L31090 33980
" />
<path d="M31410 33770
L31280 33770
" />
<path d="M31280 33980
L31280 33580
L31470 33580
" />
</g>
<g style="fill:#00A0A0; fill-opacity:0.0; 
stroke:#00A0A0; stroke-width:0; stroke-opacity:1; 
stroke-linecap:round; stroke-linejoin:round;">
</g>
<g style="fill:#A00000; fill-opacity:0.0; 
stroke:#A00000; stroke-width:60; stroke-opacity:1; 
stroke-linecap:round; stroke-linejoin:round;">
<path d="M41500 38000 A500 500 0.0 0 0 41001.7 37500 " />
<path d="M41000.9 38500 A500 500 0.0 0 0 41500 38000.9 " />
<path d="M41500 37000 A500 500 0.0 0 0 41001.7 36500 " />
<path d="M41000.9 37500 A500 500 0.0 0 0 41500 37000.9 " />
<path d="M41500 36000 A500 500 0.0 0 0 41001.7 35500 " />
<path d="M41000.9 36500 A500 500 0.0 0 0 41500 36000.9 " />
<path d="M41500 35000 A500 500 0.0 0 0 41001.7 34500 " />
<path d="M41000.9 35500 A500 500 0.0 0 0 41500 35000.9 " />
<path d="M43001.7 36500 A500 500 0.0 0 0 42500 37000.9 " />
<path d="M42500 36998.3 A500 500 0.0 0 0 43000.9 37500 " />
<path d="M43001.7 35500 A500 500 0.0 0 0 42500 36000.9 " />
<path d="M42500 35998.3 A500 500 0.0 0 0 43000.9 36500 " />
<path d="M43001.7 34500 A500 500 0.0 0 0 42500 35000.9 " />
<path d="M42500 34998.3 A500 500 0.0 0 0 43000.9 35500 " />
<path d="M43002.1 37500.1 A500 500 0.0 0 0 42510 38000.9 " />
<path d="M42510 38000.9 A500 500 0.0 0 0 42999.5 38499.9 " />
<polyline fill="none;"
points="41750,34500
41750,38500
" /> 
<polyline fill="none;"
points="42250,38500
42250,34500
" /> 
<polyline fill="none;"
points="40500,34000
41000,33500
43000,33500
43500,34000
43500,39000
43000,39500
41000,39500
40500,39000
40500,34000
" /> 
<path d="M42000 39500
L42000 40500
" />
<path d="M41240 40020
L41240 39970
L41270 39910
L41300 39880
L41360 39850
L41470 39820
L41610 39820
L41730 39850
L41790 39880
L41810 39910
L41840 39970
L41840 40020
L41810 40080
L41790 40110
L41730 40140
L41610 40170
L41470 40170
L41360 40140
L41300 40110
L41270 40080
L41240 40020
" />
<path d="M41000 34500
L38000 34500
" />
<path d="M39680 34340
L39330 34340
" />
<path d="M39510 34340
L39510 33740
L39450 33830
L39390 33890
L39330 33910
" />
<path d="M41000 38500
L38000 38500
" />
<path d="M39330 37800
L39360 37770
L39420 37740
L39560 37740
L39620 37770
L39650 37800
L39680 37860
L39680 37910
L39650 38000
L39310 38340
L39680 38340
" />
<path d="M43000 38500
L46000 38500
" />
<path d="M44310 37740
L44680 37740
L44480 37970
L44560 37970
L44620 38000
L44650 38030
L44680 38090
L44680 38230
L44650 38290
L44620 38310
L44560 38340
L44390 38340
L44330 38310
L44310 38290
" />
<path d="M43000 34500
L46000 34500
" />
<path d="M44620 33940
L44620 34340
" />
<path d="M44480 33710
L44330 34140
L44710 34140
" />
</g>
<g style="fill:#00A0A0; fill-opacity:0.0; 
stroke:#00A0A0; stroke-width:60; stroke-opacity:1; 
stroke-linecap:round; stroke-linejoin:round;">
<path d="M39400 31790
L39170 31790
" />
<path d="M39170 32150
L39170 31450
L39500 31450
" />
<path d="M39670 31450
L40070 31450
" />
<path d="M39870 32150
L39870 31450
" />
<path d="M40300 31890
L40830 31890
" />
<path d="M41500 31450
L41170 31450
L41130 31790
L41170 31750
L41230 31720
L41400 31720
L41470 31750
L41500 31790
L41530 31850
L41530 32020
L41500 32090
L41470 32120
L41400 32150
L41230 32150
L41170 32120
L41130 32090
" />
<path d="M41970 31450
L42040 31450
L42100 31490
L42140 31520
L42170 31590
L42200 31720
L42200 31890
L42170 32020
L42140 32090
L42100 32120
L42040 32150
L41970 32150
L41900 32120
L41870 32090
L41840 32020
L41800 31890
L41800 31720
L41840 31590
L41870 31520
L41900 31490
L41970 31450
" />
<path d="M42470 31950
L42810 31950
" />
<path d="M42410 32150
L42640 31450
L42870 32150
" />
<path d="M43110 31890
L43640 31890
" />
<path d="M44180 31450
L44180 31950
L44140 32050
L44080 32120
L43980 32150
L43910 32150
" />
<path d="M44870 32150
L44470 32150
" />
<path d="M44670 32150
L44670 31450
L44610 31550
L44540 31620
L44470 31650
" />
<path d="M41770 32350
L41440 32350
L41400 32690
L41440 32650
L41500 32620
L41670 32620
L41740 32650
L41770 32690
L41800 32750
L41800 32920
L41770 32990
L41740 33020
L41670 33050
L41500 33050
L41440 33020
L41400 32990
" />
<path d="M42110 32990
L42140 33020
L42110 33050
L42070 33020
L42110 32990
L42110 33050
" />
<path d="M42110 32620
L42140 32650
L42110 32690
L42070 32650
L42110 32620
L42110 32690
" />
<path d="M42470 33050
L42600 33050
L42670 33020
L42700 32990
L42770 32890
L42800 32750
L42800 32490
L42770 32420
L42740 32390
L42670 32350
L42540 32350
L42470 32390
L42440 32420
L42400 32490
L42400 32650
L42440 32720
L42470 32750
L42540 32790
L42670 32790
L42740 32750
L42770 32720
L42800 32650
" />
</g>
<g style="fill:#000000; fill-opacity:0.0; 
stroke:#000000; stroke-width:60; stroke-opacity:1; 
stroke-linecap:round; stroke-linejoin:round;">
<path d="M45170 36340
L45290 36340
L45340 36310
L45370 36290
L45430 36200
L45460 36090
L45460 35860
L45430 35800
L45400 35770
L45340 35740
L45230 35740
L45170 35770
L45140 35800
L45110 35860
L45110 36000
L45140 36060
L45170 36090
L45230 36110
L45340 36110
L45400 36090
L45430 36060
L45460 36000
" />
<path d="M46090 35740
L46290 36340
L46490 35740
" />
<path d="M46940 36340
L46940 36030
L46910 35970
L46850 35940
L46740 35940
L46680 35970
" />
<path d="M46940 36310
L46880 36340
L46740 36340
L46680 36310
L46650 36260
L46650 36200
L46680 36140
L46740 36110
L46880 36110
L46940 36090
" />
<path d="M47220 36340
L47220 35940
" />
<path d="M47220 36060
L47250 36000
L47280 35970
L47340 35940
L47390 35940
" />
<path d="M47540 35940
L47680 36340
L47820 35940
" />
<path d="M48510 35940
L48510 36540
" />
<path d="M48510 35970
L48570 35940
L48680 35940
L48740 35970
L48770 36000
L48800 36060
L48800 36230
L48770 36290
L48740 36310
L48680 36340
L48570 36340
L48510 36310
" />
<path d="M49310 36340
L49310 36030
L49280 35970
L49220 35940
L49110 35940
L49050 35970
" />
<path d="M49310 36310
L49250 36340
L49110 36340
L49050 36310
L49020 36260
L49020 36200
L49050 36140
L49110 36110
L49250 36110
L49310 36090
" />
<path d="M49170 35800
L49110 35770
L49080 35710
L49110 35660
L49170 35630
L49220 35660
L49250 35710
L49220 35770
L49170 35800
" />
<path d="M50310 36340
L50310 36030
L50280 35970
L50220 35940
L50110 35940
L50050 35970
" />
<path d="M50310 36310
L50250 36340
L50110 36340
L50050 36310
L50020 36260
L50020 36200
L50050 36140
L50110 36110
L50250 36110
L50310 36090
" />
<path d="M50590 35940
L50590 36340
" />
<path d="M50590 36000
L50620 35970
L50680 35940
L50760 35940
L50820 35970
L50850 36030
L50850 36340
" />
<path d="M51050 35940
L51280 35940
" />
<path d="M51130 35740
L51130 36260
L51160 36310
L51220 36340
L51280 36340
" />
<path d="M51700 36310
L51640 36340
L51530 36340
L51470 36310
L51440 36260
L51440 36030
L51470 35970
L51530 35940
L51640 35940
L51700 35970
L51730 36030
L51730 36090
L51440 36140
" />
<path d="M51980 35940
L51980 36340
" />
<path d="M51980 36000
L52010 35970
L52070 35940
L52150 35940
L52210 35970
L52240 36030
L52240 36340
" />
<path d="M52520 35940
L52520 36340
" />
<path d="M52520 36000
L52550 35970
L52610 35940
L52690 35940
L52750 35970
L52780 36030
L52780 36340
" />
<path d="M53030 36310
L53090 36340
L53210 36340
L53260 36310
L53290 36260
L53290 36230
L53260 36170
L53210 36140
L53120 36140
L53060 36110
L53030 36060
L53030 36030
L53060 35970
L53120 35940
L53210 35940
L53260 35970
" />
<path d="M53550 36340
L53550 35940
" />
<path d="M53550 35740
L53520 35770
L53550 35800
L53580 35770
L53550 35740
L53550 35800
" />
<path d="M54100 36340
L54100 35740
" />
<path d="M54100 36310
L54040 36340
L53930 36340
L53870 36310
L53840 36290
L53810 36230
L53810 36060
L53840 36000
L53870 35970
L53930 35940
L54040 35940
L54100 35970
" />
<path d="M54640 36340
L54640 36030
L54610 35970
L54550 35940
L54440 35940
L54380 35970
" />
<path d="M54640 36310
L54580 36340
L54440 36340
L54380 36310
L54350 36260
L54350 36200
L54380 36140
L54440 36110
L54580 36110
L54640 36090
" />
<path d="M54920 35940
L54920 36340
" />
<path d="M54920 36000
L54950 35970
L55010 35940
L55090 35940
L55150 35970
L55180 36030
L55180 36340
" />
<path d="M37430 35740
L37140 35740
L37110 36030
L37140 36000
L37200 35970
L37340 35970
L37400 36000
L37430 36030
L37460 36090
L37460 36230
L37430 36290
L37400 36310
L37340 36340
L37200 36340
L37140 36310
L37110 36290
" />
<path d="M38090 35740
L38290 36340
L38490 35740
" />
<path d="M38940 36340
L38940 36030
L38910 35970
L38850 35940
L38740 35940
L38680 35970
" />
<path d="M38940 36310
L38880 36340
L38740 36340
L38680 36310
L38650 36260
L38650 36200
L38680 36140
L38740 36110
L38880 36110
L38940 36090
" />
<path d="M39220 36340
L39220 35940
" />
<path d="M39220 36060
L39250 36000
L39280 35970
L39340 35940
L39390 35940
" />
<path d="M39540 35940
L39680 36340
L39820 35940
" />
</g>
<g style="fill:#000000; fill-opacity:0.0; 
stroke:#000000; stroke-width:0; stroke-opacity:1; 
stroke-linecap:round; stroke-linejoin:round;">
</g>
<g style="fill:#00A000; fill-opacity:1.0; 
stroke:#00A000; stroke-width:100; stroke-opacity:1; 
stroke-linecap:round; stroke-linejoin:round;">
<circle cx="30000" cy="36500" r="160" /> 
</g>
<g style="fill:#00A000; fill-opacity:1.0; 
stroke:#00A000; stroke-width:60; stroke-opacity:1; 
stroke-linecap:round; stroke-linejoin:round;">
<path d="M30000 31000
L38000 31000
" />
<path d="M38000 31000
L38000 34500
" />
<path d="M38000 43000
L38000 38500
" />
<path d="M27500 43000
L38000 43000
" />
<path d="M27500 38500
L27500 43000
" />
</g>
<g style="fill:#00A000; fill-opacity:1.0; 
stroke:#00A000; stroke-width:0; stroke-opacity:1; 
stroke-linecap:round; stroke-linejoin:round;">
</g>
<g style="fill:#00A000; fill-opacity:1.0; 
stroke:#00A000; stroke-width:100; stroke-opacity:1; 
stroke-linecap:round; stroke-linejoin:round;">
<circle cx="25500" cy="38500" r="160" /> 
</g>
<g style="fill:#00A000; fill-opacity:1.0; 
stroke:#00A000; stroke-width:0; stroke-opacity:1; 
stroke-linecap:round; stroke-linejoin:round;">
</g>
<g style="fill:#00A000; fill-opacity:1.0; 
stroke:#00A000; stroke-width:100; stroke-opacity:1; 
stroke-linecap:round; stroke-linejoin:round;">
<circle cx="30000" cy="43000" r="160" /> 
</g>
<g style="fill:#00A000; fill-opacity:1.0; 
stroke:#00A000; stroke-width:0; stroke-opacity:1; 
stroke-linecap:round; stroke-linejoin:round;">
</g>
<g style="fill:#A00000; fill-opacity:0.0; 
stroke:#A00000; stroke-width:200; stroke-opacity:1; 
stroke-linecap:round; stroke-linejoin:round;">
<polyline fill="none;"
points="52300,34800
52300,33200
" /> 
<polyline fill="none;"
points="51700,34800
51700,33200
" /> 
</g>
<g style="fill:#A00000; fill-opacity:0.0; 
stroke:#A00000; stroke-width:60; stroke-opacity:1; 
stroke-linecap:round; stroke-linejoin:round;">
<path d="M51700 34000
L50000 34000
" />
</g>
<g style="fill:#00A0A0; fill-opacity:0.0; 
stroke:#00A0A0; stroke-width:60; stroke-opacity:1; 
stroke-linecap:round; stroke-linejoin:round;">
</g>
<g style="fill:#A00000; fill-opacity:0.0; 
stroke:#A00000; stroke-width:60; stroke-opacity:1; 
stroke-linecap:round; stroke-linejoin:round;">
<path d="M52300 34000
L54000 34000
" />
</g>
<g style="fill:#00A0A0; fill-opacity:0.0; 
stroke:#00A0A0; stroke-width:60; stroke-opacity:1; 
stroke-linecap:round; stroke-linejoin:round;">
<path d="M51090 33680
L51110 33700
L51130 33750
L51130 33790
L51110 33850
L51070 33890
L51040 33900
L50960 33920
L50900 33920
L50830 33900
L50790 33890
L50750 33850
L50730 33790
L50730 33750
L50750 33700
L50770 33680
" />
<path d="M50770 33520
L50750 33500
L50730 33470
L50730 33370
L50750 33330
L50770 33310
L50810 33300
L50850 33300
L50900 33310
L51130 33540
L51130 33300
" />
<path d="M52980 33640
L52980 33860
" />
<path d="M52980 33750
L52580 33750
L52640 33790
L52680 33830
L52700 33860
" />
<path d="M52720 33460
L52980 33460
" />
<path d="M52750 33460
L52730 33450
L52720 33410
L52720 33350
L52730 33310
L52770 33290
L52980 33290
" />
<path d="M52770 32970
L52770 33100
" />
<path d="M52980 33100
L52580 33100
L52580 32910
" />
</g>
<g style="fill:#00A0A0; fill-opacity:0.0; 
stroke:#00A0A0; stroke-width:0; stroke-opacity:1; 
stroke-linecap:round; stroke-linejoin:round;">
</g>
<g style="fill:#A00000; fill-opacity:0.0; 
stroke:#A00000; stroke-width:200; stroke-opacity:1; 
stroke-linecap:round; stroke-linejoin:round;">
<polyline fill="none;"
points="52300,39800
52300,38200
" /> 
<polyline fill="none;"
points="51700,39800
51700,38200
" /> 
</g>
<g style="fill:#A00000; fill-opacity:0.0; 
stroke:#A00000; stroke-width:60; stroke-opacity:1; 
stroke-linecap:round; stroke-linejoin:round;">
<path d="M51700 39000
L50000 39000
" />
</g>
<g style="fill:#00A0A0; fill-opacity:0.0; 
stroke:#00A0A0; stroke-width:60; stroke-opacity:1; 
stroke-linecap:round; stroke-linejoin:round;">
</g>
<g style="fill:#A00000; fill-opacity:0.0; 
stroke:#A00000; stroke-width:60; stroke-opacity:1; 
stroke-linecap:round; stroke-linejoin:round;">
<path d="M52300 39000
L54000 39000
" />
</g>
<g style="fill:#00A0A0; fill-opacity:0.0; 
stroke:#00A0A0; stroke-width:60; stroke-opacity:1; 
stroke-linecap:round; stroke-linejoin:round;">
<path d="M51090 38680
L51110 38700
L51130 38750
L51130 38790
L51110 38850
L51070 38890
L51040 38900
L50960 38920
L50900 38920
L50830 38900
L50790 38890
L50750 38850
L50730 38790
L50730 38750
L50750 38700
L50770 38680
" />
<path d="M50730 38540
L50730 38300
L50880 38430
L50880 38370
L50900 38330
L50920 38310
L50960 38300
L51060 38300
L51090 38310
L51110 38330
L51130 38370
L51130 38490
L51110 38520
L51090 38540
" />
<path d="M52980 38640
L52980 38860
" />
<path d="M52980 38750
L52580 38750
L52640 38790
L52680 38830
L52700 38860
" />
<path d="M52720 38460
L52980 38460
" />
<path d="M52750 38460
L52730 38450
L52720 38410
L52720 38350
L52730 38310
L52770 38290
L52980 38290
" />
<path d="M52770 37970
L52770 38100
" />
<path d="M52980 38100
L52580 38100
L52580 37910
" />
</g>
<g style="fill:#00A0A0; fill-opacity:0.0; 
stroke:#00A0A0; stroke-width:0; stroke-opacity:1; 
stroke-linecap:round; stroke-linejoin:round;">
</g>
<g style="fill:#A00000; fill-opacity:0.0; 
stroke:#A00000; stroke-width:120; stroke-opacity:1; 
stroke-linecap:round; stroke-linejoin:round;">
<rect x="58600" y="35000" width="800" height="3000" rx="0" />
</g>
<g style="fill:#A00000; fill-opacity:0.0; 
stroke:#A00000; stroke-width:60; stroke-opacity:1; 
stroke-linecap:round; stroke-linejoin:round;">
<path d="M59000 35000
L59000 34000
" />
</g>
<g style="fill:#00A0A0; fill-opacity:0.0; 
stroke:#00A0A0; stroke-width:60; stroke-opacity:1; 
stroke-linecap:round; stroke-linejoin:round;">
</g>
<g style="fill:#A00000; fill-opacity:0.0; 
stroke:#A00000; stroke-width:60; stroke-opacity:1; 
stroke-linecap:round; stroke-linejoin:round;">
<path d="M59000 38000
L59000 39000
" />
</g>
<g style="fill:#00A0A0; fill-opacity:0.0; 
stroke:#00A0A0; stroke-width:60; stroke-opacity:1; 
stroke-linecap:round; stroke-linejoin:round;">
<path d="M59930 36570
L59740 36700
" />
<path d="M59930 36790
L59530 36790
L59530 36640
L59550 36600
L59570 36590
L59610 36570
L59670 36570
L59700 36590
L59720 36600
L59740 36640
L59740 36790
" />
<path d="M59570 36410
L59550 36390
L59530 36360
L59530 36260
L59550 36220
L59570 36200
L59610 36190
L59650 36190
L59700 36200
L59930 36430
L59930 36190
" />
<path d="M59200 36920
L59200 37140
" />
<path d="M59200 37030
L58800 37030
L58860 37070
L58900 37110
L58920 37140
" />
<path d="M58800 36670
L58800 36630
L58820 36590
L58840 36570
L58880 36550
L58950 36540
L59050 36540
L59130 36550
L59160 36570
L59180 36590
L59200 36630
L59200 36670
L59180 36710
L59160 36730
L59130 36740
L59050 36760
L58950 36760
L58880 36740
L58840 36730
L58820 36710
L58800 36670
" />
<path d="M58800 36290
L58800 36250
L58820 36210
L58840 36190
L58880 36170
L58950 36160
L59050 36160
L59130 36170
L59160 36190
L59180 36210
L59200 36250
L59200 36290
L59180 36330
L59160 36350
L59130 36360
L59050 36380
L58950 36380
L58880 36360
L58840 36350
L58820 36330
L58800 36290
" />
<path d="M59200 35980
L58800 35980
" />
<path d="M59050 35950
L59200 35830
" />
<path d="M58940 35830
L59090 35980
" />
</g>
<g style="fill:#00A000; fill-opacity:0.0; 
stroke:#00A000; stroke-width:60; stroke-opacity:1; 
stroke-linecap:round; stroke-linejoin:round;">
<path d="M63500 34000
L63500 35500
" />
<path d="M54000 34000
L63500 34000
" />
<path d="M54000 39000
L63500 39000
" />
<path d="M63500 39000
L63500 37500
" />
</g>
<g style="fill:#00A000; fill-opacity:0.0; 
stroke:#00A000; stroke-width:0; stroke-opacity:1; 
stroke-linecap:round; stroke-linejoin:round;">
</g>
<g style="fill:#00A000; fill-opacity:1.0; 
stroke:#00A000; stroke-width:100; stroke-opacity:1; 
stroke-linecap:round; stroke-linejoin:round;">
<circle cx="59000" cy="34000" r="160" /> 
</g>
<g style="fill:#00A000; fill-opacity:1.0; 
stroke:#00A000; stroke-width:0; stroke-opacity:1; 
stroke-linecap:round; stroke-linejoin:round;">
</g>
<g style="fill:#00A000; fill-opacity:1.0; 
stroke:#00A000; stroke-width:100; stroke-opacity:1; 
stroke-linecap:round; stroke-linejoin:round;">
<circle cx="59000" cy="39000" r="160" /> 
</g>
<g style="fill:#00A000; fill-opacity:1.0; 
stroke:#00A000; stroke-width:60; stroke-opacity:1; 
stroke-linecap:round; stroke-linejoin:round;">
<path d="M50000 39000
L46000 39000
" />
<path d="M46000 39000
L46000 38500
" />
<path d="M50000 34000
L46000 34000
" />
<path d="M46000 34000
L46000 34500
" />
</g>
<g style="fill:#00A000; fill-opacity:1.0; 
stroke:#00A000; stroke-width:0; stroke-opacity:1; 
stroke-linecap:round; stroke-linejoin:round;">
</g>
<g style="fill:#A00000; fill-opacity:0.0; 
stroke:#A00000; stroke-width:120; stroke-opacity:1; 
stroke-linecap:round; stroke-linejoin:round;">
<rect x="88100" y="35000" width="800" height="3000" rx="0" />
</g>
<g style="fill:#A00000; fill-opacity:0.0; 
stroke:#A00000; stroke-width:60; stroke-opacity:1; 
stroke-linecap:round; stroke-linejoin:round;">
<path d="M88500 35000
L88500 34000
" />
</g>
<g style="fill:#00A0A0; fill-opacity:0.0; 
stroke:#00A0A0; stroke-width:60; stroke-opacity:1; 
stroke-linecap:round; stroke-linejoin:round;">
</g>
<g style="fill:#A00000; fill-opacity:0.0; 
stroke:#A00000; stroke-width:60; stroke-opacity:1; 
stroke-linecap:round; stroke-linejoin:round;">
<path d="M88500 38000
L88500 39000
" />
</g>
<g style="fill:#00A0A0; fill-opacity:0.0; 
stroke:#00A0A0; stroke-width:60; stroke-opacity:1; 
stroke-linecap:round; stroke-linejoin:round;">
<path d="M89430 36570
L89240 36700
" />
<path d="M89430 36790
L89030 36790
L89030 36640
L89050 36600
L89070 36590
L89110 36570
L89170 36570
L89200 36590
L89220 36600
L89240 36640
L89240 36790
" />
<path d="M89030 36430
L89030 36190
L89180 36320
L89180 36260
L89200 36220
L89220 36200
L89260 36190
L89360 36190
L89390 36200
L89410 36220
L89430 36260
L89430 36380
L89410 36410
L89390 36430
" />
<path d="M88440 36790
L88700 36790
" />
<path d="M88280 36890
L88570 36980
L88570 36740
" />
<path d="M88300 36620
L88300 36360
L88700 36530
" />
<path d="M88300 36130
L88300 36090
L88320 36050
L88340 36030
L88380 36010
L88450 36000
L88550 36000
L88630 36010
L88660 36030
L88680 36050
L88700 36090
L88700 36130
L88680 36170
L88660 36190
L88630 36200
L88550 36220
L88450 36220
L88380 36200
L88340 36190
L88320 36170
L88300 36130
" />
</g>
<g style="fill:#00A000; fill-opacity:0.0; 
stroke:#00A000; stroke-width:60; stroke-opacity:1; 
stroke-linecap:round; stroke-linejoin:round;">
<path d="M88500 34000
L69500 34000
" />
<path d="M69500 34000
L69500 35500
" />
<path d="M69500 35500
L68000 35500
" />
<path d="M88500 39000
L69500 39000
" />
<path d="M69500 39000
L69500 37500
" />
<path d="M69500 37500
L68000 37500
" />
</g>
<g style="fill:#0000FF; fill-opacity:0.0; 
stroke:#0000FF; stroke-width:60; stroke-opacity:1; 
stroke-linecap:round; stroke-linejoin:round;">
<path d="M77140 33340
L77140 32740
L77340 33170
L77540 32740
L77540 33340
" />
<path d="M78090 33340
L78090 33030
L78060 32970
L78000 32940
L77890 32940
L77830 32970
" />
<path d="M78090 33310
L78030 33340
L77890 33340
L77830 33310
L77800 33260
L77800 33200
L77830 33140
L77890 33110
L78030 33110
L78090 33090
" />
<path d="M78320 33340
L78630 32940
" />
<path d="M78320 32940
L78630 33340
" />
<path d="M79640 33340
L79290 33340
" />
<path d="M79470 33340
L79470 32740
L79410 32830
L79350 32890
L79290 32910
" />
<path d="M80010 32740
L80060 32740
L80120 32770
L80150 32800
L80180 32860
L80210 32970
L80210 33110
L80180 33230
L80150 33290
L80120 33310
L80060 33340
L80010 33340
L79950 33310
L79920 33290
L79890 33230
L79860 33110
L79860 32970
L79890 32860
L79920 32800
L79950 32770
L80010 32740
" />
<path d="M80460 33340
L80460 32940
" />
<path d="M80460 33000
L80490 32970
L80550 32940
L80630 32940
L80690 32970
L80720 33030
L80720 33340
" />
<path d="M80720 33030
L80750 32970
L80810 32940
L80890 32940
L80950 32970
L80980 33030
L80980 33340
" />
<path d="M71000 46000
L71000 26000
" />
<path d="M87000 46000
L87000 26000
" />
<path d="M76140 39840
L76140 39240
" />
<path d="M76490 39840
L76230 39500
" />
<path d="M76490 39240
L76140 39590
" />
<path d="M77000 39840
L77000 39530
L76970 39470
L76910 39440
L76800 39440
L76740 39470
" />
<path d="M77000 39810
L76940 39840
L76800 39840
L76740 39810
L76710 39760
L76710 39700
L76740 39640
L76800 39610
L76940 39610
L77000 39590
" />
<path d="M77280 39840
L77280 39240
" />
<path d="M77280 39470
L77340 39440
L77450 39440
L77510 39470
L77540 39500
L77570 39560
L77570 39730
L77540 39790
L77510 39810
L77450 39840
L77340 39840
L77280 39810
" />
<path d="M78050 39810
L77990 39840
L77880 39840
L77820 39810
L77790 39760
L77790 39530
L77820 39470
L77880 39440
L77990 39440
L78050 39470
L78080 39530
L78080 39590
L77790 39640
" />
<path d="M78420 39840
L78360 39810
L78330 39760
L78330 39240
" />
<path d="M79100 39440
L79100 40040
" />
<path d="M79100 39470
L79160 39440
L79270 39440
L79330 39470
L79360 39500
L79390 39560
L79390 39730
L79360 39790
L79330 39810
L79270 39840
L79160 39840
L79100 39810
" />
<path d="M79900 39840
L79900 39530
L79870 39470
L79810 39440
L79700 39440
L79640 39470
" />
<path d="M79900 39810
L79840 39840
L79700 39840
L79640 39810
L79610 39760
L79610 39700
L79640 39640
L79700 39610
L79840 39610
L79900 39590
" />
<path d="M79760 39300
L79700 39270
L79670 39210
L79700 39160
L79760 39130
L79810 39160
L79840 39210
L79810 39270
L79760 39300
" />
<path d="M80640 39840
L80640 39240
" />
<path d="M80640 39470
L80700 39440
L80810 39440
L80870 39470
L80900 39500
L80930 39560
L80930 39730
L80900 39790
L80870 39810
L80810 39840
L80700 39840
L80640 39810
" />
<path d="M81440 39840
L81440 39530
L81410 39470
L81350 39440
L81240 39440
L81180 39470
" />
<path d="M81440 39810
L81380 39840
L81240 39840
L81180 39810
L81150 39760
L81150 39700
L81180 39640
L81240 39610
L81380 39610
L81440 39590
" />
<path d="M81720 39440
L81720 39840
" />
<path d="M81720 39500
L81750 39470
L81810 39440
L81890 39440
L81950 39470
L81980 39530
L81980 39840
" />
<path d="M82520 39840
L82520 39530
L82490 39470
L82430 39440
L82320 39440
L82260 39470
" />
<path d="M82520 39810
L82460 39840
L82320 39840
L82260 39810
L82230 39760
L82230 39700
L82260 39640
L82320 39610
L82460 39610
L82520 39590
" />
<path d="M82800 39440
L82800 39840
" />
<path d="M82800 39500
L82830 39470
L82890 39440
L82970 39440
L83030 39470
L83060 39530
L83060 39840
" />
<path d="M71740 37410
L71740 37040
L71970 37240
L71970 37160
L72000 37100
L72030 37070
L72090 37040
L72230 37040
L72290 37070
L72310 37100
L72340 37160
L72340 37330
L72310 37390
L72290 37410
" />
<path d="M71740 36670
L71740 36620
L71770 36560
L71800 36530
L71860 36500
L71970 36470
L72110 36470
L72230 36500
L72290 36530
L72310 36560
L72340 36620
L72340 36670
L72310 36730
L72290 36760
L72230 36790
L72110 36820
L71970 36820
L71860 36790
L71800 36760
L71770 36730
L71740 36670
" />
<path d="M72310 35960
L72340 36020
L72340 36130
L72310 36190
L72290 36220
L72230 36250
L72060 36250
L72000 36220
L71970 36190
L71940 36130
L71940 36020
L71970 35960
" />
<path d="M72340 35710
L71940 35710
" />
<path d="M72000 35710
L71970 35680
L71940 35620
L71940 35540
L71970 35480
L72030 35450
L72340 35450
" />
<path d="M72030 35450
L71970 35420
L71940 35360
L71940 35280
L71970 35220
L72030 35190
L72340 35190
" />
</g> 
</svg>
