M48
;DRILL file {KiCad 4.0.7} date Fri May 25 13:22:49 2018
;FORMAT={-:-/ absolute / inch / decimal}
FMAT,2
INCH,TZ
T1C0.025
T2C0.039
%
G90
G05
M72
T1
X1.34Y-3.05
X1.345Y-2.115
X1.345Y-3.995
X1.345Y-4.93
X1.4Y-2.94
X1.405Y-2.005
X1.405Y-3.885
X1.405Y-4.82
X2.28Y-3.065
X2.285Y-4.93
X2.29Y-3.995
X2.295Y-2.11
X2.34Y-2.955
X2.345Y-4.82
X2.35Y-3.885
X2.355Y-2.
X3.225Y-3.98
X3.23Y-2.12
X3.23Y-3.05
X3.235Y-4.935
X3.285Y-3.87
X3.29Y-2.01
X3.29Y-2.94
X3.295Y-4.825
X4.16Y-3.06
X4.165Y-4.935
X4.17Y-2.12
X4.17Y-3.99
X4.22Y-2.95
X4.225Y-4.825
X4.23Y-2.01
X4.23Y-3.88
T2
X1.41Y-2.46
X1.415Y-1.525
X1.415Y-3.405
X1.415Y-4.34
X1.51Y-2.46
X1.515Y-1.525
X1.515Y-3.405
X1.515Y-4.34
X1.625Y-2.6
X1.625Y-2.7
X1.63Y-1.665
X1.63Y-1.765
X1.63Y-3.545
X1.63Y-3.645
X1.63Y-4.48
X1.63Y-4.58
X1.715Y-2.875
X1.72Y-1.94
X1.72Y-3.82
X1.72Y-4.755
X1.815Y-2.875
X1.82Y-1.94
X1.82Y-3.82
X1.82Y-4.755
X1.915Y-2.875
X1.92Y-1.94
X1.92Y-3.82
X1.92Y-4.755
X2.35Y-2.475
X2.355Y-4.34
X2.36Y-3.405
X2.365Y-1.52
X2.45Y-2.475
X2.455Y-4.34
X2.46Y-3.405
X2.465Y-1.52
X2.565Y-2.615
X2.565Y-2.715
X2.57Y-4.48
X2.57Y-4.58
X2.575Y-3.545
X2.575Y-3.645
X2.58Y-1.66
X2.58Y-1.76
X2.655Y-2.89
X2.66Y-4.755
X2.665Y-3.82
X2.67Y-1.935
X2.755Y-2.89
X2.76Y-4.755
X2.765Y-3.82
X2.77Y-1.935
X2.855Y-2.89
X2.86Y-4.755
X2.865Y-3.82
X2.87Y-1.935
X3.295Y-3.39
X3.3Y-1.53
X3.3Y-2.46
X3.305Y-4.345
X3.395Y-3.39
X3.4Y-1.53
X3.4Y-2.46
X3.405Y-4.345
X3.51Y-3.53
X3.51Y-3.63
X3.515Y-1.67
X3.515Y-1.77
X3.515Y-2.6
X3.515Y-2.7
X3.52Y-4.485
X3.52Y-4.585
X3.6Y-3.805
X3.605Y-1.945
X3.605Y-2.875
X3.61Y-4.76
X3.7Y-3.805
X3.705Y-1.945
X3.705Y-2.875
X3.71Y-4.76
X3.8Y-3.805
X3.805Y-1.945
X3.805Y-2.875
X3.81Y-4.76
X4.23Y-2.47
X4.235Y-4.345
X4.24Y-1.53
X4.24Y-3.4
X4.33Y-2.47
X4.335Y-4.345
X4.34Y-1.53
X4.34Y-3.4
X4.445Y-2.61
X4.445Y-2.71
X4.45Y-4.485
X4.45Y-4.585
X4.455Y-1.67
X4.455Y-1.77
X4.455Y-3.54
X4.455Y-3.64
X4.535Y-2.885
X4.54Y-4.76
X4.545Y-1.945
X4.545Y-3.815
X4.635Y-2.885
X4.64Y-4.76
X4.645Y-1.945
X4.645Y-3.815
X4.735Y-2.885
X4.74Y-4.76
X4.745Y-1.945
X4.745Y-3.815
T0
M30
