G04 #@! TF.FileFunction,Profile,NP*
%FSLAX46Y46*%
G04 Gerber Fmt 4.6, Leading zero omitted, Abs format (unit mm)*
G04 Created by KiCad (PCBNEW 4.0.7) date Fri May 25 13:22:47 2018*
%MOMM*%
%LPD*%
G01*
G04 APERTURE LIST*
%ADD10C,0.150000*%
%ADD11C,0.100000*%
G04 APERTURE END LIST*
D10*
D11*
X32258000Y-32258000D02*
X32258000Y-126746000D01*
X103886000Y-80010000D02*
X107188000Y-80010000D01*
X107188000Y-80010000D02*
X107188000Y-78994000D01*
X107188000Y-78994000D02*
X103886000Y-78994000D01*
X108458000Y-80010000D02*
X122936000Y-80010000D01*
X122936000Y-80010000D02*
X122936000Y-78994000D01*
X122936000Y-78994000D02*
X108458000Y-78994000D01*
X108458000Y-80010000D02*
X108458000Y-78994000D01*
X80010000Y-80010000D02*
X83312000Y-80010000D01*
X83312000Y-80010000D02*
X83312000Y-78994000D01*
X83312000Y-78994000D02*
X80010000Y-78994000D01*
X102870000Y-78994000D02*
X100330000Y-78994000D01*
X100330000Y-78994000D02*
X100330000Y-80010000D01*
X100330000Y-80010000D02*
X102870000Y-80010000D01*
X84582000Y-80010000D02*
X99060000Y-80010000D01*
X99060000Y-80010000D02*
X99060000Y-78994000D01*
X99060000Y-78994000D02*
X84582000Y-78994000D01*
X84582000Y-80010000D02*
X84582000Y-78994000D01*
X56134000Y-80010000D02*
X59436000Y-80010000D01*
X59436000Y-80010000D02*
X59436000Y-78994000D01*
X59436000Y-78994000D02*
X56134000Y-78994000D01*
X78994000Y-78994000D02*
X76454000Y-78994000D01*
X76454000Y-78994000D02*
X76454000Y-80010000D01*
X76454000Y-80010000D02*
X78994000Y-80010000D01*
X60706000Y-80010000D02*
X75184000Y-80010000D01*
X75184000Y-80010000D02*
X75184000Y-78994000D01*
X75184000Y-78994000D02*
X60706000Y-78994000D01*
X60706000Y-80010000D02*
X60706000Y-78994000D01*
X55118000Y-78994000D02*
X52578000Y-78994000D01*
X52578000Y-78994000D02*
X52578000Y-80010000D01*
X52578000Y-80010000D02*
X55118000Y-80010000D01*
X36830000Y-80010000D02*
X51308000Y-80010000D01*
X51308000Y-80010000D02*
X51308000Y-78994000D01*
X51308000Y-78994000D02*
X36830000Y-78994000D01*
X36830000Y-80010000D02*
X36830000Y-78994000D01*
X36830000Y-103886000D02*
X36830000Y-102870000D01*
X51308000Y-102870000D02*
X36830000Y-102870000D01*
X51308000Y-103886000D02*
X51308000Y-102870000D01*
X36830000Y-103886000D02*
X51308000Y-103886000D01*
X52578000Y-103886000D02*
X55118000Y-103886000D01*
X52578000Y-102870000D02*
X52578000Y-103886000D01*
X55118000Y-102870000D02*
X52578000Y-102870000D01*
X60706000Y-103886000D02*
X60706000Y-102870000D01*
X75184000Y-102870000D02*
X60706000Y-102870000D01*
X75184000Y-103886000D02*
X75184000Y-102870000D01*
X60706000Y-103886000D02*
X75184000Y-103886000D01*
X76454000Y-103886000D02*
X78994000Y-103886000D01*
X76454000Y-102870000D02*
X76454000Y-103886000D01*
X78994000Y-102870000D02*
X76454000Y-102870000D01*
X59436000Y-102870000D02*
X56134000Y-102870000D01*
X59436000Y-103886000D02*
X59436000Y-102870000D01*
X56134000Y-103886000D02*
X59436000Y-103886000D01*
X84582000Y-103886000D02*
X84582000Y-102870000D01*
X99060000Y-102870000D02*
X84582000Y-102870000D01*
X99060000Y-103886000D02*
X99060000Y-102870000D01*
X84582000Y-103886000D02*
X99060000Y-103886000D01*
X100330000Y-103886000D02*
X102870000Y-103886000D01*
X100330000Y-102870000D02*
X100330000Y-103886000D01*
X102870000Y-102870000D02*
X100330000Y-102870000D01*
X83312000Y-102870000D02*
X80010000Y-102870000D01*
X83312000Y-103886000D02*
X83312000Y-102870000D01*
X80010000Y-103886000D02*
X83312000Y-103886000D01*
X108458000Y-103886000D02*
X108458000Y-102870000D01*
X122936000Y-102870000D02*
X108458000Y-102870000D01*
X122936000Y-103886000D02*
X122936000Y-102870000D01*
X108458000Y-103886000D02*
X122936000Y-103886000D01*
X107188000Y-102870000D02*
X103886000Y-102870000D01*
X107188000Y-103886000D02*
X107188000Y-102870000D01*
X103886000Y-103886000D02*
X107188000Y-103886000D01*
X78994000Y-126746000D02*
X56134000Y-126746000D01*
X56134000Y-126746000D02*
X56134000Y-123444000D01*
X56134000Y-123444000D02*
X55118000Y-123444000D01*
X55118000Y-123444000D02*
X55118000Y-126746000D01*
X55118000Y-126746000D02*
X32258000Y-126746000D01*
X80010000Y-126746000D02*
X80010000Y-123444000D01*
X80010000Y-123444000D02*
X78994000Y-123444000D01*
X78994000Y-123444000D02*
X78994000Y-126746000D01*
X102870000Y-126746000D02*
X80010000Y-126746000D01*
X102870000Y-123444000D02*
X102870000Y-126746000D01*
X103886000Y-123444000D02*
X102870000Y-123444000D01*
X103886000Y-126746000D02*
X103886000Y-123444000D01*
X126746000Y-126746000D02*
X103886000Y-126746000D01*
X126746000Y-32258000D02*
X126746000Y-55118000D01*
X126746000Y-55118000D02*
X123444000Y-55118000D01*
X123444000Y-55118000D02*
X123444000Y-56134000D01*
X123444000Y-56134000D02*
X126746000Y-56134000D01*
X126746000Y-56134000D02*
X126746000Y-78994000D01*
X123444000Y-80010000D02*
X126746000Y-80010000D01*
X123444000Y-78994000D02*
X123444000Y-80010000D01*
X126746000Y-78994000D02*
X123444000Y-78994000D01*
X126746000Y-103886000D02*
X126746000Y-126746000D01*
X123444000Y-103886000D02*
X126746000Y-103886000D01*
X123444000Y-102870000D02*
X123444000Y-103886000D01*
X126746000Y-102870000D02*
X123444000Y-102870000D01*
X126746000Y-80010000D02*
X126746000Y-102870000D01*
X103886000Y-56134000D02*
X107188000Y-56134000D01*
X107188000Y-56134000D02*
X107188000Y-55118000D01*
X107188000Y-55118000D02*
X103886000Y-55118000D01*
X108458000Y-56134000D02*
X122936000Y-56134000D01*
X122936000Y-56134000D02*
X122936000Y-55118000D01*
X122936000Y-55118000D02*
X108458000Y-55118000D01*
X108458000Y-56134000D02*
X108458000Y-55118000D01*
X80010000Y-56134000D02*
X83312000Y-56134000D01*
X83312000Y-56134000D02*
X83312000Y-55118000D01*
X83312000Y-55118000D02*
X80010000Y-55118000D01*
X102870000Y-55118000D02*
X100330000Y-55118000D01*
X100330000Y-55118000D02*
X100330000Y-56134000D01*
X100330000Y-56134000D02*
X102870000Y-56134000D01*
X84582000Y-56134000D02*
X99060000Y-56134000D01*
X99060000Y-56134000D02*
X99060000Y-55118000D01*
X99060000Y-55118000D02*
X84582000Y-55118000D01*
X84582000Y-56134000D02*
X84582000Y-55118000D01*
X56134000Y-56134000D02*
X59436000Y-56134000D01*
X59436000Y-56134000D02*
X59436000Y-55118000D01*
X59436000Y-55118000D02*
X56134000Y-55118000D01*
X78994000Y-55118000D02*
X76454000Y-55118000D01*
X76454000Y-55118000D02*
X76454000Y-56134000D01*
X76454000Y-56134000D02*
X78994000Y-56134000D01*
X60706000Y-56134000D02*
X75184000Y-56134000D01*
X75184000Y-56134000D02*
X75184000Y-55118000D01*
X75184000Y-55118000D02*
X60706000Y-55118000D01*
X60706000Y-56134000D02*
X60706000Y-55118000D01*
X56134000Y-59436000D02*
X56134000Y-56134000D01*
X78994000Y-56134000D02*
X78994000Y-59436000D01*
X78994000Y-52578000D02*
X78994000Y-55118000D01*
X56134000Y-55118000D02*
X56134000Y-52578000D01*
X102870000Y-56134000D02*
X102870000Y-59436000D01*
X102870000Y-59436000D02*
X103886000Y-59436000D01*
X103886000Y-59436000D02*
X103886000Y-56134000D01*
X103886000Y-78994000D02*
X103886000Y-76454000D01*
X103886000Y-76454000D02*
X102870000Y-76454000D01*
X102870000Y-76454000D02*
X102870000Y-78994000D01*
X102870000Y-60706000D02*
X102870000Y-75184000D01*
X102870000Y-75184000D02*
X103886000Y-75184000D01*
X103886000Y-75184000D02*
X103886000Y-60706000D01*
X102870000Y-60706000D02*
X103886000Y-60706000D01*
X102870000Y-80010000D02*
X102870000Y-83312000D01*
X102870000Y-83312000D02*
X103886000Y-83312000D01*
X103886000Y-83312000D02*
X103886000Y-80010000D01*
X103886000Y-102870000D02*
X103886000Y-100330000D01*
X103886000Y-100330000D02*
X102870000Y-100330000D01*
X102870000Y-100330000D02*
X102870000Y-102870000D01*
X102870000Y-84582000D02*
X102870000Y-99060000D01*
X102870000Y-99060000D02*
X103886000Y-99060000D01*
X103886000Y-99060000D02*
X103886000Y-84582000D01*
X102870000Y-84582000D02*
X103886000Y-84582000D01*
X102870000Y-103886000D02*
X102870000Y-107188000D01*
X102870000Y-107188000D02*
X103886000Y-107188000D01*
X103886000Y-107188000D02*
X103886000Y-103886000D01*
X102870000Y-108458000D02*
X102870000Y-122936000D01*
X102870000Y-122936000D02*
X103886000Y-122936000D01*
X103886000Y-122936000D02*
X103886000Y-108458000D01*
X102870000Y-108458000D02*
X103886000Y-108458000D01*
X78994000Y-103886000D02*
X78994000Y-107188000D01*
X78994000Y-107188000D02*
X80010000Y-107188000D01*
X80010000Y-107188000D02*
X80010000Y-103886000D01*
X78994000Y-108585000D02*
X78994000Y-123063000D01*
X78994000Y-123063000D02*
X80010000Y-123063000D01*
X80010000Y-123063000D02*
X80010000Y-108585000D01*
X78994000Y-108585000D02*
X80010000Y-108585000D01*
X55118000Y-103886000D02*
X55118000Y-107188000D01*
X55118000Y-107188000D02*
X56134000Y-107188000D01*
X56134000Y-107188000D02*
X56134000Y-103886000D01*
X55118000Y-108458000D02*
X55118000Y-122936000D01*
X55118000Y-122936000D02*
X56134000Y-122936000D01*
X56134000Y-122936000D02*
X56134000Y-108458000D01*
X55118000Y-108458000D02*
X56134000Y-108458000D01*
X78994000Y-80010000D02*
X78994000Y-83312000D01*
X78994000Y-83312000D02*
X80010000Y-83312000D01*
X80010000Y-83312000D02*
X80010000Y-80010000D01*
X80010000Y-102870000D02*
X80010000Y-100330000D01*
X80010000Y-100330000D02*
X78994000Y-100330000D01*
X78994000Y-100330000D02*
X78994000Y-102870000D01*
X78994000Y-84582000D02*
X78994000Y-99060000D01*
X78994000Y-99060000D02*
X80010000Y-99060000D01*
X80010000Y-99060000D02*
X80010000Y-84582000D01*
X78994000Y-84582000D02*
X80010000Y-84582000D01*
X55118000Y-80010000D02*
X55118000Y-83312000D01*
X55118000Y-83312000D02*
X56134000Y-83312000D01*
X56134000Y-83312000D02*
X56134000Y-80010000D01*
X56134000Y-102870000D02*
X56134000Y-100330000D01*
X56134000Y-100330000D02*
X55118000Y-100330000D01*
X55118000Y-100330000D02*
X55118000Y-102870000D01*
X55118000Y-84582000D02*
X55118000Y-99060000D01*
X55118000Y-99060000D02*
X56134000Y-99060000D01*
X56134000Y-99060000D02*
X56134000Y-84582000D01*
X55118000Y-84582000D02*
X56134000Y-84582000D01*
X55118000Y-56134000D02*
X55118000Y-59436000D01*
X55118000Y-59436000D02*
X56134000Y-59436000D01*
X56134000Y-78994000D02*
X56134000Y-76454000D01*
X56134000Y-76454000D02*
X55118000Y-76454000D01*
X55118000Y-76454000D02*
X55118000Y-78994000D01*
X55118000Y-60706000D02*
X55118000Y-75184000D01*
X55118000Y-75184000D02*
X56134000Y-75184000D01*
X56134000Y-75184000D02*
X56134000Y-60706000D01*
X55118000Y-60706000D02*
X56134000Y-60706000D01*
X78994000Y-59436000D02*
X80010000Y-59436000D01*
X80010000Y-59436000D02*
X80010000Y-56134000D01*
X80010000Y-78994000D02*
X80010000Y-76454000D01*
X80010000Y-76454000D02*
X78994000Y-76454000D01*
X78994000Y-76454000D02*
X78994000Y-78994000D01*
X78994000Y-60706000D02*
X78994000Y-75184000D01*
X78994000Y-75184000D02*
X80010000Y-75184000D01*
X80010000Y-75184000D02*
X80010000Y-60706000D01*
X78994000Y-60706000D02*
X80010000Y-60706000D01*
X102870000Y-36830000D02*
X103886000Y-36830000D01*
X103886000Y-51308000D02*
X103886000Y-36830000D01*
X102870000Y-51308000D02*
X103886000Y-51308000D01*
X102870000Y-36830000D02*
X102870000Y-51308000D01*
X102870000Y-52578000D02*
X102870000Y-55118000D01*
X103886000Y-52578000D02*
X102870000Y-52578000D01*
X103886000Y-55118000D02*
X103886000Y-52578000D01*
X80010000Y-32258000D02*
X102870000Y-32258000D01*
X102870000Y-32258000D02*
X102870000Y-35560000D01*
X102870000Y-35560000D02*
X103886000Y-35560000D01*
X103886000Y-35560000D02*
X103886000Y-32258000D01*
X103886000Y-32258000D02*
X126746000Y-32258000D01*
X55118000Y-55118000D02*
X52578000Y-55118000D01*
X52578000Y-55118000D02*
X52578000Y-56134000D01*
X52578000Y-56134000D02*
X55118000Y-56134000D01*
X36830000Y-56134000D02*
X51308000Y-56134000D01*
X51308000Y-56134000D02*
X51308000Y-55118000D01*
X51308000Y-55118000D02*
X36830000Y-55118000D01*
X36830000Y-56134000D02*
X36830000Y-55118000D01*
X78994000Y-32258000D02*
X78994000Y-35560000D01*
X78994000Y-35560000D02*
X80010000Y-35560000D01*
X80010000Y-35560000D02*
X80010000Y-32258000D01*
X80010000Y-55118000D02*
X80010000Y-52578000D01*
X80010000Y-52578000D02*
X78994000Y-52578000D01*
X78994000Y-36830000D02*
X78994000Y-51308000D01*
X78994000Y-51308000D02*
X80010000Y-51308000D01*
X80010000Y-51308000D02*
X80010000Y-36830000D01*
X78994000Y-36830000D02*
X80010000Y-36830000D01*
X55118000Y-36830000D02*
X56134000Y-36830000D01*
X56134000Y-51308000D02*
X56134000Y-36830000D01*
X55118000Y-51308000D02*
X56134000Y-51308000D01*
X55118000Y-36830000D02*
X55118000Y-51308000D01*
X55118000Y-52578000D02*
X55118000Y-55118000D01*
X56134000Y-52578000D02*
X55118000Y-52578000D01*
X56134000Y-32258000D02*
X78994000Y-32258000D01*
X56134000Y-35560000D02*
X56134000Y-32258000D01*
X55118000Y-35560000D02*
X56134000Y-35560000D01*
X55118000Y-32258000D02*
X55118000Y-35560000D01*
X32258000Y-32258000D02*
X55118000Y-32258000D01*
M02*
