G04 #@! TF.FileFunction,Soldermask,Bot*
%FSLAX46Y46*%
G04 Gerber Fmt 4.6, Leading zero omitted, Abs format (unit mm)*
G04 Created by KiCad (PCBNEW 4.0.7) date Fri May 25 13:22:47 2018*
%MOMM*%
%LPD*%
G01*
G04 APERTURE LIST*
%ADD10C,0.150000*%
%ADD11O,1.510000X3.010000*%
%ADD12R,1.700000X1.700000*%
%ADD13O,1.700000X1.700000*%
G04 APERTURE END LIST*
D10*
D11*
X86487000Y-110363000D03*
X83947000Y-110363000D03*
D12*
X89408000Y-113919000D03*
D13*
X89408000Y-116459000D03*
D12*
X91694000Y-120904000D03*
D13*
X94234000Y-120904000D03*
X96774000Y-120904000D03*
D11*
X62357000Y-110236000D03*
X59817000Y-110236000D03*
D12*
X65278000Y-113792000D03*
D13*
X65278000Y-116332000D03*
D12*
X67564000Y-120777000D03*
D13*
X70104000Y-120777000D03*
X72644000Y-120777000D03*
D11*
X38481000Y-110236000D03*
X35941000Y-110236000D03*
D12*
X41402000Y-113792000D03*
D13*
X41402000Y-116332000D03*
D12*
X43688000Y-120777000D03*
D13*
X46228000Y-120777000D03*
X48768000Y-120777000D03*
D11*
X110236000Y-86360000D03*
X107696000Y-86360000D03*
D12*
X113157000Y-89916000D03*
D13*
X113157000Y-92456000D03*
D12*
X115443000Y-96901000D03*
D13*
X117983000Y-96901000D03*
X120523000Y-96901000D03*
D11*
X86233000Y-86106000D03*
X83693000Y-86106000D03*
D12*
X89154000Y-89662000D03*
D13*
X89154000Y-92202000D03*
D12*
X91440000Y-96647000D03*
D13*
X93980000Y-96647000D03*
X96520000Y-96647000D03*
D11*
X62484000Y-86487000D03*
X59944000Y-86487000D03*
D12*
X65405000Y-90043000D03*
D13*
X65405000Y-92583000D03*
D12*
X67691000Y-97028000D03*
D13*
X70231000Y-97028000D03*
X72771000Y-97028000D03*
D11*
X38481000Y-86487000D03*
X35941000Y-86487000D03*
D12*
X41402000Y-90043000D03*
D13*
X41402000Y-92583000D03*
D12*
X43688000Y-97028000D03*
D13*
X46228000Y-97028000D03*
X48768000Y-97028000D03*
D12*
X115316000Y-120904000D03*
D13*
X117856000Y-120904000D03*
X120396000Y-120904000D03*
D12*
X113030000Y-113919000D03*
D13*
X113030000Y-116459000D03*
D11*
X110109000Y-110363000D03*
X107569000Y-110363000D03*
D12*
X91567000Y-73025000D03*
D13*
X94107000Y-73025000D03*
X96647000Y-73025000D03*
D12*
X89281000Y-66040000D03*
D13*
X89281000Y-68580000D03*
D11*
X86360000Y-62484000D03*
X83820000Y-62484000D03*
D12*
X67437000Y-73406000D03*
D13*
X69977000Y-73406000D03*
X72517000Y-73406000D03*
D12*
X65151000Y-66421000D03*
D13*
X65151000Y-68961000D03*
D11*
X62230000Y-62865000D03*
X59690000Y-62865000D03*
D12*
X43561000Y-73025000D03*
D13*
X46101000Y-73025000D03*
X48641000Y-73025000D03*
D12*
X41275000Y-66040000D03*
D13*
X41275000Y-68580000D03*
D11*
X38354000Y-62484000D03*
X35814000Y-62484000D03*
D12*
X115443000Y-49403000D03*
D13*
X117983000Y-49403000D03*
X120523000Y-49403000D03*
D12*
X113157000Y-42418000D03*
D13*
X113157000Y-44958000D03*
D11*
X110236000Y-38862000D03*
X107696000Y-38862000D03*
D12*
X91567000Y-49403000D03*
D13*
X94107000Y-49403000D03*
X96647000Y-49403000D03*
D12*
X89281000Y-42418000D03*
D13*
X89281000Y-44958000D03*
D11*
X86360000Y-38862000D03*
X83820000Y-38862000D03*
X109982000Y-62738000D03*
X107442000Y-62738000D03*
D12*
X112903000Y-66294000D03*
D13*
X112903000Y-68834000D03*
D12*
X115189000Y-73279000D03*
D13*
X117729000Y-73279000D03*
X120269000Y-73279000D03*
D12*
X67818000Y-49149000D03*
D13*
X70358000Y-49149000D03*
X72898000Y-49149000D03*
D12*
X65532000Y-42164000D03*
D13*
X65532000Y-44704000D03*
D11*
X62611000Y-38608000D03*
X60071000Y-38608000D03*
X38481000Y-38735000D03*
X35941000Y-38735000D03*
D12*
X41402000Y-42291000D03*
D13*
X41402000Y-44831000D03*
D12*
X43688000Y-49276000D03*
D13*
X46228000Y-49276000D03*
X48768000Y-49276000D03*
M02*
