G04 #@! TF.FileFunction,Copper,L2,Bot,Signal*
%FSLAX46Y46*%
G04 Gerber Fmt 4.6, Leading zero omitted, Abs format (unit mm)*
G04 Created by KiCad (PCBNEW 4.0.7) date Fri May 25 13:22:47 2018*
%MOMM*%
%LPD*%
G01*
G04 APERTURE LIST*
%ADD10C,0.150000*%
%ADD11O,1.510000X3.010000*%
%ADD12R,1.700000X1.700000*%
%ADD13O,1.700000X1.700000*%
%ADD14C,0.889000*%
%ADD15C,0.254000*%
G04 APERTURE END LIST*
D10*
D11*
X86487000Y-110363000D03*
X83947000Y-110363000D03*
D12*
X89408000Y-113919000D03*
D13*
X89408000Y-116459000D03*
D12*
X91694000Y-120904000D03*
D13*
X94234000Y-120904000D03*
X96774000Y-120904000D03*
D11*
X62357000Y-110236000D03*
X59817000Y-110236000D03*
D12*
X65278000Y-113792000D03*
D13*
X65278000Y-116332000D03*
D12*
X67564000Y-120777000D03*
D13*
X70104000Y-120777000D03*
X72644000Y-120777000D03*
D11*
X38481000Y-110236000D03*
X35941000Y-110236000D03*
D12*
X41402000Y-113792000D03*
D13*
X41402000Y-116332000D03*
D12*
X43688000Y-120777000D03*
D13*
X46228000Y-120777000D03*
X48768000Y-120777000D03*
D11*
X110236000Y-86360000D03*
X107696000Y-86360000D03*
D12*
X113157000Y-89916000D03*
D13*
X113157000Y-92456000D03*
D12*
X115443000Y-96901000D03*
D13*
X117983000Y-96901000D03*
X120523000Y-96901000D03*
D11*
X86233000Y-86106000D03*
X83693000Y-86106000D03*
D12*
X89154000Y-89662000D03*
D13*
X89154000Y-92202000D03*
D12*
X91440000Y-96647000D03*
D13*
X93980000Y-96647000D03*
X96520000Y-96647000D03*
D11*
X62484000Y-86487000D03*
X59944000Y-86487000D03*
D12*
X65405000Y-90043000D03*
D13*
X65405000Y-92583000D03*
D12*
X67691000Y-97028000D03*
D13*
X70231000Y-97028000D03*
X72771000Y-97028000D03*
D11*
X38481000Y-86487000D03*
X35941000Y-86487000D03*
D12*
X41402000Y-90043000D03*
D13*
X41402000Y-92583000D03*
D12*
X43688000Y-97028000D03*
D13*
X46228000Y-97028000D03*
X48768000Y-97028000D03*
D12*
X115316000Y-120904000D03*
D13*
X117856000Y-120904000D03*
X120396000Y-120904000D03*
D12*
X113030000Y-113919000D03*
D13*
X113030000Y-116459000D03*
D11*
X110109000Y-110363000D03*
X107569000Y-110363000D03*
D12*
X91567000Y-73025000D03*
D13*
X94107000Y-73025000D03*
X96647000Y-73025000D03*
D12*
X89281000Y-66040000D03*
D13*
X89281000Y-68580000D03*
D11*
X86360000Y-62484000D03*
X83820000Y-62484000D03*
D12*
X67437000Y-73406000D03*
D13*
X69977000Y-73406000D03*
X72517000Y-73406000D03*
D12*
X65151000Y-66421000D03*
D13*
X65151000Y-68961000D03*
D11*
X62230000Y-62865000D03*
X59690000Y-62865000D03*
D12*
X43561000Y-73025000D03*
D13*
X46101000Y-73025000D03*
X48641000Y-73025000D03*
D12*
X41275000Y-66040000D03*
D13*
X41275000Y-68580000D03*
D11*
X38354000Y-62484000D03*
X35814000Y-62484000D03*
D12*
X115443000Y-49403000D03*
D13*
X117983000Y-49403000D03*
X120523000Y-49403000D03*
D12*
X113157000Y-42418000D03*
D13*
X113157000Y-44958000D03*
D11*
X110236000Y-38862000D03*
X107696000Y-38862000D03*
D12*
X91567000Y-49403000D03*
D13*
X94107000Y-49403000D03*
X96647000Y-49403000D03*
D12*
X89281000Y-42418000D03*
D13*
X89281000Y-44958000D03*
D11*
X86360000Y-38862000D03*
X83820000Y-38862000D03*
X109982000Y-62738000D03*
X107442000Y-62738000D03*
D12*
X112903000Y-66294000D03*
D13*
X112903000Y-68834000D03*
D12*
X115189000Y-73279000D03*
D13*
X117729000Y-73279000D03*
X120269000Y-73279000D03*
D12*
X67818000Y-49149000D03*
D13*
X70358000Y-49149000D03*
X72898000Y-49149000D03*
D12*
X65532000Y-42164000D03*
D13*
X65532000Y-44704000D03*
D11*
X62611000Y-38608000D03*
X60071000Y-38608000D03*
X38481000Y-38735000D03*
X35941000Y-38735000D03*
D12*
X41402000Y-42291000D03*
D13*
X41402000Y-44831000D03*
D12*
X43688000Y-49276000D03*
D13*
X46228000Y-49276000D03*
X48768000Y-49276000D03*
D14*
X82169000Y-125349000D03*
X83693000Y-122555000D03*
X58039000Y-125222000D03*
X59563000Y-122428000D03*
X34163000Y-125222000D03*
X35687000Y-122428000D03*
X105918000Y-101346000D03*
X107442000Y-98552000D03*
X81915000Y-101092000D03*
X83439000Y-98298000D03*
X58166000Y-101473000D03*
X59690000Y-98679000D03*
X34163000Y-101473000D03*
X35687000Y-98679000D03*
X107315000Y-122555000D03*
X105791000Y-125349000D03*
X83566000Y-74676000D03*
X82042000Y-77470000D03*
X59436000Y-75057000D03*
X57912000Y-77851000D03*
X35560000Y-74676000D03*
X34036000Y-77470000D03*
X107442000Y-51054000D03*
X105918000Y-53848000D03*
X83566000Y-51054000D03*
X82042000Y-53848000D03*
X105664000Y-77724000D03*
X107188000Y-74930000D03*
X59817000Y-50800000D03*
X58293000Y-53594000D03*
X34163000Y-53721000D03*
X35687000Y-50927000D03*
D15*
X82169000Y-125349000D02*
X83185000Y-124968000D01*
X83185000Y-124968000D02*
X102108000Y-124968000D01*
X102108000Y-124968000D02*
X102108000Y-124841000D01*
X102108000Y-124841000D02*
X102108000Y-105156000D01*
X102108000Y-105156000D02*
X81280000Y-105156000D01*
X81280000Y-105156000D02*
X81280000Y-124841000D01*
X81280000Y-124841000D02*
X81661000Y-124460000D01*
X81661000Y-124460000D02*
X101600000Y-124460000D01*
X101600000Y-124460000D02*
X101600000Y-105664000D01*
X101600000Y-105664000D02*
X81788000Y-105664000D01*
X81788000Y-105664000D02*
X81788000Y-123952000D01*
X81788000Y-123952000D02*
X101092000Y-123952000D01*
X101092000Y-123952000D02*
X101092000Y-106172000D01*
X101092000Y-106172000D02*
X82296000Y-106172000D01*
X82296000Y-106172000D02*
X82296000Y-123444000D01*
X82296000Y-123444000D02*
X100584000Y-123444000D01*
X100584000Y-123444000D02*
X100584000Y-106807000D01*
X100584000Y-106807000D02*
X82804000Y-106807000D01*
X82804000Y-106807000D02*
X82804000Y-122174000D01*
X82804000Y-122174000D02*
X83185000Y-122555000D01*
X83185000Y-122555000D02*
X83693000Y-122555000D01*
X58039000Y-125222000D02*
X59055000Y-124841000D01*
X59055000Y-124841000D02*
X77978000Y-124841000D01*
X77978000Y-124841000D02*
X77978000Y-124714000D01*
X77978000Y-124714000D02*
X77978000Y-105029000D01*
X77978000Y-105029000D02*
X57150000Y-105029000D01*
X57150000Y-105029000D02*
X57150000Y-124714000D01*
X57150000Y-124714000D02*
X57531000Y-124333000D01*
X57531000Y-124333000D02*
X77470000Y-124333000D01*
X77470000Y-124333000D02*
X77470000Y-105537000D01*
X77470000Y-105537000D02*
X57658000Y-105537000D01*
X57658000Y-105537000D02*
X57658000Y-123825000D01*
X57658000Y-123825000D02*
X76962000Y-123825000D01*
X76962000Y-123825000D02*
X76962000Y-106045000D01*
X76962000Y-106045000D02*
X58166000Y-106045000D01*
X58166000Y-106045000D02*
X58166000Y-123317000D01*
X58166000Y-123317000D02*
X76454000Y-123317000D01*
X76454000Y-123317000D02*
X76454000Y-106680000D01*
X76454000Y-106680000D02*
X58674000Y-106680000D01*
X58674000Y-106680000D02*
X58674000Y-122047000D01*
X58674000Y-122047000D02*
X59055000Y-122428000D01*
X59055000Y-122428000D02*
X59563000Y-122428000D01*
X34163000Y-125222000D02*
X35179000Y-124841000D01*
X35179000Y-124841000D02*
X54102000Y-124841000D01*
X54102000Y-124841000D02*
X54102000Y-124714000D01*
X54102000Y-124714000D02*
X54102000Y-105029000D01*
X54102000Y-105029000D02*
X33274000Y-105029000D01*
X33274000Y-105029000D02*
X33274000Y-124714000D01*
X33274000Y-124714000D02*
X33655000Y-124333000D01*
X33655000Y-124333000D02*
X53594000Y-124333000D01*
X53594000Y-124333000D02*
X53594000Y-105537000D01*
X53594000Y-105537000D02*
X33782000Y-105537000D01*
X33782000Y-105537000D02*
X33782000Y-123825000D01*
X33782000Y-123825000D02*
X53086000Y-123825000D01*
X53086000Y-123825000D02*
X53086000Y-106045000D01*
X53086000Y-106045000D02*
X34290000Y-106045000D01*
X34290000Y-106045000D02*
X34290000Y-123317000D01*
X34290000Y-123317000D02*
X52578000Y-123317000D01*
X52578000Y-123317000D02*
X52578000Y-106680000D01*
X52578000Y-106680000D02*
X34798000Y-106680000D01*
X34798000Y-106680000D02*
X34798000Y-122047000D01*
X34798000Y-122047000D02*
X35179000Y-122428000D01*
X35179000Y-122428000D02*
X35687000Y-122428000D01*
X105918000Y-101346000D02*
X106934000Y-100965000D01*
X106934000Y-100965000D02*
X125857000Y-100965000D01*
X125857000Y-100965000D02*
X125857000Y-100838000D01*
X125857000Y-100838000D02*
X125857000Y-81153000D01*
X125857000Y-81153000D02*
X105029000Y-81153000D01*
X105029000Y-81153000D02*
X105029000Y-100838000D01*
X105029000Y-100838000D02*
X105410000Y-100457000D01*
X105410000Y-100457000D02*
X125349000Y-100457000D01*
X125349000Y-100457000D02*
X125349000Y-81661000D01*
X125349000Y-81661000D02*
X105537000Y-81661000D01*
X105537000Y-81661000D02*
X105537000Y-99949000D01*
X105537000Y-99949000D02*
X124841000Y-99949000D01*
X124841000Y-99949000D02*
X124841000Y-82169000D01*
X124841000Y-82169000D02*
X106045000Y-82169000D01*
X106045000Y-82169000D02*
X106045000Y-99441000D01*
X106045000Y-99441000D02*
X124333000Y-99441000D01*
X124333000Y-99441000D02*
X124333000Y-82804000D01*
X124333000Y-82804000D02*
X106553000Y-82804000D01*
X106553000Y-82804000D02*
X106553000Y-98171000D01*
X106553000Y-98171000D02*
X106934000Y-98552000D01*
X106934000Y-98552000D02*
X107442000Y-98552000D01*
X81915000Y-101092000D02*
X82931000Y-100711000D01*
X82931000Y-100711000D02*
X101854000Y-100711000D01*
X101854000Y-100711000D02*
X101854000Y-100584000D01*
X101854000Y-100584000D02*
X101854000Y-80899000D01*
X101854000Y-80899000D02*
X81026000Y-80899000D01*
X81026000Y-80899000D02*
X81026000Y-100584000D01*
X81026000Y-100584000D02*
X81407000Y-100203000D01*
X81407000Y-100203000D02*
X101346000Y-100203000D01*
X101346000Y-100203000D02*
X101346000Y-81407000D01*
X101346000Y-81407000D02*
X81534000Y-81407000D01*
X81534000Y-81407000D02*
X81534000Y-99695000D01*
X81534000Y-99695000D02*
X100838000Y-99695000D01*
X100838000Y-99695000D02*
X100838000Y-81915000D01*
X100838000Y-81915000D02*
X82042000Y-81915000D01*
X82042000Y-81915000D02*
X82042000Y-99187000D01*
X82042000Y-99187000D02*
X100330000Y-99187000D01*
X100330000Y-99187000D02*
X100330000Y-82550000D01*
X100330000Y-82550000D02*
X82550000Y-82550000D01*
X82550000Y-82550000D02*
X82550000Y-97917000D01*
X82550000Y-97917000D02*
X82931000Y-98298000D01*
X82931000Y-98298000D02*
X83439000Y-98298000D01*
X58166000Y-101473000D02*
X59182000Y-101092000D01*
X59182000Y-101092000D02*
X78105000Y-101092000D01*
X78105000Y-101092000D02*
X78105000Y-100965000D01*
X78105000Y-100965000D02*
X78105000Y-81280000D01*
X78105000Y-81280000D02*
X57277000Y-81280000D01*
X57277000Y-81280000D02*
X57277000Y-100965000D01*
X57277000Y-100965000D02*
X57658000Y-100584000D01*
X57658000Y-100584000D02*
X77597000Y-100584000D01*
X77597000Y-100584000D02*
X77597000Y-81788000D01*
X77597000Y-81788000D02*
X57785000Y-81788000D01*
X57785000Y-81788000D02*
X57785000Y-100076000D01*
X57785000Y-100076000D02*
X77089000Y-100076000D01*
X77089000Y-100076000D02*
X77089000Y-82296000D01*
X77089000Y-82296000D02*
X58293000Y-82296000D01*
X58293000Y-82296000D02*
X58293000Y-99568000D01*
X58293000Y-99568000D02*
X76581000Y-99568000D01*
X76581000Y-99568000D02*
X76581000Y-82931000D01*
X76581000Y-82931000D02*
X58801000Y-82931000D01*
X58801000Y-82931000D02*
X58801000Y-98298000D01*
X58801000Y-98298000D02*
X59182000Y-98679000D01*
X59182000Y-98679000D02*
X59690000Y-98679000D01*
X34163000Y-101473000D02*
X35179000Y-101092000D01*
X35179000Y-101092000D02*
X54102000Y-101092000D01*
X54102000Y-101092000D02*
X54102000Y-100965000D01*
X54102000Y-100965000D02*
X54102000Y-81280000D01*
X54102000Y-81280000D02*
X33274000Y-81280000D01*
X33274000Y-81280000D02*
X33274000Y-100965000D01*
X33274000Y-100965000D02*
X33655000Y-100584000D01*
X33655000Y-100584000D02*
X53594000Y-100584000D01*
X53594000Y-100584000D02*
X53594000Y-81788000D01*
X53594000Y-81788000D02*
X33782000Y-81788000D01*
X33782000Y-81788000D02*
X33782000Y-100076000D01*
X33782000Y-100076000D02*
X53086000Y-100076000D01*
X53086000Y-100076000D02*
X53086000Y-82296000D01*
X53086000Y-82296000D02*
X34290000Y-82296000D01*
X34290000Y-82296000D02*
X34290000Y-99568000D01*
X34290000Y-99568000D02*
X52578000Y-99568000D01*
X52578000Y-99568000D02*
X52578000Y-82931000D01*
X52578000Y-82931000D02*
X34798000Y-82931000D01*
X34798000Y-82931000D02*
X34798000Y-98298000D01*
X34798000Y-98298000D02*
X35179000Y-98679000D01*
X35179000Y-98679000D02*
X35687000Y-98679000D01*
X106807000Y-122555000D02*
X107315000Y-122555000D01*
X106426000Y-122174000D02*
X106807000Y-122555000D01*
X106426000Y-106807000D02*
X106426000Y-122174000D01*
X124206000Y-106807000D02*
X106426000Y-106807000D01*
X124206000Y-123444000D02*
X124206000Y-106807000D01*
X105918000Y-123444000D02*
X124206000Y-123444000D01*
X105918000Y-106172000D02*
X105918000Y-123444000D01*
X124714000Y-106172000D02*
X105918000Y-106172000D01*
X124714000Y-123952000D02*
X124714000Y-106172000D01*
X105410000Y-123952000D02*
X124714000Y-123952000D01*
X105410000Y-105664000D02*
X105410000Y-123952000D01*
X125222000Y-105664000D02*
X105410000Y-105664000D01*
X125222000Y-124460000D02*
X125222000Y-105664000D01*
X105283000Y-124460000D02*
X125222000Y-124460000D01*
X104902000Y-124841000D02*
X105283000Y-124460000D01*
X104902000Y-105156000D02*
X104902000Y-124841000D01*
X125730000Y-105156000D02*
X104902000Y-105156000D01*
X125730000Y-124841000D02*
X125730000Y-105156000D01*
X125730000Y-124968000D02*
X125730000Y-124841000D01*
X106807000Y-124968000D02*
X125730000Y-124968000D01*
X105791000Y-125349000D02*
X106807000Y-124968000D01*
X83058000Y-74676000D02*
X83566000Y-74676000D01*
X82677000Y-74295000D02*
X83058000Y-74676000D01*
X82677000Y-58928000D02*
X82677000Y-74295000D01*
X100457000Y-58928000D02*
X82677000Y-58928000D01*
X100457000Y-75565000D02*
X100457000Y-58928000D01*
X82169000Y-75565000D02*
X100457000Y-75565000D01*
X82169000Y-58293000D02*
X82169000Y-75565000D01*
X100965000Y-58293000D02*
X82169000Y-58293000D01*
X100965000Y-76073000D02*
X100965000Y-58293000D01*
X81661000Y-76073000D02*
X100965000Y-76073000D01*
X81661000Y-57785000D02*
X81661000Y-76073000D01*
X101473000Y-57785000D02*
X81661000Y-57785000D01*
X101473000Y-76581000D02*
X101473000Y-57785000D01*
X81534000Y-76581000D02*
X101473000Y-76581000D01*
X81153000Y-76962000D02*
X81534000Y-76581000D01*
X81153000Y-57277000D02*
X81153000Y-76962000D01*
X101981000Y-57277000D02*
X81153000Y-57277000D01*
X101981000Y-76962000D02*
X101981000Y-57277000D01*
X101981000Y-77089000D02*
X101981000Y-76962000D01*
X83058000Y-77089000D02*
X101981000Y-77089000D01*
X82042000Y-77470000D02*
X83058000Y-77089000D01*
X58928000Y-75057000D02*
X59436000Y-75057000D01*
X58547000Y-74676000D02*
X58928000Y-75057000D01*
X58547000Y-59309000D02*
X58547000Y-74676000D01*
X76327000Y-59309000D02*
X58547000Y-59309000D01*
X76327000Y-75946000D02*
X76327000Y-59309000D01*
X58039000Y-75946000D02*
X76327000Y-75946000D01*
X58039000Y-58674000D02*
X58039000Y-75946000D01*
X76835000Y-58674000D02*
X58039000Y-58674000D01*
X76835000Y-76454000D02*
X76835000Y-58674000D01*
X57531000Y-76454000D02*
X76835000Y-76454000D01*
X57531000Y-58166000D02*
X57531000Y-76454000D01*
X77343000Y-58166000D02*
X57531000Y-58166000D01*
X77343000Y-76962000D02*
X77343000Y-58166000D01*
X57404000Y-76962000D02*
X77343000Y-76962000D01*
X57023000Y-77343000D02*
X57404000Y-76962000D01*
X57023000Y-57658000D02*
X57023000Y-77343000D01*
X77851000Y-57658000D02*
X57023000Y-57658000D01*
X77851000Y-77343000D02*
X77851000Y-57658000D01*
X77851000Y-77470000D02*
X77851000Y-77343000D01*
X58928000Y-77470000D02*
X77851000Y-77470000D01*
X57912000Y-77851000D02*
X58928000Y-77470000D01*
X35052000Y-74676000D02*
X35560000Y-74676000D01*
X34671000Y-74295000D02*
X35052000Y-74676000D01*
X34671000Y-58928000D02*
X34671000Y-74295000D01*
X52451000Y-58928000D02*
X34671000Y-58928000D01*
X52451000Y-75565000D02*
X52451000Y-58928000D01*
X34163000Y-75565000D02*
X52451000Y-75565000D01*
X34163000Y-58293000D02*
X34163000Y-75565000D01*
X52959000Y-58293000D02*
X34163000Y-58293000D01*
X52959000Y-76073000D02*
X52959000Y-58293000D01*
X33655000Y-76073000D02*
X52959000Y-76073000D01*
X33655000Y-57785000D02*
X33655000Y-76073000D01*
X53467000Y-57785000D02*
X33655000Y-57785000D01*
X53467000Y-76581000D02*
X53467000Y-57785000D01*
X33528000Y-76581000D02*
X53467000Y-76581000D01*
X33147000Y-76962000D02*
X33528000Y-76581000D01*
X33147000Y-57277000D02*
X33147000Y-76962000D01*
X53975000Y-57277000D02*
X33147000Y-57277000D01*
X53975000Y-76962000D02*
X53975000Y-57277000D01*
X53975000Y-77089000D02*
X53975000Y-76962000D01*
X35052000Y-77089000D02*
X53975000Y-77089000D01*
X34036000Y-77470000D02*
X35052000Y-77089000D01*
X106934000Y-51054000D02*
X107442000Y-51054000D01*
X106553000Y-50673000D02*
X106934000Y-51054000D01*
X106553000Y-35306000D02*
X106553000Y-50673000D01*
X124333000Y-35306000D02*
X106553000Y-35306000D01*
X124333000Y-51943000D02*
X124333000Y-35306000D01*
X106045000Y-51943000D02*
X124333000Y-51943000D01*
X106045000Y-34671000D02*
X106045000Y-51943000D01*
X124841000Y-34671000D02*
X106045000Y-34671000D01*
X124841000Y-52451000D02*
X124841000Y-34671000D01*
X105537000Y-52451000D02*
X124841000Y-52451000D01*
X105537000Y-34163000D02*
X105537000Y-52451000D01*
X125349000Y-34163000D02*
X105537000Y-34163000D01*
X125349000Y-52959000D02*
X125349000Y-34163000D01*
X105410000Y-52959000D02*
X125349000Y-52959000D01*
X105029000Y-53340000D02*
X105410000Y-52959000D01*
X105029000Y-33655000D02*
X105029000Y-53340000D01*
X125857000Y-33655000D02*
X105029000Y-33655000D01*
X125857000Y-53340000D02*
X125857000Y-33655000D01*
X125857000Y-53467000D02*
X125857000Y-53340000D01*
X106934000Y-53467000D02*
X125857000Y-53467000D01*
X105918000Y-53848000D02*
X106934000Y-53467000D01*
X83058000Y-51054000D02*
X83566000Y-51054000D01*
X82677000Y-50673000D02*
X83058000Y-51054000D01*
X82677000Y-35306000D02*
X82677000Y-50673000D01*
X100457000Y-35306000D02*
X82677000Y-35306000D01*
X100457000Y-51943000D02*
X100457000Y-35306000D01*
X82169000Y-51943000D02*
X100457000Y-51943000D01*
X82169000Y-34671000D02*
X82169000Y-51943000D01*
X100965000Y-34671000D02*
X82169000Y-34671000D01*
X100965000Y-52451000D02*
X100965000Y-34671000D01*
X81661000Y-52451000D02*
X100965000Y-52451000D01*
X81661000Y-34163000D02*
X81661000Y-52451000D01*
X101473000Y-34163000D02*
X81661000Y-34163000D01*
X101473000Y-52959000D02*
X101473000Y-34163000D01*
X81534000Y-52959000D02*
X101473000Y-52959000D01*
X81153000Y-53340000D02*
X81534000Y-52959000D01*
X81153000Y-33655000D02*
X81153000Y-53340000D01*
X101981000Y-33655000D02*
X81153000Y-33655000D01*
X101981000Y-53340000D02*
X101981000Y-33655000D01*
X101981000Y-53467000D02*
X101981000Y-53340000D01*
X83058000Y-53467000D02*
X101981000Y-53467000D01*
X82042000Y-53848000D02*
X83058000Y-53467000D01*
X105664000Y-77724000D02*
X106680000Y-77343000D01*
X106680000Y-77343000D02*
X125603000Y-77343000D01*
X125603000Y-77343000D02*
X125603000Y-77216000D01*
X125603000Y-77216000D02*
X125603000Y-57531000D01*
X125603000Y-57531000D02*
X104775000Y-57531000D01*
X104775000Y-57531000D02*
X104775000Y-77216000D01*
X104775000Y-77216000D02*
X105156000Y-76835000D01*
X105156000Y-76835000D02*
X125095000Y-76835000D01*
X125095000Y-76835000D02*
X125095000Y-58039000D01*
X125095000Y-58039000D02*
X105283000Y-58039000D01*
X105283000Y-58039000D02*
X105283000Y-76327000D01*
X105283000Y-76327000D02*
X124587000Y-76327000D01*
X124587000Y-76327000D02*
X124587000Y-58547000D01*
X124587000Y-58547000D02*
X105791000Y-58547000D01*
X105791000Y-58547000D02*
X105791000Y-75819000D01*
X105791000Y-75819000D02*
X124079000Y-75819000D01*
X124079000Y-75819000D02*
X124079000Y-59182000D01*
X124079000Y-59182000D02*
X106299000Y-59182000D01*
X106299000Y-59182000D02*
X106299000Y-74549000D01*
X106299000Y-74549000D02*
X106680000Y-74930000D01*
X106680000Y-74930000D02*
X107188000Y-74930000D01*
X59309000Y-50800000D02*
X59817000Y-50800000D01*
X58928000Y-50419000D02*
X59309000Y-50800000D01*
X58928000Y-35052000D02*
X58928000Y-50419000D01*
X76708000Y-35052000D02*
X58928000Y-35052000D01*
X76708000Y-51689000D02*
X76708000Y-35052000D01*
X58420000Y-51689000D02*
X76708000Y-51689000D01*
X58420000Y-34417000D02*
X58420000Y-51689000D01*
X77216000Y-34417000D02*
X58420000Y-34417000D01*
X77216000Y-52197000D02*
X77216000Y-34417000D01*
X57912000Y-52197000D02*
X77216000Y-52197000D01*
X57912000Y-33909000D02*
X57912000Y-52197000D01*
X77724000Y-33909000D02*
X57912000Y-33909000D01*
X77724000Y-52705000D02*
X77724000Y-33909000D01*
X57785000Y-52705000D02*
X77724000Y-52705000D01*
X57404000Y-53086000D02*
X57785000Y-52705000D01*
X57404000Y-33401000D02*
X57404000Y-53086000D01*
X78232000Y-33401000D02*
X57404000Y-33401000D01*
X78232000Y-53086000D02*
X78232000Y-33401000D01*
X78232000Y-53213000D02*
X78232000Y-53086000D01*
X59309000Y-53213000D02*
X78232000Y-53213000D01*
X58293000Y-53594000D02*
X59309000Y-53213000D01*
X34163000Y-53721000D02*
X35179000Y-53340000D01*
X35179000Y-53340000D02*
X54102000Y-53340000D01*
X54102000Y-53340000D02*
X54102000Y-53213000D01*
X54102000Y-53213000D02*
X54102000Y-33528000D01*
X54102000Y-33528000D02*
X33274000Y-33528000D01*
X33274000Y-33528000D02*
X33274000Y-53213000D01*
X33274000Y-53213000D02*
X33655000Y-52832000D01*
X33655000Y-52832000D02*
X53594000Y-52832000D01*
X53594000Y-52832000D02*
X53594000Y-34036000D01*
X53594000Y-34036000D02*
X33782000Y-34036000D01*
X33782000Y-34036000D02*
X33782000Y-52324000D01*
X33782000Y-52324000D02*
X53086000Y-52324000D01*
X53086000Y-52324000D02*
X53086000Y-34544000D01*
X53086000Y-34544000D02*
X34290000Y-34544000D01*
X34290000Y-34544000D02*
X34290000Y-51816000D01*
X34290000Y-51816000D02*
X52578000Y-51816000D01*
X52578000Y-51816000D02*
X52578000Y-35179000D01*
X52578000Y-35179000D02*
X34798000Y-35179000D01*
X34798000Y-35179000D02*
X34798000Y-50546000D01*
X34798000Y-50546000D02*
X35179000Y-50927000D01*
X35179000Y-50927000D02*
X35687000Y-50927000D01*
M02*
