G04 #@! TF.FileFunction,Soldermask,Top*
%FSLAX46Y46*%
G04 Gerber Fmt 4.6, Leading zero omitted, Abs format (unit mm)*
G04 Created by KiCad (PCBNEW 4.0.7) date Fri May 25 13:22:47 2018*
%MOMM*%
%LPD*%
G01*
G04 APERTURE LIST*
%ADD10C,0.150000*%
%ADD11R,1.000000X1.250000*%
%ADD12R,1.250000X1.000000*%
%ADD13R,1.500000X1.950000*%
%ADD14R,1.200000X1.200000*%
%ADD15R,0.900000X0.800000*%
%ADD16R,1.550000X0.600000*%
%ADD17O,1.510000X3.010000*%
%ADD18R,1.300000X0.700000*%
%ADD19R,1.000000X1.500000*%
%ADD20R,1.000000X1.800000*%
%ADD21R,2.200000X1.840000*%
%ADD22R,2.400000X2.000000*%
%ADD23R,1.700000X1.700000*%
%ADD24O,1.700000X1.700000*%
G04 APERTURE END LIST*
D10*
D11*
X86852000Y-115062000D03*
X84852000Y-115062000D03*
D12*
X99568000Y-122793000D03*
X99568000Y-120793000D03*
X89154000Y-119269000D03*
X89154000Y-121269000D03*
D13*
X96774000Y-109496000D03*
X96774000Y-112246000D03*
D14*
X99568000Y-110025000D03*
X99568000Y-112225000D03*
D15*
X89535000Y-108932000D03*
X89535000Y-111032000D03*
D16*
X91661000Y-114554000D03*
X91661000Y-115824000D03*
X91661000Y-117094000D03*
X91661000Y-118364000D03*
X97061000Y-118364000D03*
X97061000Y-117094000D03*
X97061000Y-115824000D03*
X97061000Y-114554000D03*
D17*
X86487000Y-110363000D03*
X83947000Y-110363000D03*
D18*
X99568000Y-119187000D03*
X99568000Y-117287000D03*
X99568000Y-113985000D03*
X99568000Y-115885000D03*
D10*
G36*
X93937000Y-112732000D02*
X93337000Y-113582000D01*
X92337000Y-113582000D01*
X91737000Y-112732000D01*
X93937000Y-112732000D01*
X93937000Y-112732000D01*
G37*
D19*
X94337000Y-109010000D03*
D20*
X92837000Y-109156500D03*
D19*
X91337000Y-109010000D03*
D21*
X92837000Y-111823500D03*
D10*
G36*
X91737000Y-110913800D02*
X92437000Y-109913800D01*
X93237000Y-109913800D01*
X93937000Y-110913800D01*
X91737000Y-110913800D01*
X91737000Y-110913800D01*
G37*
D22*
X86233000Y-117530000D03*
X86233000Y-121230000D03*
D23*
X89408000Y-113919000D03*
D24*
X89408000Y-116459000D03*
D23*
X91694000Y-120904000D03*
D24*
X94234000Y-120904000D03*
X96774000Y-120904000D03*
D11*
X62722000Y-114935000D03*
X60722000Y-114935000D03*
D12*
X75438000Y-122666000D03*
X75438000Y-120666000D03*
X65024000Y-119142000D03*
X65024000Y-121142000D03*
D13*
X72644000Y-109369000D03*
X72644000Y-112119000D03*
D14*
X75438000Y-109898000D03*
X75438000Y-112098000D03*
D15*
X65405000Y-108805000D03*
X65405000Y-110905000D03*
D16*
X67531000Y-114427000D03*
X67531000Y-115697000D03*
X67531000Y-116967000D03*
X67531000Y-118237000D03*
X72931000Y-118237000D03*
X72931000Y-116967000D03*
X72931000Y-115697000D03*
X72931000Y-114427000D03*
D17*
X62357000Y-110236000D03*
X59817000Y-110236000D03*
D18*
X75438000Y-119060000D03*
X75438000Y-117160000D03*
X75438000Y-113858000D03*
X75438000Y-115758000D03*
D10*
G36*
X69807000Y-112605000D02*
X69207000Y-113455000D01*
X68207000Y-113455000D01*
X67607000Y-112605000D01*
X69807000Y-112605000D01*
X69807000Y-112605000D01*
G37*
D19*
X70207000Y-108883000D03*
D20*
X68707000Y-109029500D03*
D19*
X67207000Y-108883000D03*
D21*
X68707000Y-111696500D03*
D10*
G36*
X67607000Y-110786800D02*
X68307000Y-109786800D01*
X69107000Y-109786800D01*
X69807000Y-110786800D01*
X67607000Y-110786800D01*
X67607000Y-110786800D01*
G37*
D22*
X62103000Y-117403000D03*
X62103000Y-121103000D03*
D23*
X65278000Y-113792000D03*
D24*
X65278000Y-116332000D03*
D23*
X67564000Y-120777000D03*
D24*
X70104000Y-120777000D03*
X72644000Y-120777000D03*
D11*
X38846000Y-114935000D03*
X36846000Y-114935000D03*
D12*
X51562000Y-122666000D03*
X51562000Y-120666000D03*
X41148000Y-119142000D03*
X41148000Y-121142000D03*
D13*
X48768000Y-109369000D03*
X48768000Y-112119000D03*
D14*
X51562000Y-109898000D03*
X51562000Y-112098000D03*
D15*
X41529000Y-108805000D03*
X41529000Y-110905000D03*
D16*
X43655000Y-114427000D03*
X43655000Y-115697000D03*
X43655000Y-116967000D03*
X43655000Y-118237000D03*
X49055000Y-118237000D03*
X49055000Y-116967000D03*
X49055000Y-115697000D03*
X49055000Y-114427000D03*
D17*
X38481000Y-110236000D03*
X35941000Y-110236000D03*
D18*
X51562000Y-119060000D03*
X51562000Y-117160000D03*
X51562000Y-113858000D03*
X51562000Y-115758000D03*
D10*
G36*
X45931000Y-112605000D02*
X45331000Y-113455000D01*
X44331000Y-113455000D01*
X43731000Y-112605000D01*
X45931000Y-112605000D01*
X45931000Y-112605000D01*
G37*
D19*
X46331000Y-108883000D03*
D20*
X44831000Y-109029500D03*
D19*
X43331000Y-108883000D03*
D21*
X44831000Y-111696500D03*
D10*
G36*
X43731000Y-110786800D02*
X44431000Y-109786800D01*
X45231000Y-109786800D01*
X45931000Y-110786800D01*
X43731000Y-110786800D01*
X43731000Y-110786800D01*
G37*
D22*
X38227000Y-117403000D03*
X38227000Y-121103000D03*
D23*
X41402000Y-113792000D03*
D24*
X41402000Y-116332000D03*
D23*
X43688000Y-120777000D03*
D24*
X46228000Y-120777000D03*
X48768000Y-120777000D03*
D11*
X110601000Y-91059000D03*
X108601000Y-91059000D03*
D12*
X123317000Y-98790000D03*
X123317000Y-96790000D03*
X112903000Y-95266000D03*
X112903000Y-97266000D03*
D13*
X120523000Y-85493000D03*
X120523000Y-88243000D03*
D14*
X123317000Y-86022000D03*
X123317000Y-88222000D03*
D15*
X113284000Y-84929000D03*
X113284000Y-87029000D03*
D16*
X115410000Y-90551000D03*
X115410000Y-91821000D03*
X115410000Y-93091000D03*
X115410000Y-94361000D03*
X120810000Y-94361000D03*
X120810000Y-93091000D03*
X120810000Y-91821000D03*
X120810000Y-90551000D03*
D17*
X110236000Y-86360000D03*
X107696000Y-86360000D03*
D18*
X123317000Y-95184000D03*
X123317000Y-93284000D03*
X123317000Y-89982000D03*
X123317000Y-91882000D03*
D10*
G36*
X117686000Y-88729000D02*
X117086000Y-89579000D01*
X116086000Y-89579000D01*
X115486000Y-88729000D01*
X117686000Y-88729000D01*
X117686000Y-88729000D01*
G37*
D19*
X118086000Y-85007000D03*
D20*
X116586000Y-85153500D03*
D19*
X115086000Y-85007000D03*
D21*
X116586000Y-87820500D03*
D10*
G36*
X115486000Y-86910800D02*
X116186000Y-85910800D01*
X116986000Y-85910800D01*
X117686000Y-86910800D01*
X115486000Y-86910800D01*
X115486000Y-86910800D01*
G37*
D22*
X109982000Y-93527000D03*
X109982000Y-97227000D03*
D23*
X113157000Y-89916000D03*
D24*
X113157000Y-92456000D03*
D23*
X115443000Y-96901000D03*
D24*
X117983000Y-96901000D03*
X120523000Y-96901000D03*
D11*
X86598000Y-90805000D03*
X84598000Y-90805000D03*
D12*
X99314000Y-98536000D03*
X99314000Y-96536000D03*
X88900000Y-95012000D03*
X88900000Y-97012000D03*
D13*
X96520000Y-85239000D03*
X96520000Y-87989000D03*
D14*
X99314000Y-85768000D03*
X99314000Y-87968000D03*
D15*
X89281000Y-84675000D03*
X89281000Y-86775000D03*
D16*
X91407000Y-90297000D03*
X91407000Y-91567000D03*
X91407000Y-92837000D03*
X91407000Y-94107000D03*
X96807000Y-94107000D03*
X96807000Y-92837000D03*
X96807000Y-91567000D03*
X96807000Y-90297000D03*
D17*
X86233000Y-86106000D03*
X83693000Y-86106000D03*
D18*
X99314000Y-94930000D03*
X99314000Y-93030000D03*
X99314000Y-89728000D03*
X99314000Y-91628000D03*
D10*
G36*
X93683000Y-88475000D02*
X93083000Y-89325000D01*
X92083000Y-89325000D01*
X91483000Y-88475000D01*
X93683000Y-88475000D01*
X93683000Y-88475000D01*
G37*
D19*
X94083000Y-84753000D03*
D20*
X92583000Y-84899500D03*
D19*
X91083000Y-84753000D03*
D21*
X92583000Y-87566500D03*
D10*
G36*
X91483000Y-86656800D02*
X92183000Y-85656800D01*
X92983000Y-85656800D01*
X93683000Y-86656800D01*
X91483000Y-86656800D01*
X91483000Y-86656800D01*
G37*
D22*
X85979000Y-93273000D03*
X85979000Y-96973000D03*
D23*
X89154000Y-89662000D03*
D24*
X89154000Y-92202000D03*
D23*
X91440000Y-96647000D03*
D24*
X93980000Y-96647000D03*
X96520000Y-96647000D03*
D11*
X62849000Y-91186000D03*
X60849000Y-91186000D03*
D12*
X75565000Y-98917000D03*
X75565000Y-96917000D03*
X65151000Y-95393000D03*
X65151000Y-97393000D03*
D13*
X72771000Y-85620000D03*
X72771000Y-88370000D03*
D14*
X75565000Y-86149000D03*
X75565000Y-88349000D03*
D15*
X65532000Y-85056000D03*
X65532000Y-87156000D03*
D16*
X67658000Y-90678000D03*
X67658000Y-91948000D03*
X67658000Y-93218000D03*
X67658000Y-94488000D03*
X73058000Y-94488000D03*
X73058000Y-93218000D03*
X73058000Y-91948000D03*
X73058000Y-90678000D03*
D17*
X62484000Y-86487000D03*
X59944000Y-86487000D03*
D18*
X75565000Y-95311000D03*
X75565000Y-93411000D03*
X75565000Y-90109000D03*
X75565000Y-92009000D03*
D10*
G36*
X69934000Y-88856000D02*
X69334000Y-89706000D01*
X68334000Y-89706000D01*
X67734000Y-88856000D01*
X69934000Y-88856000D01*
X69934000Y-88856000D01*
G37*
D19*
X70334000Y-85134000D03*
D20*
X68834000Y-85280500D03*
D19*
X67334000Y-85134000D03*
D21*
X68834000Y-87947500D03*
D10*
G36*
X67734000Y-87037800D02*
X68434000Y-86037800D01*
X69234000Y-86037800D01*
X69934000Y-87037800D01*
X67734000Y-87037800D01*
X67734000Y-87037800D01*
G37*
D22*
X62230000Y-93654000D03*
X62230000Y-97354000D03*
D23*
X65405000Y-90043000D03*
D24*
X65405000Y-92583000D03*
D23*
X67691000Y-97028000D03*
D24*
X70231000Y-97028000D03*
X72771000Y-97028000D03*
D11*
X38846000Y-91186000D03*
X36846000Y-91186000D03*
D12*
X51562000Y-98917000D03*
X51562000Y-96917000D03*
X41148000Y-95393000D03*
X41148000Y-97393000D03*
D13*
X48768000Y-85620000D03*
X48768000Y-88370000D03*
D14*
X51562000Y-86149000D03*
X51562000Y-88349000D03*
D15*
X41529000Y-85056000D03*
X41529000Y-87156000D03*
D16*
X43655000Y-90678000D03*
X43655000Y-91948000D03*
X43655000Y-93218000D03*
X43655000Y-94488000D03*
X49055000Y-94488000D03*
X49055000Y-93218000D03*
X49055000Y-91948000D03*
X49055000Y-90678000D03*
D17*
X38481000Y-86487000D03*
X35941000Y-86487000D03*
D18*
X51562000Y-95311000D03*
X51562000Y-93411000D03*
X51562000Y-90109000D03*
X51562000Y-92009000D03*
D10*
G36*
X45931000Y-88856000D02*
X45331000Y-89706000D01*
X44331000Y-89706000D01*
X43731000Y-88856000D01*
X45931000Y-88856000D01*
X45931000Y-88856000D01*
G37*
D19*
X46331000Y-85134000D03*
D20*
X44831000Y-85280500D03*
D19*
X43331000Y-85134000D03*
D21*
X44831000Y-87947500D03*
D10*
G36*
X43731000Y-87037800D02*
X44431000Y-86037800D01*
X45231000Y-86037800D01*
X45931000Y-87037800D01*
X43731000Y-87037800D01*
X43731000Y-87037800D01*
G37*
D22*
X38227000Y-93654000D03*
X38227000Y-97354000D03*
D23*
X41402000Y-90043000D03*
D24*
X41402000Y-92583000D03*
D23*
X43688000Y-97028000D03*
D24*
X46228000Y-97028000D03*
X48768000Y-97028000D03*
D23*
X115316000Y-120904000D03*
D24*
X117856000Y-120904000D03*
X120396000Y-120904000D03*
D23*
X113030000Y-113919000D03*
D24*
X113030000Y-116459000D03*
D22*
X109855000Y-117530000D03*
X109855000Y-121230000D03*
D10*
G36*
X117559000Y-112732000D02*
X116959000Y-113582000D01*
X115959000Y-113582000D01*
X115359000Y-112732000D01*
X117559000Y-112732000D01*
X117559000Y-112732000D01*
G37*
D19*
X117959000Y-109010000D03*
D20*
X116459000Y-109156500D03*
D19*
X114959000Y-109010000D03*
D21*
X116459000Y-111823500D03*
D10*
G36*
X115359000Y-110913800D02*
X116059000Y-109913800D01*
X116859000Y-109913800D01*
X117559000Y-110913800D01*
X115359000Y-110913800D01*
X115359000Y-110913800D01*
G37*
D18*
X123190000Y-113985000D03*
X123190000Y-115885000D03*
X123190000Y-119187000D03*
X123190000Y-117287000D03*
D17*
X110109000Y-110363000D03*
X107569000Y-110363000D03*
D16*
X115283000Y-114554000D03*
X115283000Y-115824000D03*
X115283000Y-117094000D03*
X115283000Y-118364000D03*
X120683000Y-118364000D03*
X120683000Y-117094000D03*
X120683000Y-115824000D03*
X120683000Y-114554000D03*
D15*
X113157000Y-108932000D03*
X113157000Y-111032000D03*
D14*
X123190000Y-110025000D03*
X123190000Y-112225000D03*
D13*
X120396000Y-109496000D03*
X120396000Y-112246000D03*
D12*
X112776000Y-119269000D03*
X112776000Y-121269000D03*
X123190000Y-122793000D03*
X123190000Y-120793000D03*
D11*
X110474000Y-115062000D03*
X108474000Y-115062000D03*
D23*
X91567000Y-73025000D03*
D24*
X94107000Y-73025000D03*
X96647000Y-73025000D03*
D23*
X89281000Y-66040000D03*
D24*
X89281000Y-68580000D03*
D22*
X86106000Y-69651000D03*
X86106000Y-73351000D03*
D10*
G36*
X93810000Y-64853000D02*
X93210000Y-65703000D01*
X92210000Y-65703000D01*
X91610000Y-64853000D01*
X93810000Y-64853000D01*
X93810000Y-64853000D01*
G37*
D19*
X94210000Y-61131000D03*
D20*
X92710000Y-61277500D03*
D19*
X91210000Y-61131000D03*
D21*
X92710000Y-63944500D03*
D10*
G36*
X91610000Y-63034800D02*
X92310000Y-62034800D01*
X93110000Y-62034800D01*
X93810000Y-63034800D01*
X91610000Y-63034800D01*
X91610000Y-63034800D01*
G37*
D18*
X99441000Y-66106000D03*
X99441000Y-68006000D03*
X99441000Y-71308000D03*
X99441000Y-69408000D03*
D17*
X86360000Y-62484000D03*
X83820000Y-62484000D03*
D16*
X91534000Y-66675000D03*
X91534000Y-67945000D03*
X91534000Y-69215000D03*
X91534000Y-70485000D03*
X96934000Y-70485000D03*
X96934000Y-69215000D03*
X96934000Y-67945000D03*
X96934000Y-66675000D03*
D15*
X89408000Y-61053000D03*
X89408000Y-63153000D03*
D14*
X99441000Y-62146000D03*
X99441000Y-64346000D03*
D13*
X96647000Y-61617000D03*
X96647000Y-64367000D03*
D12*
X89027000Y-71390000D03*
X89027000Y-73390000D03*
X99441000Y-74914000D03*
X99441000Y-72914000D03*
D11*
X86725000Y-67183000D03*
X84725000Y-67183000D03*
D23*
X67437000Y-73406000D03*
D24*
X69977000Y-73406000D03*
X72517000Y-73406000D03*
D23*
X65151000Y-66421000D03*
D24*
X65151000Y-68961000D03*
D22*
X61976000Y-70032000D03*
X61976000Y-73732000D03*
D10*
G36*
X69680000Y-65234000D02*
X69080000Y-66084000D01*
X68080000Y-66084000D01*
X67480000Y-65234000D01*
X69680000Y-65234000D01*
X69680000Y-65234000D01*
G37*
D19*
X70080000Y-61512000D03*
D20*
X68580000Y-61658500D03*
D19*
X67080000Y-61512000D03*
D21*
X68580000Y-64325500D03*
D10*
G36*
X67480000Y-63415800D02*
X68180000Y-62415800D01*
X68980000Y-62415800D01*
X69680000Y-63415800D01*
X67480000Y-63415800D01*
X67480000Y-63415800D01*
G37*
D18*
X75311000Y-66487000D03*
X75311000Y-68387000D03*
X75311000Y-71689000D03*
X75311000Y-69789000D03*
D17*
X62230000Y-62865000D03*
X59690000Y-62865000D03*
D16*
X67404000Y-67056000D03*
X67404000Y-68326000D03*
X67404000Y-69596000D03*
X67404000Y-70866000D03*
X72804000Y-70866000D03*
X72804000Y-69596000D03*
X72804000Y-68326000D03*
X72804000Y-67056000D03*
D15*
X65278000Y-61434000D03*
X65278000Y-63534000D03*
D14*
X75311000Y-62527000D03*
X75311000Y-64727000D03*
D13*
X72517000Y-61998000D03*
X72517000Y-64748000D03*
D12*
X64897000Y-71771000D03*
X64897000Y-73771000D03*
X75311000Y-75295000D03*
X75311000Y-73295000D03*
D11*
X62595000Y-67564000D03*
X60595000Y-67564000D03*
D23*
X43561000Y-73025000D03*
D24*
X46101000Y-73025000D03*
X48641000Y-73025000D03*
D23*
X41275000Y-66040000D03*
D24*
X41275000Y-68580000D03*
D22*
X38100000Y-69651000D03*
X38100000Y-73351000D03*
D10*
G36*
X45804000Y-64853000D02*
X45204000Y-65703000D01*
X44204000Y-65703000D01*
X43604000Y-64853000D01*
X45804000Y-64853000D01*
X45804000Y-64853000D01*
G37*
D19*
X46204000Y-61131000D03*
D20*
X44704000Y-61277500D03*
D19*
X43204000Y-61131000D03*
D21*
X44704000Y-63944500D03*
D10*
G36*
X43604000Y-63034800D02*
X44304000Y-62034800D01*
X45104000Y-62034800D01*
X45804000Y-63034800D01*
X43604000Y-63034800D01*
X43604000Y-63034800D01*
G37*
D18*
X51435000Y-66106000D03*
X51435000Y-68006000D03*
X51435000Y-71308000D03*
X51435000Y-69408000D03*
D17*
X38354000Y-62484000D03*
X35814000Y-62484000D03*
D16*
X43528000Y-66675000D03*
X43528000Y-67945000D03*
X43528000Y-69215000D03*
X43528000Y-70485000D03*
X48928000Y-70485000D03*
X48928000Y-69215000D03*
X48928000Y-67945000D03*
X48928000Y-66675000D03*
D15*
X41402000Y-61053000D03*
X41402000Y-63153000D03*
D14*
X51435000Y-62146000D03*
X51435000Y-64346000D03*
D13*
X48641000Y-61617000D03*
X48641000Y-64367000D03*
D12*
X41021000Y-71390000D03*
X41021000Y-73390000D03*
X51435000Y-74914000D03*
X51435000Y-72914000D03*
D11*
X38719000Y-67183000D03*
X36719000Y-67183000D03*
D23*
X115443000Y-49403000D03*
D24*
X117983000Y-49403000D03*
X120523000Y-49403000D03*
D23*
X113157000Y-42418000D03*
D24*
X113157000Y-44958000D03*
D22*
X109982000Y-46029000D03*
X109982000Y-49729000D03*
D10*
G36*
X117686000Y-41231000D02*
X117086000Y-42081000D01*
X116086000Y-42081000D01*
X115486000Y-41231000D01*
X117686000Y-41231000D01*
X117686000Y-41231000D01*
G37*
D19*
X118086000Y-37509000D03*
D20*
X116586000Y-37655500D03*
D19*
X115086000Y-37509000D03*
D21*
X116586000Y-40322500D03*
D10*
G36*
X115486000Y-39412800D02*
X116186000Y-38412800D01*
X116986000Y-38412800D01*
X117686000Y-39412800D01*
X115486000Y-39412800D01*
X115486000Y-39412800D01*
G37*
D18*
X123317000Y-42484000D03*
X123317000Y-44384000D03*
X123317000Y-47686000D03*
X123317000Y-45786000D03*
D17*
X110236000Y-38862000D03*
X107696000Y-38862000D03*
D16*
X115410000Y-43053000D03*
X115410000Y-44323000D03*
X115410000Y-45593000D03*
X115410000Y-46863000D03*
X120810000Y-46863000D03*
X120810000Y-45593000D03*
X120810000Y-44323000D03*
X120810000Y-43053000D03*
D15*
X113284000Y-37431000D03*
X113284000Y-39531000D03*
D14*
X123317000Y-38524000D03*
X123317000Y-40724000D03*
D13*
X120523000Y-37995000D03*
X120523000Y-40745000D03*
D12*
X112903000Y-47768000D03*
X112903000Y-49768000D03*
X123317000Y-51292000D03*
X123317000Y-49292000D03*
D11*
X110601000Y-43561000D03*
X108601000Y-43561000D03*
D23*
X91567000Y-49403000D03*
D24*
X94107000Y-49403000D03*
X96647000Y-49403000D03*
D23*
X89281000Y-42418000D03*
D24*
X89281000Y-44958000D03*
D22*
X86106000Y-46029000D03*
X86106000Y-49729000D03*
D10*
G36*
X93810000Y-41231000D02*
X93210000Y-42081000D01*
X92210000Y-42081000D01*
X91610000Y-41231000D01*
X93810000Y-41231000D01*
X93810000Y-41231000D01*
G37*
D19*
X94210000Y-37509000D03*
D20*
X92710000Y-37655500D03*
D19*
X91210000Y-37509000D03*
D21*
X92710000Y-40322500D03*
D10*
G36*
X91610000Y-39412800D02*
X92310000Y-38412800D01*
X93110000Y-38412800D01*
X93810000Y-39412800D01*
X91610000Y-39412800D01*
X91610000Y-39412800D01*
G37*
D18*
X99441000Y-42484000D03*
X99441000Y-44384000D03*
X99441000Y-47686000D03*
X99441000Y-45786000D03*
D17*
X86360000Y-38862000D03*
X83820000Y-38862000D03*
D16*
X91534000Y-43053000D03*
X91534000Y-44323000D03*
X91534000Y-45593000D03*
X91534000Y-46863000D03*
X96934000Y-46863000D03*
X96934000Y-45593000D03*
X96934000Y-44323000D03*
X96934000Y-43053000D03*
D15*
X89408000Y-37431000D03*
X89408000Y-39531000D03*
D14*
X99441000Y-38524000D03*
X99441000Y-40724000D03*
D13*
X96647000Y-37995000D03*
X96647000Y-40745000D03*
D12*
X89027000Y-47768000D03*
X89027000Y-49768000D03*
X99441000Y-51292000D03*
X99441000Y-49292000D03*
D11*
X86725000Y-43561000D03*
X84725000Y-43561000D03*
X110347000Y-67437000D03*
X108347000Y-67437000D03*
D12*
X123063000Y-75168000D03*
X123063000Y-73168000D03*
X112649000Y-71644000D03*
X112649000Y-73644000D03*
D13*
X120269000Y-61871000D03*
X120269000Y-64621000D03*
D14*
X123063000Y-62400000D03*
X123063000Y-64600000D03*
D15*
X113030000Y-61307000D03*
X113030000Y-63407000D03*
D16*
X115156000Y-66929000D03*
X115156000Y-68199000D03*
X115156000Y-69469000D03*
X115156000Y-70739000D03*
X120556000Y-70739000D03*
X120556000Y-69469000D03*
X120556000Y-68199000D03*
X120556000Y-66929000D03*
D17*
X109982000Y-62738000D03*
X107442000Y-62738000D03*
D18*
X123063000Y-71562000D03*
X123063000Y-69662000D03*
X123063000Y-66360000D03*
X123063000Y-68260000D03*
D10*
G36*
X117432000Y-65107000D02*
X116832000Y-65957000D01*
X115832000Y-65957000D01*
X115232000Y-65107000D01*
X117432000Y-65107000D01*
X117432000Y-65107000D01*
G37*
D19*
X117832000Y-61385000D03*
D20*
X116332000Y-61531500D03*
D19*
X114832000Y-61385000D03*
D21*
X116332000Y-64198500D03*
D10*
G36*
X115232000Y-63288800D02*
X115932000Y-62288800D01*
X116732000Y-62288800D01*
X117432000Y-63288800D01*
X115232000Y-63288800D01*
X115232000Y-63288800D01*
G37*
D22*
X109728000Y-69905000D03*
X109728000Y-73605000D03*
D23*
X112903000Y-66294000D03*
D24*
X112903000Y-68834000D03*
D23*
X115189000Y-73279000D03*
D24*
X117729000Y-73279000D03*
X120269000Y-73279000D03*
D23*
X67818000Y-49149000D03*
D24*
X70358000Y-49149000D03*
X72898000Y-49149000D03*
D23*
X65532000Y-42164000D03*
D24*
X65532000Y-44704000D03*
D22*
X62357000Y-45775000D03*
X62357000Y-49475000D03*
D10*
G36*
X70061000Y-40977000D02*
X69461000Y-41827000D01*
X68461000Y-41827000D01*
X67861000Y-40977000D01*
X70061000Y-40977000D01*
X70061000Y-40977000D01*
G37*
D19*
X70461000Y-37255000D03*
D20*
X68961000Y-37401500D03*
D19*
X67461000Y-37255000D03*
D21*
X68961000Y-40068500D03*
D10*
G36*
X67861000Y-39158800D02*
X68561000Y-38158800D01*
X69361000Y-38158800D01*
X70061000Y-39158800D01*
X67861000Y-39158800D01*
X67861000Y-39158800D01*
G37*
D18*
X75692000Y-42230000D03*
X75692000Y-44130000D03*
X75692000Y-47432000D03*
X75692000Y-45532000D03*
D17*
X62611000Y-38608000D03*
X60071000Y-38608000D03*
D16*
X67785000Y-42799000D03*
X67785000Y-44069000D03*
X67785000Y-45339000D03*
X67785000Y-46609000D03*
X73185000Y-46609000D03*
X73185000Y-45339000D03*
X73185000Y-44069000D03*
X73185000Y-42799000D03*
D15*
X65659000Y-37177000D03*
X65659000Y-39277000D03*
D14*
X75692000Y-38270000D03*
X75692000Y-40470000D03*
D13*
X72898000Y-37741000D03*
X72898000Y-40491000D03*
D12*
X65278000Y-47514000D03*
X65278000Y-49514000D03*
X75692000Y-51038000D03*
X75692000Y-49038000D03*
D11*
X62976000Y-43307000D03*
X60976000Y-43307000D03*
X38846000Y-43434000D03*
X36846000Y-43434000D03*
D12*
X51562000Y-51165000D03*
X51562000Y-49165000D03*
X41148000Y-47641000D03*
X41148000Y-49641000D03*
D13*
X48768000Y-37868000D03*
X48768000Y-40618000D03*
D14*
X51562000Y-38397000D03*
X51562000Y-40597000D03*
D15*
X41529000Y-37304000D03*
X41529000Y-39404000D03*
D16*
X43655000Y-42926000D03*
X43655000Y-44196000D03*
X43655000Y-45466000D03*
X43655000Y-46736000D03*
X49055000Y-46736000D03*
X49055000Y-45466000D03*
X49055000Y-44196000D03*
X49055000Y-42926000D03*
D17*
X38481000Y-38735000D03*
X35941000Y-38735000D03*
D18*
X51562000Y-47559000D03*
X51562000Y-45659000D03*
X51562000Y-42357000D03*
X51562000Y-44257000D03*
D10*
G36*
X45931000Y-41104000D02*
X45331000Y-41954000D01*
X44331000Y-41954000D01*
X43731000Y-41104000D01*
X45931000Y-41104000D01*
X45931000Y-41104000D01*
G37*
D19*
X46331000Y-37382000D03*
D20*
X44831000Y-37528500D03*
D19*
X43331000Y-37382000D03*
D21*
X44831000Y-40195500D03*
D10*
G36*
X43731000Y-39285800D02*
X44431000Y-38285800D01*
X45231000Y-38285800D01*
X45931000Y-39285800D01*
X43731000Y-39285800D01*
X43731000Y-39285800D01*
G37*
D22*
X38227000Y-45902000D03*
X38227000Y-49602000D03*
D23*
X41402000Y-42291000D03*
D24*
X41402000Y-44831000D03*
D23*
X43688000Y-49276000D03*
D24*
X46228000Y-49276000D03*
X48768000Y-49276000D03*
M02*
