M48
;DRILL file {KiCad 4.0.7} date Thu May 24 16:02:12 2018
;FORMAT={-:-/ absolute / inch / decimal}
FMAT,2
INCH,TZ
T1C0.025
T2C0.031
T3C0.039
%
G90
G05
M72
T1
X3.79Y-4.82
X4.39Y-4.675
X4.755Y-4.785
X4.815Y-4.675
T2
X3.915Y-4.405
X3.915Y-4.5971
X4.09Y-4.29
X4.09Y-4.39
X4.09Y-4.49
X4.09Y-4.59
X4.39Y-4.29
X4.39Y-4.39
X4.39Y-4.49
X4.39Y-4.59
T3
X3.935Y-4.12
X4.035Y-4.12
X4.825Y-4.195
X4.925Y-4.195
X5.04Y-4.335
X5.04Y-4.435
X5.13Y-4.61
X5.23Y-4.61
X5.33Y-4.61
T0
M30
