G04 #@! TF.FileFunction,Legend,Bot*
%FSLAX46Y46*%
G04 Gerber Fmt 4.6, Leading zero omitted, Abs format (unit mm)*
G04 Created by KiCad (PCBNEW 4.0.7) date Thu May 24 16:02:08 2018*
%MOMM*%
%LPD*%
G01*
G04 APERTURE LIST*
%ADD10C,0.150000*%
%ADD11C,0.187500*%
G04 APERTURE END LIST*
D10*
D11*
X107535286Y-103573432D02*
X108142429Y-103573432D01*
X108213857Y-103537718D01*
X108249571Y-103502003D01*
X108285286Y-103430575D01*
X108285286Y-103323432D01*
X108249571Y-103252003D01*
X107999571Y-103573432D02*
X108035286Y-103502003D01*
X108035286Y-103359146D01*
X107999571Y-103287718D01*
X107963857Y-103252003D01*
X107892429Y-103216289D01*
X107678143Y-103216289D01*
X107606714Y-103252003D01*
X107571000Y-103287718D01*
X107535286Y-103359146D01*
X107535286Y-103502003D01*
X107571000Y-103573432D01*
X108035286Y-103930574D02*
X107535286Y-103930574D01*
X107285286Y-103930574D02*
X107321000Y-103894860D01*
X107356714Y-103930574D01*
X107321000Y-103966289D01*
X107285286Y-103930574D01*
X107356714Y-103930574D01*
X107535286Y-104180575D02*
X107535286Y-104466289D01*
X107285286Y-104287717D02*
X107928143Y-104287717D01*
X107999571Y-104323432D01*
X108035286Y-104394860D01*
X108035286Y-104466289D01*
X108035286Y-104716288D02*
X107285286Y-104716288D01*
X108035286Y-105037717D02*
X107642429Y-105037717D01*
X107571000Y-105002003D01*
X107535286Y-104930574D01*
X107535286Y-104823431D01*
X107571000Y-104752003D01*
X107606714Y-104716288D01*
X107535286Y-105716288D02*
X108035286Y-105716288D01*
X107535286Y-105394859D02*
X107928143Y-105394859D01*
X107999571Y-105430574D01*
X108035286Y-105502002D01*
X108035286Y-105609145D01*
X107999571Y-105680574D01*
X107963857Y-105716288D01*
X108035286Y-106073430D02*
X107285286Y-106073430D01*
X107571000Y-106073430D02*
X107535286Y-106144859D01*
X107535286Y-106287716D01*
X107571000Y-106359145D01*
X107606714Y-106394859D01*
X107678143Y-106430573D01*
X107892429Y-106430573D01*
X107963857Y-106394859D01*
X107999571Y-106359145D01*
X108035286Y-106287716D01*
X108035286Y-106144859D01*
X107999571Y-106073430D01*
X107963857Y-106752001D02*
X107999571Y-106787716D01*
X108035286Y-106752001D01*
X107999571Y-106716287D01*
X107963857Y-106752001D01*
X108035286Y-106752001D01*
X107999571Y-107430573D02*
X108035286Y-107359144D01*
X108035286Y-107216287D01*
X107999571Y-107144859D01*
X107963857Y-107109144D01*
X107892429Y-107073430D01*
X107678143Y-107073430D01*
X107606714Y-107109144D01*
X107571000Y-107144859D01*
X107535286Y-107216287D01*
X107535286Y-107359144D01*
X107571000Y-107430573D01*
X108035286Y-107859144D02*
X107999571Y-107787716D01*
X107963857Y-107752001D01*
X107892429Y-107716287D01*
X107678143Y-107716287D01*
X107606714Y-107752001D01*
X107571000Y-107787716D01*
X107535286Y-107859144D01*
X107535286Y-107966287D01*
X107571000Y-108037716D01*
X107606714Y-108073430D01*
X107678143Y-108109144D01*
X107892429Y-108109144D01*
X107963857Y-108073430D01*
X107999571Y-108037716D01*
X108035286Y-107966287D01*
X108035286Y-107859144D01*
X108035286Y-108430572D02*
X107535286Y-108430572D01*
X107606714Y-108430572D02*
X107571000Y-108466287D01*
X107535286Y-108537715D01*
X107535286Y-108644858D01*
X107571000Y-108716287D01*
X107642429Y-108752001D01*
X108035286Y-108752001D01*
X107642429Y-108752001D02*
X107571000Y-108787715D01*
X107535286Y-108859144D01*
X107535286Y-108966287D01*
X107571000Y-109037715D01*
X107642429Y-109073430D01*
X108035286Y-109073430D01*
X107249571Y-109966287D02*
X108213857Y-109323430D01*
X107999571Y-110537715D02*
X108035286Y-110466286D01*
X108035286Y-110323429D01*
X107999571Y-110252001D01*
X107963857Y-110216286D01*
X107892429Y-110180572D01*
X107678143Y-110180572D01*
X107606714Y-110216286D01*
X107571000Y-110252001D01*
X107535286Y-110323429D01*
X107535286Y-110466286D01*
X107571000Y-110537715D01*
X108035286Y-110966286D02*
X107999571Y-110894858D01*
X107963857Y-110859143D01*
X107892429Y-110823429D01*
X107678143Y-110823429D01*
X107606714Y-110859143D01*
X107571000Y-110894858D01*
X107535286Y-110966286D01*
X107535286Y-111073429D01*
X107571000Y-111144858D01*
X107606714Y-111180572D01*
X107678143Y-111216286D01*
X107892429Y-111216286D01*
X107963857Y-111180572D01*
X107999571Y-111144858D01*
X108035286Y-111073429D01*
X108035286Y-110966286D01*
X107535286Y-111537714D02*
X108035286Y-111537714D01*
X107606714Y-111537714D02*
X107571000Y-111573429D01*
X107535286Y-111644857D01*
X107535286Y-111752000D01*
X107571000Y-111823429D01*
X107642429Y-111859143D01*
X108035286Y-111859143D01*
X108035286Y-112537714D02*
X107285286Y-112537714D01*
X107999571Y-112537714D02*
X108035286Y-112466285D01*
X108035286Y-112323428D01*
X107999571Y-112252000D01*
X107963857Y-112216285D01*
X107892429Y-112180571D01*
X107678143Y-112180571D01*
X107606714Y-112216285D01*
X107571000Y-112252000D01*
X107535286Y-112323428D01*
X107535286Y-112466285D01*
X107571000Y-112537714D01*
X108035286Y-113216285D02*
X107642429Y-113216285D01*
X107571000Y-113180571D01*
X107535286Y-113109142D01*
X107535286Y-112966285D01*
X107571000Y-112894856D01*
X107999571Y-113216285D02*
X108035286Y-113144856D01*
X108035286Y-112966285D01*
X107999571Y-112894856D01*
X107928143Y-112859142D01*
X107856714Y-112859142D01*
X107785286Y-112894856D01*
X107749571Y-112966285D01*
X107749571Y-113144856D01*
X107713857Y-113216285D01*
X107999571Y-113894856D02*
X108035286Y-113823427D01*
X108035286Y-113680570D01*
X107999571Y-113609142D01*
X107963857Y-113573427D01*
X107892429Y-113537713D01*
X107678143Y-113537713D01*
X107606714Y-113573427D01*
X107571000Y-113609142D01*
X107535286Y-113680570D01*
X107535286Y-113823427D01*
X107571000Y-113894856D01*
X107249571Y-114751999D02*
X108213857Y-114109142D01*
X108035286Y-115109141D02*
X107999571Y-115037713D01*
X107963857Y-115001998D01*
X107892429Y-114966284D01*
X107678143Y-114966284D01*
X107606714Y-115001998D01*
X107571000Y-115037713D01*
X107535286Y-115109141D01*
X107535286Y-115216284D01*
X107571000Y-115287713D01*
X107606714Y-115323427D01*
X107678143Y-115359141D01*
X107892429Y-115359141D01*
X107963857Y-115323427D01*
X107999571Y-115287713D01*
X108035286Y-115216284D01*
X108035286Y-115109141D01*
X107535286Y-115680569D02*
X108285286Y-115680569D01*
X107571000Y-115680569D02*
X107535286Y-115751998D01*
X107535286Y-115894855D01*
X107571000Y-115966284D01*
X107606714Y-116001998D01*
X107678143Y-116037712D01*
X107892429Y-116037712D01*
X107963857Y-116001998D01*
X107999571Y-115966284D01*
X108035286Y-115894855D01*
X108035286Y-115751998D01*
X107999571Y-115680569D01*
X107999571Y-116644855D02*
X108035286Y-116573426D01*
X108035286Y-116430569D01*
X107999571Y-116359140D01*
X107928143Y-116323426D01*
X107642429Y-116323426D01*
X107571000Y-116359140D01*
X107535286Y-116430569D01*
X107535286Y-116573426D01*
X107571000Y-116644855D01*
X107642429Y-116680569D01*
X107713857Y-116680569D01*
X107785286Y-116323426D01*
X107535286Y-117001997D02*
X108035286Y-117001997D01*
X107606714Y-117001997D02*
X107571000Y-117037712D01*
X107535286Y-117109140D01*
X107535286Y-117216283D01*
X107571000Y-117287712D01*
X107642429Y-117323426D01*
X108035286Y-117323426D01*
X107821000Y-117644854D02*
X107821000Y-118001997D01*
X108035286Y-117573426D02*
X107285286Y-117823426D01*
X108035286Y-118073426D01*
X107999571Y-118287711D02*
X108035286Y-118394854D01*
X108035286Y-118573425D01*
X107999571Y-118644854D01*
X107963857Y-118680568D01*
X107892429Y-118716283D01*
X107821000Y-118716283D01*
X107749571Y-118680568D01*
X107713857Y-118644854D01*
X107678143Y-118573425D01*
X107642429Y-118430568D01*
X107606714Y-118359140D01*
X107571000Y-118323425D01*
X107499571Y-118287711D01*
X107428143Y-118287711D01*
X107356714Y-118323425D01*
X107321000Y-118359140D01*
X107285286Y-118430568D01*
X107285286Y-118609140D01*
X107321000Y-118716283D01*
X107285286Y-118930569D02*
X107285286Y-119359140D01*
X108035286Y-119144854D02*
X107285286Y-119144854D01*
X137853568Y-114774286D02*
X137853568Y-115381429D01*
X137889282Y-115452857D01*
X137924997Y-115488571D01*
X137996425Y-115524286D01*
X138103568Y-115524286D01*
X138174997Y-115488571D01*
X137853568Y-115238571D02*
X137924997Y-115274286D01*
X138067854Y-115274286D01*
X138139282Y-115238571D01*
X138174997Y-115202857D01*
X138210711Y-115131429D01*
X138210711Y-114917143D01*
X138174997Y-114845714D01*
X138139282Y-114810000D01*
X138067854Y-114774286D01*
X137924997Y-114774286D01*
X137853568Y-114810000D01*
X137496426Y-115274286D02*
X137496426Y-114774286D01*
X137496426Y-114524286D02*
X137532140Y-114560000D01*
X137496426Y-114595714D01*
X137460711Y-114560000D01*
X137496426Y-114524286D01*
X137496426Y-114595714D01*
X137246425Y-114774286D02*
X136960711Y-114774286D01*
X137139283Y-114524286D02*
X137139283Y-115167143D01*
X137103568Y-115238571D01*
X137032140Y-115274286D01*
X136960711Y-115274286D01*
X136710712Y-115274286D02*
X136710712Y-114524286D01*
X136389283Y-115274286D02*
X136389283Y-114881429D01*
X136424997Y-114810000D01*
X136496426Y-114774286D01*
X136603569Y-114774286D01*
X136674997Y-114810000D01*
X136710712Y-114845714D01*
X135710712Y-114774286D02*
X135710712Y-115274286D01*
X136032141Y-114774286D02*
X136032141Y-115167143D01*
X135996426Y-115238571D01*
X135924998Y-115274286D01*
X135817855Y-115274286D01*
X135746426Y-115238571D01*
X135710712Y-115202857D01*
X135353570Y-115274286D02*
X135353570Y-114524286D01*
X135353570Y-114810000D02*
X135282141Y-114774286D01*
X135139284Y-114774286D01*
X135067855Y-114810000D01*
X135032141Y-114845714D01*
X134996427Y-114917143D01*
X134996427Y-115131429D01*
X135032141Y-115202857D01*
X135067855Y-115238571D01*
X135139284Y-115274286D01*
X135282141Y-115274286D01*
X135353570Y-115238571D01*
X134674999Y-115202857D02*
X134639284Y-115238571D01*
X134674999Y-115274286D01*
X134710713Y-115238571D01*
X134674999Y-115202857D01*
X134674999Y-115274286D01*
X133996427Y-115238571D02*
X134067856Y-115274286D01*
X134210713Y-115274286D01*
X134282141Y-115238571D01*
X134317856Y-115202857D01*
X134353570Y-115131429D01*
X134353570Y-114917143D01*
X134317856Y-114845714D01*
X134282141Y-114810000D01*
X134210713Y-114774286D01*
X134067856Y-114774286D01*
X133996427Y-114810000D01*
X133567856Y-115274286D02*
X133639284Y-115238571D01*
X133674999Y-115202857D01*
X133710713Y-115131429D01*
X133710713Y-114917143D01*
X133674999Y-114845714D01*
X133639284Y-114810000D01*
X133567856Y-114774286D01*
X133460713Y-114774286D01*
X133389284Y-114810000D01*
X133353570Y-114845714D01*
X133317856Y-114917143D01*
X133317856Y-115131429D01*
X133353570Y-115202857D01*
X133389284Y-115238571D01*
X133460713Y-115274286D01*
X133567856Y-115274286D01*
X132996428Y-115274286D02*
X132996428Y-114774286D01*
X132996428Y-114845714D02*
X132960713Y-114810000D01*
X132889285Y-114774286D01*
X132782142Y-114774286D01*
X132710713Y-114810000D01*
X132674999Y-114881429D01*
X132674999Y-115274286D01*
X132674999Y-114881429D02*
X132639285Y-114810000D01*
X132567856Y-114774286D01*
X132460713Y-114774286D01*
X132389285Y-114810000D01*
X132353570Y-114881429D01*
X132353570Y-115274286D01*
X131460713Y-114488571D02*
X132103570Y-115452857D01*
X130889285Y-115238571D02*
X130960714Y-115274286D01*
X131103571Y-115274286D01*
X131174999Y-115238571D01*
X131210714Y-115202857D01*
X131246428Y-115131429D01*
X131246428Y-114917143D01*
X131210714Y-114845714D01*
X131174999Y-114810000D01*
X131103571Y-114774286D01*
X130960714Y-114774286D01*
X130889285Y-114810000D01*
X130460714Y-115274286D02*
X130532142Y-115238571D01*
X130567857Y-115202857D01*
X130603571Y-115131429D01*
X130603571Y-114917143D01*
X130567857Y-114845714D01*
X130532142Y-114810000D01*
X130460714Y-114774286D01*
X130353571Y-114774286D01*
X130282142Y-114810000D01*
X130246428Y-114845714D01*
X130210714Y-114917143D01*
X130210714Y-115131429D01*
X130246428Y-115202857D01*
X130282142Y-115238571D01*
X130353571Y-115274286D01*
X130460714Y-115274286D01*
X129889286Y-114774286D02*
X129889286Y-115274286D01*
X129889286Y-114845714D02*
X129853571Y-114810000D01*
X129782143Y-114774286D01*
X129675000Y-114774286D01*
X129603571Y-114810000D01*
X129567857Y-114881429D01*
X129567857Y-115274286D01*
X128889286Y-115274286D02*
X128889286Y-114524286D01*
X128889286Y-115238571D02*
X128960715Y-115274286D01*
X129103572Y-115274286D01*
X129175000Y-115238571D01*
X129210715Y-115202857D01*
X129246429Y-115131429D01*
X129246429Y-114917143D01*
X129210715Y-114845714D01*
X129175000Y-114810000D01*
X129103572Y-114774286D01*
X128960715Y-114774286D01*
X128889286Y-114810000D01*
X128210715Y-115274286D02*
X128210715Y-114881429D01*
X128246429Y-114810000D01*
X128317858Y-114774286D01*
X128460715Y-114774286D01*
X128532144Y-114810000D01*
X128210715Y-115238571D02*
X128282144Y-115274286D01*
X128460715Y-115274286D01*
X128532144Y-115238571D01*
X128567858Y-115167143D01*
X128567858Y-115095714D01*
X128532144Y-115024286D01*
X128460715Y-114988571D01*
X128282144Y-114988571D01*
X128210715Y-114952857D01*
X127532144Y-115238571D02*
X127603573Y-115274286D01*
X127746430Y-115274286D01*
X127817858Y-115238571D01*
X127853573Y-115202857D01*
X127889287Y-115131429D01*
X127889287Y-114917143D01*
X127853573Y-114845714D01*
X127817858Y-114810000D01*
X127746430Y-114774286D01*
X127603573Y-114774286D01*
X127532144Y-114810000D01*
X126675001Y-114488571D02*
X127317858Y-115452857D01*
X126317859Y-115274286D02*
X126389287Y-115238571D01*
X126425002Y-115202857D01*
X126460716Y-115131429D01*
X126460716Y-114917143D01*
X126425002Y-114845714D01*
X126389287Y-114810000D01*
X126317859Y-114774286D01*
X126210716Y-114774286D01*
X126139287Y-114810000D01*
X126103573Y-114845714D01*
X126067859Y-114917143D01*
X126067859Y-115131429D01*
X126103573Y-115202857D01*
X126139287Y-115238571D01*
X126210716Y-115274286D01*
X126317859Y-115274286D01*
X125746431Y-114774286D02*
X125746431Y-115524286D01*
X125746431Y-114810000D02*
X125675002Y-114774286D01*
X125532145Y-114774286D01*
X125460716Y-114810000D01*
X125425002Y-114845714D01*
X125389288Y-114917143D01*
X125389288Y-115131429D01*
X125425002Y-115202857D01*
X125460716Y-115238571D01*
X125532145Y-115274286D01*
X125675002Y-115274286D01*
X125746431Y-115238571D01*
X124782145Y-115238571D02*
X124853574Y-115274286D01*
X124996431Y-115274286D01*
X125067860Y-115238571D01*
X125103574Y-115167143D01*
X125103574Y-114881429D01*
X125067860Y-114810000D01*
X124996431Y-114774286D01*
X124853574Y-114774286D01*
X124782145Y-114810000D01*
X124746431Y-114881429D01*
X124746431Y-114952857D01*
X125103574Y-115024286D01*
X124425003Y-114774286D02*
X124425003Y-115274286D01*
X124425003Y-114845714D02*
X124389288Y-114810000D01*
X124317860Y-114774286D01*
X124210717Y-114774286D01*
X124139288Y-114810000D01*
X124103574Y-114881429D01*
X124103574Y-115274286D01*
X123782146Y-115060000D02*
X123425003Y-115060000D01*
X123853574Y-115274286D02*
X123603574Y-114524286D01*
X123353574Y-115274286D01*
X123139289Y-115238571D02*
X123032146Y-115274286D01*
X122853575Y-115274286D01*
X122782146Y-115238571D01*
X122746432Y-115202857D01*
X122710717Y-115131429D01*
X122710717Y-115060000D01*
X122746432Y-114988571D01*
X122782146Y-114952857D01*
X122853575Y-114917143D01*
X122996432Y-114881429D01*
X123067860Y-114845714D01*
X123103575Y-114810000D01*
X123139289Y-114738571D01*
X123139289Y-114667143D01*
X123103575Y-114595714D01*
X123067860Y-114560000D01*
X122996432Y-114524286D01*
X122817860Y-114524286D01*
X122710717Y-114560000D01*
X122496431Y-114524286D02*
X122067860Y-114524286D01*
X122282146Y-115274286D02*
X122282146Y-114524286D01*
M02*
