G04 #@! TF.FileFunction,Legend,Top*
%FSLAX46Y46*%
G04 Gerber Fmt 4.6, Leading zero omitted, Abs format (unit mm)*
G04 Created by KiCad (PCBNEW 4.0.7) date Fri May 25 09:25:36 2018*
%MOMM*%
%LPD*%
G01*
G04 APERTURE LIST*
%ADD10C,0.150000*%
%ADD11C,0.120000*%
G04 APERTURE END LIST*
D10*
D11*
X108696000Y-107636000D02*
G75*
G02X106696000Y-107636000I-1000000J0D01*
G01*
X106696000Y-107636000D02*
X105046000Y-107636000D01*
X105046000Y-107636000D02*
X105046000Y-117916000D01*
X105046000Y-117916000D02*
X110346000Y-117916000D01*
X110346000Y-117916000D02*
X110346000Y-107636000D01*
X110346000Y-107636000D02*
X108696000Y-107636000D01*
X102556000Y-107576000D02*
X102556000Y-117976000D01*
X102556000Y-117976000D02*
X112836000Y-117976000D01*
X112836000Y-117976000D02*
X112836000Y-107576000D01*
X112836000Y-107576000D02*
X102556000Y-107576000D01*
X105322000Y-110244000D02*
X105322000Y-111244000D01*
X107022000Y-111244000D02*
X107022000Y-110244000D01*
X113784000Y-119038000D02*
X112784000Y-119038000D01*
X112784000Y-120738000D02*
X113784000Y-120738000D01*
X106895000Y-115689000D02*
X106895000Y-114689000D01*
X105195000Y-114689000D02*
X105195000Y-115689000D01*
X110346000Y-120430000D02*
X106096000Y-120430000D01*
X110346000Y-118330000D02*
X106096000Y-118330000D01*
X110346000Y-120430000D02*
X110346000Y-118330000D01*
X113346000Y-107972000D02*
X114746000Y-107972000D01*
X114746000Y-107972000D02*
X114746000Y-105172000D01*
X113346000Y-107972000D02*
X113346000Y-105172000D01*
X107264000Y-104178000D02*
X107264000Y-102578000D01*
X107264000Y-102578000D02*
X104664000Y-102578000D01*
X107264000Y-104178000D02*
X104664000Y-104178000D01*
X98679000Y-105918000D02*
X103759000Y-105918000D01*
X98679000Y-101478000D02*
X103759000Y-101478000D01*
X103759000Y-107818000D02*
X98679000Y-107818000D01*
X103759000Y-107818000D02*
X103759000Y-101478000D01*
X98679000Y-107818000D02*
X98679000Y-101478000D01*
X114926000Y-115224000D02*
X114926000Y-116424000D01*
X113166000Y-116424000D02*
X113166000Y-115224000D01*
X113166000Y-111852000D02*
X113166000Y-110652000D01*
X114926000Y-110652000D02*
X114926000Y-111852000D01*
X109036000Y-106682000D02*
X107836000Y-106682000D01*
X107836000Y-106682000D02*
X107836000Y-103982000D01*
X112636000Y-102682000D02*
X112636000Y-106682000D01*
X112636000Y-106682000D02*
X111436000Y-106682000D01*
X123960000Y-112102000D02*
X124960000Y-112102000D01*
X124960000Y-110402000D02*
X123960000Y-110402000D01*
X137326000Y-117483000D02*
X137326000Y-118483000D01*
X139026000Y-118483000D02*
X139026000Y-117483000D01*
X128612000Y-116959000D02*
X128612000Y-115959000D01*
X126912000Y-115959000D02*
X126912000Y-116959000D01*
X136432000Y-104411000D02*
X136432000Y-108661000D01*
X134332000Y-104411000D02*
X134332000Y-108661000D01*
X136432000Y-104411000D02*
X134332000Y-104411000D01*
X137476000Y-109115000D02*
X138876000Y-109115000D01*
X138876000Y-109115000D02*
X138876000Y-106315000D01*
X137476000Y-109115000D02*
X137476000Y-106315000D01*
X128943000Y-104572000D02*
X127343000Y-104572000D01*
X127343000Y-104572000D02*
X127343000Y-107172000D01*
X128943000Y-104572000D02*
X128943000Y-107172000D01*
D10*
X130894000Y-110074000D02*
X130894000Y-110124000D01*
X135044000Y-110074000D02*
X135044000Y-110219000D01*
X135044000Y-115224000D02*
X135044000Y-115079000D01*
X130894000Y-115224000D02*
X130894000Y-115079000D01*
X130894000Y-110074000D02*
X135044000Y-110074000D01*
X130894000Y-115224000D02*
X135044000Y-115224000D01*
X130894000Y-110124000D02*
X129494000Y-110124000D01*
D11*
X121285000Y-107823000D02*
X126365000Y-107823000D01*
X121285000Y-103383000D02*
X126365000Y-103383000D01*
X126365000Y-109723000D02*
X121285000Y-109723000D01*
X126365000Y-109723000D02*
X126365000Y-103383000D01*
X121285000Y-109723000D02*
X121285000Y-103383000D01*
X139056000Y-113827000D02*
X139056000Y-115027000D01*
X137296000Y-115027000D02*
X137296000Y-113827000D01*
X137296000Y-111725000D02*
X137296000Y-110525000D01*
X139056000Y-110525000D02*
X139056000Y-111725000D01*
X130245000Y-108460000D02*
X129045000Y-108460000D01*
X129045000Y-108460000D02*
X129045000Y-105760000D01*
X133845000Y-104460000D02*
X133845000Y-108460000D01*
X133845000Y-108460000D02*
X132645000Y-108460000D01*
X126641000Y-118270000D02*
X126641000Y-112520000D01*
X126641000Y-112520000D02*
X123041000Y-112520000D01*
X123041000Y-112520000D02*
X123041000Y-118270000D01*
X101966000Y-111127000D02*
X101966000Y-117527000D01*
X96916000Y-111127000D02*
X96916000Y-117527000D01*
X96916000Y-111127000D02*
G75*
G02X101966000Y-111127000I2525000J0D01*
G01*
X96916000Y-117527000D02*
G75*
G03X101966000Y-117527000I2525000J0D01*
G01*
X126686000Y-113979000D02*
X129346000Y-113979000D01*
X126686000Y-111379000D02*
X126686000Y-113979000D01*
X129346000Y-111379000D02*
X129346000Y-113979000D01*
X126686000Y-111379000D02*
X129346000Y-111379000D01*
X126686000Y-110109000D02*
X126686000Y-108779000D01*
X126686000Y-108779000D02*
X128016000Y-108779000D01*
X136712000Y-118424000D02*
X136712000Y-115764000D01*
X131572000Y-118424000D02*
X136712000Y-118424000D01*
X131572000Y-115764000D02*
X136712000Y-115764000D01*
X131572000Y-118424000D02*
X131572000Y-115764000D01*
X130302000Y-118424000D02*
X128972000Y-118424000D01*
X128972000Y-118424000D02*
X128972000Y-117094000D01*
D10*
X108029143Y-110910666D02*
X108076762Y-110958285D01*
X108124381Y-111101142D01*
X108124381Y-111196380D01*
X108076762Y-111339238D01*
X107981524Y-111434476D01*
X107886286Y-111482095D01*
X107695810Y-111529714D01*
X107552952Y-111529714D01*
X107362476Y-111482095D01*
X107267238Y-111434476D01*
X107172000Y-111339238D01*
X107124381Y-111196380D01*
X107124381Y-111101142D01*
X107172000Y-110958285D01*
X107219619Y-110910666D01*
X108124381Y-109958285D02*
X108124381Y-110529714D01*
X108124381Y-110244000D02*
X107124381Y-110244000D01*
X107267238Y-110339238D01*
X107362476Y-110434476D01*
X107410095Y-110529714D01*
X113117334Y-118745143D02*
X113069715Y-118792762D01*
X112926858Y-118840381D01*
X112831620Y-118840381D01*
X112688762Y-118792762D01*
X112593524Y-118697524D01*
X112545905Y-118602286D01*
X112498286Y-118411810D01*
X112498286Y-118268952D01*
X112545905Y-118078476D01*
X112593524Y-117983238D01*
X112688762Y-117888000D01*
X112831620Y-117840381D01*
X112926858Y-117840381D01*
X113069715Y-117888000D01*
X113117334Y-117935619D01*
X113498286Y-117935619D02*
X113545905Y-117888000D01*
X113641143Y-117840381D01*
X113879239Y-117840381D01*
X113974477Y-117888000D01*
X114022096Y-117935619D01*
X114069715Y-118030857D01*
X114069715Y-118126095D01*
X114022096Y-118268952D01*
X113450667Y-118840381D01*
X114069715Y-118840381D01*
X112688762Y-122090381D02*
X112117333Y-122090381D01*
X112403047Y-122090381D02*
X112403047Y-121090381D01*
X112307809Y-121233238D01*
X112212571Y-121328476D01*
X112117333Y-121376095D01*
X113117333Y-121423714D02*
X113117333Y-122090381D01*
X113117333Y-121518952D02*
X113164952Y-121471333D01*
X113260190Y-121423714D01*
X113403048Y-121423714D01*
X113498286Y-121471333D01*
X113545905Y-121566571D01*
X113545905Y-122090381D01*
X114355429Y-121566571D02*
X114022095Y-121566571D01*
X114022095Y-122090381D02*
X114022095Y-121090381D01*
X114498286Y-121090381D01*
X107902143Y-115355666D02*
X107949762Y-115403285D01*
X107997381Y-115546142D01*
X107997381Y-115641380D01*
X107949762Y-115784238D01*
X107854524Y-115879476D01*
X107759286Y-115927095D01*
X107568810Y-115974714D01*
X107425952Y-115974714D01*
X107235476Y-115927095D01*
X107140238Y-115879476D01*
X107045000Y-115784238D01*
X106997381Y-115641380D01*
X106997381Y-115546142D01*
X107045000Y-115403285D01*
X107092619Y-115355666D01*
X106997381Y-115022333D02*
X106997381Y-114403285D01*
X107378333Y-114736619D01*
X107378333Y-114593761D01*
X107425952Y-114498523D01*
X107473571Y-114450904D01*
X107568810Y-114403285D01*
X107806905Y-114403285D01*
X107902143Y-114450904D01*
X107949762Y-114498523D01*
X107997381Y-114593761D01*
X107997381Y-114879476D01*
X107949762Y-114974714D01*
X107902143Y-115022333D01*
X107529334Y-122287143D02*
X107481715Y-122334762D01*
X107338858Y-122382381D01*
X107243620Y-122382381D01*
X107100762Y-122334762D01*
X107005524Y-122239524D01*
X106957905Y-122144286D01*
X106910286Y-121953810D01*
X106910286Y-121810952D01*
X106957905Y-121620476D01*
X107005524Y-121525238D01*
X107100762Y-121430000D01*
X107243620Y-121382381D01*
X107338858Y-121382381D01*
X107481715Y-121430000D01*
X107529334Y-121477619D01*
X108386477Y-121715714D02*
X108386477Y-122382381D01*
X108148381Y-121334762D02*
X107910286Y-122049048D01*
X108529334Y-122049048D01*
X116048381Y-106814857D02*
X116048381Y-107291048D01*
X115048381Y-107291048D01*
X115524571Y-106481524D02*
X115524571Y-106148190D01*
X116048381Y-106005333D02*
X116048381Y-106481524D01*
X115048381Y-106481524D01*
X115048381Y-106005333D01*
X116048381Y-105576762D02*
X115048381Y-105576762D01*
X115048381Y-105338667D01*
X115096000Y-105195809D01*
X115191238Y-105100571D01*
X115286476Y-105052952D01*
X115476952Y-105005333D01*
X115619810Y-105005333D01*
X115810286Y-105052952D01*
X115905524Y-105100571D01*
X116000762Y-105195809D01*
X116048381Y-105338667D01*
X116048381Y-105576762D01*
X104925905Y-105430381D02*
X104925905Y-104430381D01*
X105164000Y-104430381D01*
X105306858Y-104478000D01*
X105402096Y-104573238D01*
X105449715Y-104668476D01*
X105497334Y-104858952D01*
X105497334Y-105001810D01*
X105449715Y-105192286D01*
X105402096Y-105287524D01*
X105306858Y-105382762D01*
X105164000Y-105430381D01*
X104925905Y-105430381D01*
X105830667Y-104430381D02*
X106449715Y-104430381D01*
X106116381Y-104811333D01*
X106259239Y-104811333D01*
X106354477Y-104858952D01*
X106402096Y-104906571D01*
X106449715Y-105001810D01*
X106449715Y-105239905D01*
X106402096Y-105335143D01*
X106354477Y-105382762D01*
X106259239Y-105430381D01*
X105973524Y-105430381D01*
X105878286Y-105382762D01*
X105830667Y-105335143D01*
X100480905Y-109000381D02*
X100480905Y-108000381D01*
X100861858Y-108000381D01*
X100957096Y-108048000D01*
X101004715Y-108095619D01*
X101052334Y-108190857D01*
X101052334Y-108333714D01*
X101004715Y-108428952D01*
X100957096Y-108476571D01*
X100861858Y-108524190D01*
X100480905Y-108524190D01*
X102004715Y-109000381D02*
X101433286Y-109000381D01*
X101719000Y-109000381D02*
X101719000Y-108000381D01*
X101623762Y-108143238D01*
X101528524Y-108238476D01*
X101433286Y-108286095D01*
X115343619Y-117062095D02*
X115296000Y-117014476D01*
X115248381Y-116919238D01*
X115248381Y-116681142D01*
X115296000Y-116585904D01*
X115343619Y-116538285D01*
X115438857Y-116490666D01*
X115534095Y-116490666D01*
X115676952Y-116538285D01*
X116248381Y-117109714D01*
X116248381Y-116490666D01*
X115343619Y-116109714D02*
X115296000Y-116062095D01*
X115248381Y-115966857D01*
X115248381Y-115728761D01*
X115296000Y-115633523D01*
X115343619Y-115585904D01*
X115438857Y-115538285D01*
X115534095Y-115538285D01*
X115676952Y-115585904D01*
X116248381Y-116157333D01*
X116248381Y-115538285D01*
X115248381Y-114919238D02*
X115248381Y-114823999D01*
X115296000Y-114728761D01*
X115343619Y-114681142D01*
X115438857Y-114633523D01*
X115629333Y-114585904D01*
X115867429Y-114585904D01*
X116057905Y-114633523D01*
X116153143Y-114681142D01*
X116200762Y-114728761D01*
X116248381Y-114823999D01*
X116248381Y-114919238D01*
X116200762Y-115014476D01*
X116153143Y-115062095D01*
X116057905Y-115109714D01*
X115867429Y-115157333D01*
X115629333Y-115157333D01*
X115438857Y-115109714D01*
X115343619Y-115062095D01*
X115296000Y-115014476D01*
X115248381Y-114919238D01*
X116248381Y-111371047D02*
X116248381Y-111942476D01*
X116248381Y-111656762D02*
X115248381Y-111656762D01*
X115391238Y-111752000D01*
X115486476Y-111847238D01*
X115534095Y-111942476D01*
X116248381Y-110942476D02*
X115248381Y-110942476D01*
X115867429Y-110847238D02*
X116248381Y-110561523D01*
X115581714Y-110561523D02*
X115962667Y-110942476D01*
X107188381Y-106113905D02*
X107997905Y-106113905D01*
X108093143Y-106066286D01*
X108140762Y-106018667D01*
X108188381Y-105923429D01*
X108188381Y-105732952D01*
X108140762Y-105637714D01*
X108093143Y-105590095D01*
X107997905Y-105542476D01*
X107188381Y-105542476D01*
X108188381Y-104542476D02*
X108188381Y-105113905D01*
X108188381Y-104828191D02*
X107188381Y-104828191D01*
X107331238Y-104923429D01*
X107426476Y-105018667D01*
X107474095Y-105113905D01*
X121293334Y-111609143D02*
X121245715Y-111656762D01*
X121102858Y-111704381D01*
X121007620Y-111704381D01*
X120864762Y-111656762D01*
X120769524Y-111561524D01*
X120721905Y-111466286D01*
X120674286Y-111275810D01*
X120674286Y-111132952D01*
X120721905Y-110942476D01*
X120769524Y-110847238D01*
X120864762Y-110752000D01*
X121007620Y-110704381D01*
X121102858Y-110704381D01*
X121245715Y-110752000D01*
X121293334Y-110799619D01*
X122198096Y-110704381D02*
X121721905Y-110704381D01*
X121674286Y-111180571D01*
X121721905Y-111132952D01*
X121817143Y-111085333D01*
X122055239Y-111085333D01*
X122150477Y-111132952D01*
X122198096Y-111180571D01*
X122245715Y-111275810D01*
X122245715Y-111513905D01*
X122198096Y-111609143D01*
X122150477Y-111656762D01*
X122055239Y-111704381D01*
X121817143Y-111704381D01*
X121721905Y-111656762D01*
X121674286Y-111609143D01*
X140033143Y-118149666D02*
X140080762Y-118197285D01*
X140128381Y-118340142D01*
X140128381Y-118435380D01*
X140080762Y-118578238D01*
X139985524Y-118673476D01*
X139890286Y-118721095D01*
X139699810Y-118768714D01*
X139556952Y-118768714D01*
X139366476Y-118721095D01*
X139271238Y-118673476D01*
X139176000Y-118578238D01*
X139128381Y-118435380D01*
X139128381Y-118340142D01*
X139176000Y-118197285D01*
X139223619Y-118149666D01*
X139128381Y-117292523D02*
X139128381Y-117483000D01*
X139176000Y-117578238D01*
X139223619Y-117625857D01*
X139366476Y-117721095D01*
X139556952Y-117768714D01*
X139937905Y-117768714D01*
X140033143Y-117721095D01*
X140080762Y-117673476D01*
X140128381Y-117578238D01*
X140128381Y-117387761D01*
X140080762Y-117292523D01*
X140033143Y-117244904D01*
X139937905Y-117197285D01*
X139699810Y-117197285D01*
X139604571Y-117244904D01*
X139556952Y-117292523D01*
X139509333Y-117387761D01*
X139509333Y-117578238D01*
X139556952Y-117673476D01*
X139604571Y-117721095D01*
X139699810Y-117768714D01*
X128119143Y-119625666D02*
X128166762Y-119673285D01*
X128214381Y-119816142D01*
X128214381Y-119911380D01*
X128166762Y-120054238D01*
X128071524Y-120149476D01*
X127976286Y-120197095D01*
X127785810Y-120244714D01*
X127642952Y-120244714D01*
X127452476Y-120197095D01*
X127357238Y-120149476D01*
X127262000Y-120054238D01*
X127214381Y-119911380D01*
X127214381Y-119816142D01*
X127262000Y-119673285D01*
X127309619Y-119625666D01*
X127214381Y-119292333D02*
X127214381Y-118625666D01*
X128214381Y-119054238D01*
X135215334Y-104418143D02*
X135167715Y-104465762D01*
X135024858Y-104513381D01*
X134929620Y-104513381D01*
X134786762Y-104465762D01*
X134691524Y-104370524D01*
X134643905Y-104275286D01*
X134596286Y-104084810D01*
X134596286Y-103941952D01*
X134643905Y-103751476D01*
X134691524Y-103656238D01*
X134786762Y-103561000D01*
X134929620Y-103513381D01*
X135024858Y-103513381D01*
X135167715Y-103561000D01*
X135215334Y-103608619D01*
X135786762Y-103941952D02*
X135691524Y-103894333D01*
X135643905Y-103846714D01*
X135596286Y-103751476D01*
X135596286Y-103703857D01*
X135643905Y-103608619D01*
X135691524Y-103561000D01*
X135786762Y-103513381D01*
X135977239Y-103513381D01*
X136072477Y-103561000D01*
X136120096Y-103608619D01*
X136167715Y-103703857D01*
X136167715Y-103751476D01*
X136120096Y-103846714D01*
X136072477Y-103894333D01*
X135977239Y-103941952D01*
X135786762Y-103941952D01*
X135691524Y-103989571D01*
X135643905Y-104037190D01*
X135596286Y-104132429D01*
X135596286Y-104322905D01*
X135643905Y-104418143D01*
X135691524Y-104465762D01*
X135786762Y-104513381D01*
X135977239Y-104513381D01*
X136072477Y-104465762D01*
X136120096Y-104418143D01*
X136167715Y-104322905D01*
X136167715Y-104132429D01*
X136120096Y-104037190D01*
X136072477Y-103989571D01*
X135977239Y-103941952D01*
X140078381Y-108053095D02*
X139078381Y-108053095D01*
X139078381Y-107815000D01*
X139126000Y-107672142D01*
X139221238Y-107576904D01*
X139316476Y-107529285D01*
X139506952Y-107481666D01*
X139649810Y-107481666D01*
X139840286Y-107529285D01*
X139935524Y-107576904D01*
X140030762Y-107672142D01*
X140078381Y-107815000D01*
X140078381Y-108053095D01*
X139173619Y-107100714D02*
X139126000Y-107053095D01*
X139078381Y-106957857D01*
X139078381Y-106719761D01*
X139126000Y-106624523D01*
X139173619Y-106576904D01*
X139268857Y-106529285D01*
X139364095Y-106529285D01*
X139506952Y-106576904D01*
X140078381Y-107148333D01*
X140078381Y-106529285D01*
X128595381Y-103910095D02*
X127595381Y-103910095D01*
X127595381Y-103672000D01*
X127643000Y-103529142D01*
X127738238Y-103433904D01*
X127833476Y-103386285D01*
X128023952Y-103338666D01*
X128166810Y-103338666D01*
X128357286Y-103386285D01*
X128452524Y-103433904D01*
X128547762Y-103529142D01*
X128595381Y-103672000D01*
X128595381Y-103910095D01*
X127928714Y-102481523D02*
X128595381Y-102481523D01*
X127547762Y-102719619D02*
X128262048Y-102957714D01*
X128262048Y-102338666D01*
X131992810Y-113101381D02*
X131992810Y-112101381D01*
X133040429Y-113006143D02*
X132992810Y-113053762D01*
X132849953Y-113101381D01*
X132754715Y-113101381D01*
X132611857Y-113053762D01*
X132516619Y-112958524D01*
X132469000Y-112863286D01*
X132421381Y-112672810D01*
X132421381Y-112529952D01*
X132469000Y-112339476D01*
X132516619Y-112244238D01*
X132611857Y-112149000D01*
X132754715Y-112101381D01*
X132849953Y-112101381D01*
X132992810Y-112149000D01*
X133040429Y-112196619D01*
X133421381Y-112196619D02*
X133469000Y-112149000D01*
X133564238Y-112101381D01*
X133802334Y-112101381D01*
X133897572Y-112149000D01*
X133945191Y-112196619D01*
X133992810Y-112291857D01*
X133992810Y-112387095D01*
X133945191Y-112529952D01*
X133373762Y-113101381D01*
X133992810Y-113101381D01*
X124356905Y-104005381D02*
X124356905Y-103005381D01*
X124737858Y-103005381D01*
X124833096Y-103053000D01*
X124880715Y-103100619D01*
X124928334Y-103195857D01*
X124928334Y-103338714D01*
X124880715Y-103433952D01*
X124833096Y-103481571D01*
X124737858Y-103529190D01*
X124356905Y-103529190D01*
X125309286Y-103100619D02*
X125356905Y-103053000D01*
X125452143Y-103005381D01*
X125690239Y-103005381D01*
X125785477Y-103053000D01*
X125833096Y-103100619D01*
X125880715Y-103195857D01*
X125880715Y-103291095D01*
X125833096Y-103433952D01*
X125261667Y-104005381D01*
X125880715Y-104005381D01*
X140278381Y-114593666D02*
X139802190Y-114927000D01*
X140278381Y-115165095D02*
X139278381Y-115165095D01*
X139278381Y-114784142D01*
X139326000Y-114688904D01*
X139373619Y-114641285D01*
X139468857Y-114593666D01*
X139611714Y-114593666D01*
X139706952Y-114641285D01*
X139754571Y-114688904D01*
X139802190Y-114784142D01*
X139802190Y-115165095D01*
X139278381Y-114260333D02*
X139278381Y-113641285D01*
X139659333Y-113974619D01*
X139659333Y-113831761D01*
X139706952Y-113736523D01*
X139754571Y-113688904D01*
X139849810Y-113641285D01*
X140087905Y-113641285D01*
X140183143Y-113688904D01*
X140230762Y-113736523D01*
X140278381Y-113831761D01*
X140278381Y-114117476D01*
X140230762Y-114212714D01*
X140183143Y-114260333D01*
X140278381Y-111291666D02*
X139802190Y-111625000D01*
X140278381Y-111863095D02*
X139278381Y-111863095D01*
X139278381Y-111482142D01*
X139326000Y-111386904D01*
X139373619Y-111339285D01*
X139468857Y-111291666D01*
X139611714Y-111291666D01*
X139706952Y-111339285D01*
X139754571Y-111386904D01*
X139802190Y-111482142D01*
X139802190Y-111863095D01*
X139611714Y-110434523D02*
X140278381Y-110434523D01*
X139230762Y-110672619D02*
X139945048Y-110910714D01*
X139945048Y-110291666D01*
X130683095Y-102632381D02*
X130683095Y-103441905D01*
X130730714Y-103537143D01*
X130778333Y-103584762D01*
X130873571Y-103632381D01*
X131064048Y-103632381D01*
X131159286Y-103584762D01*
X131206905Y-103537143D01*
X131254524Y-103441905D01*
X131254524Y-102632381D01*
X131683095Y-102727619D02*
X131730714Y-102680000D01*
X131825952Y-102632381D01*
X132064048Y-102632381D01*
X132159286Y-102680000D01*
X132206905Y-102727619D01*
X132254524Y-102822857D01*
X132254524Y-102918095D01*
X132206905Y-103060952D01*
X131635476Y-103632381D01*
X132254524Y-103632381D01*
X121493381Y-116379524D02*
X122493381Y-115712857D01*
X121493381Y-115712857D02*
X122493381Y-116379524D01*
X121588619Y-115379524D02*
X121541000Y-115331905D01*
X121493381Y-115236667D01*
X121493381Y-114998571D01*
X121541000Y-114903333D01*
X121588619Y-114855714D01*
X121683857Y-114808095D01*
X121779095Y-114808095D01*
X121921952Y-114855714D01*
X122493381Y-115427143D01*
X122493381Y-114808095D01*
X96273143Y-116636524D02*
X96320762Y-116684143D01*
X96368381Y-116827000D01*
X96368381Y-116922238D01*
X96320762Y-117065096D01*
X96225524Y-117160334D01*
X96130286Y-117207953D01*
X95939810Y-117255572D01*
X95796952Y-117255572D01*
X95606476Y-117207953D01*
X95511238Y-117160334D01*
X95416000Y-117065096D01*
X95368381Y-116922238D01*
X95368381Y-116827000D01*
X95416000Y-116684143D01*
X95463619Y-116636524D01*
X96368381Y-115636524D02*
X95892190Y-115969858D01*
X96368381Y-116207953D02*
X95368381Y-116207953D01*
X95368381Y-115827000D01*
X95416000Y-115731762D01*
X95463619Y-115684143D01*
X95558857Y-115636524D01*
X95701714Y-115636524D01*
X95796952Y-115684143D01*
X95844571Y-115731762D01*
X95892190Y-115827000D01*
X95892190Y-116207953D01*
X95892190Y-115017477D02*
X96368381Y-115017477D01*
X95368381Y-115350810D02*
X95892190Y-115017477D01*
X95368381Y-114684143D01*
X96320762Y-114398429D02*
X96368381Y-114255572D01*
X96368381Y-114017476D01*
X96320762Y-113922238D01*
X96273143Y-113874619D01*
X96177905Y-113827000D01*
X96082667Y-113827000D01*
X95987429Y-113874619D01*
X95939810Y-113922238D01*
X95892190Y-114017476D01*
X95844571Y-114207953D01*
X95796952Y-114303191D01*
X95749333Y-114350810D01*
X95654095Y-114398429D01*
X95558857Y-114398429D01*
X95463619Y-114350810D01*
X95416000Y-114303191D01*
X95368381Y-114207953D01*
X95368381Y-113969857D01*
X95416000Y-113827000D01*
X95368381Y-113541286D02*
X95368381Y-112969857D01*
X96368381Y-113255572D02*
X95368381Y-113255572D01*
X96082667Y-112684143D02*
X96082667Y-112207952D01*
X96368381Y-112779381D02*
X95368381Y-112446048D01*
X96368381Y-112112714D01*
X96368381Y-111303190D02*
X96368381Y-111779381D01*
X95368381Y-111779381D01*
M02*
