G04 #@! TF.FileFunction,Copper,L1,Top,Signal*
%FSLAX46Y46*%
G04 Gerber Fmt 4.6, Leading zero omitted, Abs format (unit mm)*
G04 Created by KiCad (PCBNEW 4.0.7) date Thu May 24 16:02:08 2018*
%MOMM*%
%LPD*%
G01*
G04 APERTURE LIST*
%ADD10C,0.150000*%
%ADD11R,1.600000X1.600000*%
%ADD12O,1.600000X1.600000*%
%ADD13R,1.250000X1.000000*%
%ADD14R,1.000000X1.250000*%
%ADD15R,1.950000X1.500000*%
%ADD16R,1.200000X1.200000*%
%ADD17R,0.800000X0.900000*%
%ADD18O,1.510000X3.010000*%
%ADD19R,1.300000X0.700000*%
%ADD20R,1.000000X1.500000*%
%ADD21R,1.000000X1.800000*%
%ADD22R,2.200000X1.840000*%
%ADD23R,1.500000X1.950000*%
%ADD24R,0.900000X0.800000*%
%ADD25R,1.550000X0.600000*%
%ADD26R,2.400000X2.000000*%
%ADD27C,1.500000*%
%ADD28R,1.700000X1.700000*%
%ADD29O,1.700000X1.700000*%
%ADD30C,0.889000*%
%ADD31C,0.254000*%
G04 APERTURE END LIST*
D10*
D11*
X103886000Y-108966000D03*
D12*
X111506000Y-116586000D03*
X103886000Y-111506000D03*
X111506000Y-114046000D03*
X103886000Y-114046000D03*
X111506000Y-111506000D03*
X103886000Y-116586000D03*
X111506000Y-108966000D03*
D13*
X106172000Y-111744000D03*
X106172000Y-109744000D03*
D14*
X112284000Y-119888000D03*
X114284000Y-119888000D03*
D13*
X106045000Y-114189000D03*
X106045000Y-116189000D03*
D15*
X109071000Y-119380000D03*
X106321000Y-119380000D03*
D16*
X114046000Y-105072000D03*
X114046000Y-107272000D03*
D17*
X106714000Y-103378000D03*
X104614000Y-103378000D03*
D18*
X102489000Y-104648000D03*
X99949000Y-104648000D03*
D19*
X114046000Y-116774000D03*
X114046000Y-114874000D03*
X114046000Y-110302000D03*
X114046000Y-112202000D03*
D10*
G36*
X111336000Y-107144000D02*
X110736000Y-107994000D01*
X109736000Y-107994000D01*
X109136000Y-107144000D01*
X111336000Y-107144000D01*
X111336000Y-107144000D01*
G37*
D20*
X111736000Y-103422000D03*
D21*
X110236000Y-103568500D03*
D20*
X108736000Y-103422000D03*
D22*
X110236000Y-106235500D03*
D10*
G36*
X109136000Y-105325800D02*
X109836000Y-104325800D01*
X110636000Y-104325800D01*
X111336000Y-105325800D01*
X109136000Y-105325800D01*
X109136000Y-105325800D01*
G37*
D14*
X125460000Y-111252000D03*
X123460000Y-111252000D03*
D13*
X138176000Y-118983000D03*
X138176000Y-116983000D03*
X127762000Y-115459000D03*
X127762000Y-117459000D03*
D23*
X135382000Y-105686000D03*
X135382000Y-108436000D03*
D16*
X138176000Y-106215000D03*
X138176000Y-108415000D03*
D24*
X128143000Y-105122000D03*
X128143000Y-107222000D03*
D25*
X130269000Y-110744000D03*
X130269000Y-112014000D03*
X130269000Y-113284000D03*
X130269000Y-114554000D03*
X135669000Y-114554000D03*
X135669000Y-113284000D03*
X135669000Y-112014000D03*
X135669000Y-110744000D03*
D18*
X125095000Y-106553000D03*
X122555000Y-106553000D03*
D19*
X138176000Y-115377000D03*
X138176000Y-113477000D03*
X138176000Y-110175000D03*
X138176000Y-112075000D03*
D10*
G36*
X132545000Y-108922000D02*
X131945000Y-109772000D01*
X130945000Y-109772000D01*
X130345000Y-108922000D01*
X132545000Y-108922000D01*
X132545000Y-108922000D01*
G37*
D20*
X132945000Y-105200000D03*
D21*
X131445000Y-105346500D03*
D20*
X129945000Y-105200000D03*
D22*
X131445000Y-108013500D03*
D10*
G36*
X130345000Y-107103800D02*
X131045000Y-106103800D01*
X131845000Y-106103800D01*
X132545000Y-107103800D01*
X130345000Y-107103800D01*
X130345000Y-107103800D01*
G37*
D26*
X124841000Y-113720000D03*
X124841000Y-117420000D03*
D27*
X99441000Y-111887000D03*
X99441000Y-116767000D03*
D28*
X128016000Y-110109000D03*
D29*
X128016000Y-112649000D03*
D28*
X130302000Y-117094000D03*
D29*
X132842000Y-117094000D03*
X135382000Y-117094000D03*
D30*
X96266000Y-122428000D03*
X111506000Y-118745000D03*
X120777000Y-121539000D03*
X122301000Y-118745000D03*
D31*
X103886000Y-108966000D02*
X104394000Y-108458000D01*
X103886000Y-108966000D02*
X104394000Y-108458000D01*
X106045000Y-116189000D02*
X106045000Y-116205000D01*
X106045000Y-116205000D02*
X105664000Y-116586000D01*
X105664000Y-116586000D02*
X103886000Y-116586000D01*
X110236000Y-107569000D02*
X108331000Y-107569000D01*
X108331000Y-107569000D02*
X106172000Y-109728000D01*
X106172000Y-109728000D02*
X106172000Y-109744000D01*
X106172000Y-109744000D02*
X106172000Y-109728000D01*
X106172000Y-109728000D02*
X107188000Y-110744000D01*
X107188000Y-110744000D02*
X107188000Y-112649000D01*
X107188000Y-112649000D02*
X107061000Y-112776000D01*
X107061000Y-112776000D02*
X107061000Y-115189000D01*
X107061000Y-115189000D02*
X106045000Y-116205000D01*
X106045000Y-116205000D02*
X106045000Y-116189000D01*
X103870000Y-119126000D02*
X103886000Y-119126000D01*
X103886000Y-119126000D02*
X104140000Y-119380000D01*
X104140000Y-119380000D02*
X106321000Y-119380000D01*
X131445000Y-108013500D02*
X131445000Y-108077000D01*
X131445000Y-108077000D02*
X131826000Y-108458000D01*
X131826000Y-108458000D02*
X135382000Y-108458000D01*
X135382000Y-108458000D02*
X135382000Y-108436000D01*
X131445000Y-108013500D02*
X129222500Y-108013500D01*
X128651000Y-108585000D02*
X123444000Y-108585000D01*
X129222500Y-108013500D02*
X128651000Y-108585000D01*
X122555000Y-106553000D02*
X123444000Y-107442000D01*
X123444000Y-107442000D02*
X123444000Y-108585000D01*
X123444000Y-108585000D02*
X123444000Y-111252000D01*
X123444000Y-111252000D02*
X123460000Y-111252000D01*
X127762000Y-117459000D02*
X127762000Y-117221000D01*
X127762000Y-117221000D02*
X130269000Y-114714000D01*
X130269000Y-114714000D02*
X130269000Y-114554000D01*
X127889000Y-117205000D02*
X127889000Y-117221000D01*
X123444000Y-111252000D02*
X123460000Y-111252000D01*
X110236000Y-106235500D02*
X106362500Y-106235500D01*
X106362500Y-106235500D02*
X105918000Y-106680000D01*
X103886000Y-116586000D02*
X104648000Y-116586000D01*
X105918000Y-106680000D02*
X99060000Y-106680000D01*
X99822000Y-104394000D02*
X99060000Y-105156000D01*
X99060000Y-105156000D02*
X99060000Y-106680000D01*
X110236000Y-104825800D02*
X110236000Y-104902000D01*
X110236000Y-104825800D02*
X110236000Y-106235500D01*
X110236000Y-104825800D02*
X110236000Y-103568500D01*
X103886000Y-116586000D02*
X103886000Y-119126000D01*
X103886000Y-119126000D02*
X103822500Y-119126000D01*
X131445000Y-109347000D02*
X131445000Y-114046000D01*
X131445000Y-114046000D02*
X130937000Y-114554000D01*
X130937000Y-114554000D02*
X130269000Y-114554000D01*
X103886000Y-111506000D02*
X99822000Y-111506000D01*
X99822000Y-111506000D02*
X99441000Y-111887000D01*
X103886000Y-111506000D02*
X105918000Y-111506000D01*
X105918000Y-111506000D02*
X106172000Y-111760000D01*
X106172000Y-111760000D02*
X106172000Y-111744000D01*
X114747000Y-116774000D02*
X115189000Y-116332000D01*
X115189000Y-116332000D02*
X115189000Y-101981000D01*
X115189000Y-101981000D02*
X97282000Y-101981000D01*
X97282000Y-101981000D02*
X97155000Y-102108000D01*
X97155000Y-102108000D02*
X97155000Y-121031000D01*
X97155000Y-121031000D02*
X115316000Y-121031000D01*
X115316000Y-121031000D02*
X115697000Y-120650000D01*
X115697000Y-120650000D02*
X115697000Y-101473000D01*
X115697000Y-101473000D02*
X96774000Y-101473000D01*
X96774000Y-101473000D02*
X96647000Y-101600000D01*
X96647000Y-101600000D02*
X96647000Y-121666000D01*
X96647000Y-121666000D02*
X96647000Y-121539000D01*
X96647000Y-121539000D02*
X116078000Y-121539000D01*
X116078000Y-121539000D02*
X116205000Y-121412000D01*
X116205000Y-121412000D02*
X116205000Y-100965000D01*
X116205000Y-100965000D02*
X96139000Y-100965000D01*
X96139000Y-100965000D02*
X96139000Y-122047000D01*
X96139000Y-122047000D02*
X96266000Y-122174000D01*
X96266000Y-122174000D02*
X96266000Y-122428000D01*
X114046000Y-116774000D02*
X114747000Y-116774000D01*
X111506000Y-118745000D02*
X112284000Y-119523000D01*
X112284000Y-119523000D02*
X112284000Y-119888000D01*
X112331500Y-119888000D02*
X112268000Y-119888000D01*
X112268000Y-119888000D02*
X111506000Y-119126000D01*
X111506000Y-119126000D02*
X111506000Y-116586000D01*
X114236500Y-119888000D02*
X114300000Y-119888000D01*
X114300000Y-119888000D02*
X114554000Y-119634000D01*
X114554000Y-119634000D02*
X114554000Y-116776500D01*
X103886000Y-114046000D02*
X102162000Y-114046000D01*
X102162000Y-114046000D02*
X99441000Y-116767000D01*
X103886000Y-114046000D02*
X105918000Y-114046000D01*
X105918000Y-114046000D02*
X106045000Y-114173000D01*
X106045000Y-114173000D02*
X106045000Y-114189000D01*
X111736000Y-103422000D02*
X111760000Y-103378000D01*
X111760000Y-103378000D02*
X113411000Y-105029000D01*
X113411000Y-105029000D02*
X114046000Y-105029000D01*
X114046000Y-105029000D02*
X114046000Y-105072000D01*
X111506000Y-108966000D02*
X108966000Y-111506000D01*
X108966000Y-111506000D02*
X108966000Y-119380000D01*
X108966000Y-119380000D02*
X109071000Y-119380000D01*
X111736000Y-103422000D02*
X111760000Y-103378000D01*
X111760000Y-103378000D02*
X111760000Y-108458000D01*
X111760000Y-108458000D02*
X111506000Y-108712000D01*
X111506000Y-108712000D02*
X111506000Y-108966000D01*
X114046000Y-107272000D02*
X114046000Y-110302000D01*
X102362000Y-104394000D02*
X103378000Y-103378000D01*
X103378000Y-103378000D02*
X104614000Y-103378000D01*
X114554000Y-114871500D02*
X114554000Y-114808000D01*
X114554000Y-114808000D02*
X113792000Y-114046000D01*
X113792000Y-114046000D02*
X111506000Y-114046000D01*
X114046000Y-112202000D02*
X114046000Y-112141000D01*
X114046000Y-112141000D02*
X113411000Y-111506000D01*
X113411000Y-111506000D02*
X111506000Y-111506000D01*
X113347500Y-112268000D02*
X112268000Y-112268000D01*
X112268000Y-112268000D02*
X111506000Y-111506000D01*
X106714000Y-103378000D02*
X108712000Y-103378000D01*
X108712000Y-103378000D02*
X108736000Y-103422000D01*
X128016000Y-112649000D02*
X126873000Y-112649000D01*
X126873000Y-112649000D02*
X125476000Y-111252000D01*
X125476000Y-111252000D02*
X125460000Y-111252000D01*
X125460000Y-111252000D02*
X125476000Y-111252000D01*
X125476000Y-111252000D02*
X124841000Y-111887000D01*
X124841000Y-111887000D02*
X124841000Y-113720000D01*
X128016000Y-112649000D02*
X128651000Y-112014000D01*
X128651000Y-112014000D02*
X130269000Y-112014000D01*
X136144000Y-119126000D02*
X137160000Y-119126000D01*
X139446000Y-115697000D02*
X139446000Y-102616000D01*
X139446000Y-102616000D02*
X121158000Y-102616000D01*
X121158000Y-102616000D02*
X121158002Y-120014541D01*
X121158002Y-120014541D02*
X121285000Y-120015000D01*
X121285000Y-120015000D02*
X139954000Y-120015000D01*
X139954000Y-120015000D02*
X139954000Y-102108000D01*
X139954000Y-102108000D02*
X120650000Y-102108000D01*
X120650000Y-102108000D02*
X120650000Y-120650000D01*
X120650000Y-120650000D02*
X120650000Y-120523000D01*
X120650000Y-120523000D02*
X140462000Y-120523000D01*
X140462000Y-120523000D02*
X140462000Y-120396000D01*
X140462000Y-120396000D02*
X140462000Y-101727000D01*
X140462000Y-101727000D02*
X140335000Y-101600000D01*
X140335000Y-101600000D02*
X120142000Y-101600000D01*
X120142000Y-101600000D02*
X120142000Y-121031000D01*
X120142000Y-121031000D02*
X120650000Y-121539000D01*
X120650000Y-121539000D02*
X120777000Y-121539000D01*
X122301000Y-118745000D02*
X122682000Y-119126000D01*
X122682000Y-119126000D02*
X136144000Y-119126000D01*
X138176000Y-116967000D02*
X139446000Y-115697000D01*
X137303000Y-118983000D02*
X138176000Y-118983000D01*
X137160000Y-119126000D02*
X137303000Y-118983000D01*
X135669000Y-114554000D02*
X135636000Y-114554000D01*
X135636000Y-114554000D02*
X135382000Y-114808000D01*
X135382000Y-114808000D02*
X135382000Y-117094000D01*
X135382000Y-117094000D02*
X137287000Y-118999000D01*
X137287000Y-118999000D02*
X138176000Y-118999000D01*
X138176000Y-118999000D02*
X138176000Y-118983000D01*
X138176000Y-116983000D02*
X138176000Y-116967000D01*
X138176000Y-116983000D02*
X138176000Y-115377000D01*
X127762000Y-115459000D02*
X126802000Y-115459000D01*
X126802000Y-115459000D02*
X124841000Y-117420000D01*
X127762000Y-115459000D02*
X127762000Y-114935000D01*
X129413000Y-113284000D02*
X130269000Y-113284000D01*
X127762000Y-114935000D02*
X129413000Y-113284000D01*
X135382000Y-105686000D02*
X135382000Y-105664000D01*
X135382000Y-105664000D02*
X136398000Y-106680000D01*
X136398000Y-106680000D02*
X136398000Y-106807000D01*
X136398000Y-106807000D02*
X136525000Y-106934000D01*
X136525000Y-106934000D02*
X136525000Y-109855000D01*
X136525000Y-109855000D02*
X135636000Y-110744000D01*
X135636000Y-110744000D02*
X135669000Y-110744000D01*
X138176000Y-106215000D02*
X138176000Y-106172000D01*
X138176000Y-106172000D02*
X135890000Y-106172000D01*
X135890000Y-106172000D02*
X135382000Y-105664000D01*
X135382000Y-105664000D02*
X135382000Y-105686000D01*
X135382000Y-105686000D02*
X135382000Y-105664000D01*
X135382000Y-105664000D02*
X134874000Y-105156000D01*
X134874000Y-105156000D02*
X132969000Y-105156000D01*
X132969000Y-105156000D02*
X132945000Y-105200000D01*
X138176000Y-108415000D02*
X138176000Y-110175000D01*
X128143000Y-105122000D02*
X128143000Y-105156000D01*
X128143000Y-105156000D02*
X129921000Y-105156000D01*
X129921000Y-105156000D02*
X129945000Y-105200000D01*
X125095000Y-106553000D02*
X125730000Y-107188000D01*
X125730000Y-107188000D02*
X128143000Y-107188000D01*
X128143000Y-107188000D02*
X128143000Y-107222000D01*
X130269000Y-110744000D02*
X130302000Y-110744000D01*
X130302000Y-110744000D02*
X129667000Y-110109000D01*
X129667000Y-110109000D02*
X128016000Y-110109000D01*
X135669000Y-113284000D02*
X135636000Y-113284000D01*
X135636000Y-113284000D02*
X135890000Y-113538000D01*
X135890000Y-113538000D02*
X138176000Y-113538000D01*
X138176000Y-113538000D02*
X138176000Y-113477000D01*
X135669000Y-113284000D02*
X135636000Y-113284000D01*
X135636000Y-113284000D02*
X135128000Y-113792000D01*
X135128000Y-113792000D02*
X134493000Y-113792000D01*
X134493000Y-113792000D02*
X132842000Y-115443000D01*
X132842000Y-115443000D02*
X132842000Y-117094000D01*
X135669000Y-112014000D02*
X138176000Y-112014000D01*
X138176000Y-112014000D02*
X138176000Y-112075000D01*
X135669000Y-112014000D02*
X135636000Y-112014000D01*
X135636000Y-112014000D02*
X135128000Y-112522000D01*
X135128000Y-112522000D02*
X134493000Y-112522000D01*
X134493000Y-112522000D02*
X130302000Y-116713000D01*
X130302000Y-116713000D02*
X130302000Y-117094000D01*
M02*
